<svg xmlns="http://www.w3.org/2000/svg" xmlns:xlink="http://www.w3.org/1999/xlink" width="580" zoomAndPan="magnify" viewBox="0 0 434.88 222.749995" height="297" preserveAspectRatio="xMidYMid meet" version="1.0"><defs><g/><clipPath id="a14cbeea40"><path d="M 75.257812 96 L 148.675781 96 L 148.675781 147.234375 L 75.257812 147.234375 Z M 75.257812 96 " clip-rule="nonzero"/></clipPath><clipPath id="5540323647"><path d="M 127 75.316406 L 146 75.316406 L 146 94 L 127 94 Z M 127 75.316406 " clip-rule="nonzero"/></clipPath></defs><g clip-path="url(#a14cbeea40)"><path fill="#ffffff" d="M 137.746094 125.550781 C 138.0625 124.035156 138.253906 122.476562 138.308594 120.882812 C 138.433594 120.785156 138.558594 120.683594 138.679688 120.582031 C 149.964844 111.445312 153.226562 100.832031 140.402344 96.003906 C 144.707031 100.917969 143.125 106.660156 137.777344 112.167969 C 137.628906 112.320312 137.476562 112.472656 137.324219 112.625 C 127.875 121.964844 107.707031 130.546875 87.261719 133.164062 C 87.125 133.179688 86.988281 133.195312 86.847656 133.214844 C 82.96875 133.695312 79.082031 133.960938 75.257812 133.972656 C 79.726562 135.3125 84.3125 136.0625 88.894531 136.316406 C 89.019531 136.308594 89.140625 136.304688 89.261719 136.300781 C 89.304688 136.296875 89.347656 136.296875 89.394531 136.296875 C 92.539062 140.535156 96.878906 143.824219 101.910156 145.65625 C 99.742188 143.136719 97.917969 139.753906 96.578125 135.78125 C 97.558594 135.683594 98.539062 135.574219 99.519531 135.457031 C 101.636719 141.570312 104.96875 145.929688 108.835938 147.175781 C 109.101562 147.199219 109.367188 147.21875 109.636719 147.230469 L 109.636719 133.867188 C 110.625 133.679688 111.617188 133.480469 112.605469 133.269531 L 112.605469 147.230469 C 112.875 147.214844 113.140625 147.199219 113.40625 147.175781 C 118.183594 145.636719 122.148438 139.355469 124.003906 130.875 C 121.71875 131.460938 119.308594 131.957031 116.777344 132.347656 C 116.640625 132.371094 116.5 132.390625 116.363281 132.410156 C 120.425781 131.058594 124.273438 129.421875 127.800781 127.597656 L 137.238281 127.597656 C 137.433594 126.925781 137.601562 126.246094 137.746094 125.554688 Z M 137.746094 125.550781 " fill-opacity="1" fill-rule="evenodd"/></g><path fill="#ffffff" d="M 112.710938 97.433594 L 109.691406 101.664062 C 114.421875 101.742188 117.90625 102.546875 112.671875 108.402344 C 122.011719 100.121094 119.953125 97.492188 112.714844 97.433594 Z M 112.710938 97.433594 " fill-opacity="1" fill-rule="evenodd"/><path fill="#ffffff" d="M 108.597656 83.25 C 108.597656 85.246094 110.203125 86.863281 112.1875 86.863281 C 114.167969 86.863281 115.777344 85.246094 115.777344 83.25 C 115.777344 81.253906 114.167969 79.636719 112.1875 79.636719 C 110.207031 79.636719 108.597656 81.253906 108.597656 83.25 Z M 108.597656 83.25 " fill-opacity="1" fill-rule="evenodd"/><path fill="#ffffff" d="M 106.015625 91.566406 C 103.601562 101.503906 98.828125 110.1875 92.445312 118.007812 C 101.402344 111.742188 108.753906 103.554688 113.980469 92.824219 C 119.648438 93.621094 125.523438 93.558594 130.613281 88.230469 C 118.707031 96.453125 101.109375 79.300781 95.421875 94.660156 C 98.210938 91.417969 101.902344 91.101562 106.015625 91.570312 Z M 106.015625 91.566406 " fill-opacity="1" fill-rule="evenodd"/><g clip-path="url(#5540323647)"><path fill="#ffffff" d="M 136.160156 75.324219 L 137.789062 81.230469 L 143.394531 78.828125 L 139.816406 83.792969 L 145.179688 86.703125 L 139.09375 86.984375 L 140.175781 93.015625 L 136.160156 88.40625 L 132.148438 93.015625 L 133.230469 86.984375 L 127.144531 86.703125 L 132.507812 83.792969 L 128.933594 78.828125 L 134.535156 81.230469 Z M 136.160156 75.324219 " fill-opacity="1" fill-rule="evenodd"/></g><path fill="#eb9018" d="M 97.402344 130.050781 L 97.402344 121.449219 L 89.738281 121.449219 L 89.738281 131.496094 C 90.074219 131.445312 90.414062 131.390625 90.75 131.335938 C 92.964844 130.976562 95.1875 130.546875 97.402344 130.050781 Z M 124.835938 105.140625 L 124.835938 119.964844 C 127.503906 118.507812 130.125 116.871094 132.503906 115.0625 L 132.503906 105.140625 Z M 113.136719 108.835938 L 113.136719 125.320312 C 114.601562 124.761719 116.046875 124.167969 117.472656 123.550781 C 118.566406 123.078125 119.675781 122.570312 120.800781 122.03125 L 120.800781 108.839844 L 113.136719 108.839844 Z M 101.4375 115.703125 L 101.4375 129.070312 C 104.019531 128.394531 106.582031 127.628906 109.101562 126.773438 L 109.101562 115.703125 Z M 101.4375 115.703125 " fill-opacity="1" fill-rule="evenodd"/><path fill="#ffffff" d="M 127.039062 130.671875 C 125.753906 136.871094 123.375 142.113281 120.332031 145.65625 L 120.445312 145.613281 C 127.476562 143.019531 133.140625 137.578125 136.058594 130.671875 Z M 127.039062 130.671875 " fill-opacity="1" fill-rule="evenodd"/><g fill="#d9d9d9" fill-opacity="1"><g transform="translate(164.586396, 105.504888)"><g><path d="M 2.324219 -15.222656 L 1.726562 -19.417969 L 2.042969 -19.417969 L 3.171875 -15.753906 C 4.371094 -12.828125 5.214844 -10.5 6.554688 -7.367188 C 6.871094 -6.660156 8.246094 -6.238281 8.703125 -7.542969 L 8.703125 -7.507812 L 11.980469 -15.71875 L 13.039062 -19.171875 L 13.355469 -19.171875 L 12.792969 -15.152344 L 12.792969 -1.023438 C 12.792969 -0.175781 13.355469 0.210938 13.992188 0.210938 C 14.554688 0.210938 15.1875 -0.175781 15.1875 -1.023438 L 15.1875 -23.539062 C 15.1875 -24.421875 14.625 -24.773438 14.097656 -24.773438 C 13.636719 -24.773438 13.003906 -24.457031 12.792969 -24.070312 L 7.578125 -10.394531 C 5.746094 -14.941406 4.125 -19.382812 2.253906 -23.964844 C 2.148438 -24.421875 1.621094 -24.808594 1.09375 -24.808594 C 0.5625 -24.808594 0 -24.457031 0 -23.539062 L 0 -1.023438 C 0 -0.246094 0.597656 0.140625 1.164062 0.140625 C 1.796875 0.140625 2.394531 -0.316406 2.394531 -1.023438 C 2.394531 -5.921875 2.324219 -10.289062 2.324219 -15.222656 Z M 2.324219 -15.222656 "/></g></g></g><g fill="#d9d9d9" fill-opacity="1"><g transform="translate(182.238538, 105.504888)"><g><path d="M 5.425781 -14.519531 C 7.117188 -14.519531 8.492188 -13.144531 8.492188 -11.453125 C 8.492188 -9.691406 7.117188 -8.386719 5.425781 -8.386719 L 3.242188 -8.386719 L 3.242188 -6.097656 L 5.425781 -6.097656 C 8.351562 -6.097656 10.785156 -8.351562 10.785156 -11.453125 C 10.785156 -14.519531 8.492188 -16.84375 5.425781 -16.84375 C 2.359375 -16.84375 0 -14.34375 0 -11.347656 L 0 -5.109375 C 0 -2.042969 2.574219 0.28125 5.425781 0.28125 C 6.835938 0.28125 8.105469 -0.246094 8.984375 -1.023438 L 8.949219 -1.023438 C 9.867188 -1.796875 9.199219 -3.839844 7.507812 -2.785156 C 6.835938 -2.324219 6.167969 -2.078125 5.425781 -2.078125 C 3.734375 -2.078125 2.359375 -3.453125 2.359375 -5.109375 L 2.359375 -11.347656 C 2.359375 -13.074219 3.699219 -14.519531 5.425781 -14.519531 Z M 5.425781 -14.519531 "/></g></g></g><g fill="#d9d9d9" fill-opacity="1"><g transform="translate(194.781776, 105.504888)"><g><path d="M 10.925781 -1.023438 L 10.925781 -11.523438 C 10.925781 -14.449219 8.421875 -17.019531 5.460938 -17.019531 C 2.539062 -17.019531 0 -14.484375 0 -11.523438 L 0 -1.023438 C 0 -0.246094 0.597656 0.105469 1.164062 0.105469 C 1.761719 0.105469 2.359375 -0.28125 2.359375 -1.023438 L 2.359375 -11.523438 C 2.359375 -13.285156 3.769531 -14.695312 5.460938 -14.695312 C 7.1875 -14.695312 8.632812 -13.285156 8.632812 -11.523438 L 8.632812 -1.023438 C 8.632812 -0.351562 9.234375 0.0703125 9.796875 0.0703125 C 10.394531 0.0703125 10.925781 -0.28125 10.925781 -1.023438 Z M 10.925781 -1.023438 "/></g></g></g><g fill="#d9d9d9" fill-opacity="1"><g transform="translate(208.170629, 105.504888)"><g><path d="M 5.109375 -16.878906 L 2.324219 -16.878906 L 2.324219 -23.328125 C 2.324219 -24.105469 1.726562 -24.457031 1.164062 -24.457031 C 0.5625 -24.457031 0 -24.105469 0 -23.328125 L 0 -5.425781 C 0 -2.21875 2.429688 0.105469 5.671875 0.105469 C 6.414062 0.105469 6.765625 -0.421875 6.765625 -1.023438 C 6.765625 -1.585938 6.414062 -2.183594 5.671875 -2.183594 C 3.839844 -2.183594 2.324219 -3.59375 2.324219 -5.425781 L 2.324219 -14.554688 L 5.109375 -14.554688 C 5.851562 -14.554688 6.203125 -15.152344 6.203125 -15.71875 C 6.203125 -16.28125 5.851562 -16.878906 5.109375 -16.878906 Z M 5.109375 -16.878906 "/></g></g></g><g fill="#d9d9d9" fill-opacity="1"><g transform="translate(215.886833, 105.504888)"><g><path d="M 10.996094 -5.25 L 10.996094 -11.628906 C 10.996094 -14.519531 8.492188 -17.125 5.53125 -17.125 C 2.574219 -17.125 0 -14.519531 0 -11.628906 L 0 -5.25 C 0 -2.289062 2.574219 0.28125 5.53125 0.28125 C 8.492188 0.28125 10.996094 -2.289062 10.996094 -5.25 Z M 8.667969 -11.628906 L 8.667969 -5.25 C 8.667969 -3.488281 7.082031 -2.042969 5.53125 -2.042969 C 3.980469 -2.042969 2.359375 -3.488281 2.359375 -5.25 L 2.359375 -11.628906 C 2.359375 -13.355469 3.804688 -14.800781 5.53125 -14.800781 C 7.1875 -14.800781 8.667969 -13.355469 8.667969 -11.628906 Z M 8.667969 -11.628906 "/></g></g></g><g fill="#d9d9d9" fill-opacity="1"><g transform="translate(229.451854, 105.504888)"><g><path d="M 2.359375 -0.917969 L 2.359375 -11.59375 C 2.359375 -13.355469 3.734375 -14.800781 5.460938 -14.800781 C 5.601562 -14.800781 5.851562 -14.765625 6.027344 -14.730469 C 7.011719 -14.589844 7.578125 -15.292969 7.578125 -15.929688 C 7.578125 -16.421875 7.222656 -16.914062 6.589844 -17.054688 C 6.203125 -17.125 5.957031 -17.125 5.460938 -17.125 C 2.394531 -17.125 0 -14.484375 0 -11.59375 L 0 -0.917969 C 0 -0.175781 0.632812 0.175781 1.199219 0.175781 C 1.761719 0.175781 2.359375 -0.175781 2.359375 -0.917969 Z M 2.359375 -0.917969 "/></g></g></g><g fill="#d9d9d9" fill-opacity="1"><g transform="translate(238.048906, 105.504888)"><g/></g></g><g fill="#d9d9d9" fill-opacity="1"><g transform="translate(245.800352, 105.504888)"><g><path d="M 4.050781 -8.351562 L 4.050781 -0.847656 C 4.050781 -0.175781 4.652344 0.28125 5.285156 0.28125 C 5.851562 0.28125 6.449219 -0.105469 6.449219 -0.847656 L 6.449219 -8.28125 L 9.796875 -12.476562 C 10.535156 -13.355469 10.960938 -14.800781 10.960938 -15.929688 L 10.960938 -23.644531 C 10.960938 -24.386719 10.394531 -24.738281 9.796875 -24.738281 C 9.199219 -24.738281 8.597656 -24.316406 8.597656 -23.644531 L 8.597656 -16 C 8.597656 -15.398438 8.351562 -14.449219 7.929688 -13.882812 L 5.285156 -10.464844 L 2.609375 -13.847656 C 2.253906 -14.34375 1.9375 -15.398438 1.9375 -16 L 1.9375 -23.644531 C 1.9375 -24.351562 1.304688 -24.703125 0.738281 -24.703125 C 0.105469 -24.703125 -0.457031 -24.351562 -0.457031 -23.644531 L -0.457031 -15.929688 C -0.457031 -14.800781 -0.0351562 -13.355469 0.703125 -12.476562 Z M 4.050781 -8.351562 "/></g></g></g><g fill="#d9d9d9" fill-opacity="1"><g transform="translate(258.766398, 105.504888)"><g><path d="M 4.898438 -2.113281 C 3.242188 -2.113281 1.902344 -3.453125 1.902344 -5.144531 C 1.902344 -6.90625 3.277344 -8.210938 4.898438 -8.210938 L 7.117188 -8.210938 L 7.117188 -10.5 L 4.898438 -10.5 C 2.042969 -10.5 -0.457031 -8.246094 -0.457031 -5.144531 C -0.457031 -2.148438 1.9375 0.246094 4.898438 0.246094 C 8.070312 0.246094 10.324219 -2.289062 10.324219 -5.25 L 10.324219 -11.523438 C 10.324219 -14.554688 7.753906 -16.878906 4.898438 -16.878906 C 3.628906 -16.878906 2.503906 -16.457031 1.515625 -15.648438 C 0.457031 -14.835938 1.65625 -12.933594 2.855469 -13.777344 C 3.488281 -14.238281 4.160156 -14.589844 4.898438 -14.589844 C 6.625 -14.589844 8.035156 -13.179688 8.035156 -11.523438 L 8.035156 -5.25 C 8.035156 -3.523438 6.660156 -2.113281 4.898438 -2.113281 Z M 4.898438 -2.113281 "/></g></g></g><g fill="#d9d9d9" fill-opacity="1"><g transform="translate(271.521045, 105.504888)"><g><path d="M 2.359375 -0.917969 L 2.359375 -11.59375 C 2.359375 -13.355469 3.734375 -14.800781 5.460938 -14.800781 C 5.601562 -14.800781 5.851562 -14.765625 6.027344 -14.730469 C 7.011719 -14.589844 7.578125 -15.292969 7.578125 -15.929688 C 7.578125 -16.421875 7.222656 -16.914062 6.589844 -17.054688 C 6.203125 -17.125 5.957031 -17.125 5.460938 -17.125 C 2.394531 -17.125 0 -14.484375 0 -11.59375 L 0 -0.917969 C 0 -0.175781 0.632812 0.175781 1.199219 0.175781 C 1.761719 0.175781 2.359375 -0.175781 2.359375 -0.917969 Z M 2.359375 -0.917969 "/></g></g></g><g fill="#d9d9d9" fill-opacity="1"><g transform="translate(280.118097, 105.504888)"><g><path d="M 7.402344 -14.554688 L 7.402344 -16.878906 L 5.460938 -16.878906 C 2.289062 -16.878906 0 -14.449219 0 -11.523438 L 0 -5.109375 C 0 -2.113281 2.324219 0.316406 5.460938 0.316406 C 8.492188 0.316406 10.855469 -2.289062 10.855469 -5.25 L 10.855469 -22.976562 C 10.855469 -23.789062 10.21875 -24.175781 9.65625 -24.175781 C 9.09375 -24.175781 8.492188 -23.789062 8.492188 -22.976562 L 8.492188 -5.25 C 8.492188 -3.453125 7.1875 -2.007812 5.460938 -2.007812 C 3.699219 -2.007812 2.289062 -3.417969 2.289062 -5.109375 L 2.289062 -11.453125 C 2.289062 -13.179688 3.699219 -14.554688 5.460938 -14.554688 Z M 7.402344 -14.554688 "/></g></g></g><g fill="#eb9018" fill-opacity="1"><g transform="translate(176.343329, 129.659402)"><g><path d="M 2.613281 0 L 3.753906 0 L 3.753906 -4.523438 L 6.136719 -10.765625 L 4.96875 -10.765625 L 3.722656 -7.320312 C 3.554688 -6.8125 3.382812 -6.304688 3.199219 -5.78125 L 3.136719 -5.78125 C 3 -6.320312 2.84375 -6.84375 2.660156 -7.289062 L 1.308594 -10.765625 L 0.109375 -10.765625 L 2.613281 -4.523438 Z M 2.613281 0 "/></g></g></g><g fill="#eb9018" fill-opacity="1"><g transform="translate(182.675645, 129.659402)"><g><path d="M 3.246094 0.152344 C 5.03125 0.152344 5.890625 -1.078125 5.890625 -3.691406 C 5.890625 -6.273438 5.042969 -7.503906 3.277344 -7.503906 C 1.476562 -7.503906 0.613281 -6.273438 0.613281 -3.660156 C 0.613281 -1.09375 1.476562 0.152344 3.246094 0.152344 Z M 3.277344 -0.832031 C 2.183594 -0.832031 1.753906 -1.644531 1.753906 -3.691406 C 1.753906 -5.707031 2.183594 -6.519531 3.246094 -6.519531 C 4.335938 -6.519531 4.753906 -5.691406 4.753906 -3.660156 C 4.753906 -1.644531 4.320312 -0.832031 3.277344 -0.832031 Z M 3.277344 -0.832031 "/></g></g></g><g fill="#eb9018" fill-opacity="1"><g transform="translate(189.25387, 129.659402)"><g><path d="M 4.550781 -7.351562 L 4.550781 -1.691406 C 4 -1.152344 3.367188 -0.832031 2.859375 -0.832031 C 2.277344 -0.832031 2 -1.261719 2 -1.921875 L 2 -7.351562 L 0.890625 -7.351562 L 0.890625 -1.691406 C 0.890625 -0.507812 1.460938 0.152344 2.507812 0.152344 C 3.246094 0.152344 3.921875 -0.167969 4.644531 -0.832031 L 4.675781 -0.832031 L 4.753906 0 L 5.660156 0 L 5.660156 -7.351562 Z M 4.550781 -7.351562 "/></g></g></g><g fill="#eb9018" fill-opacity="1"><g transform="translate(195.908947, 129.659402)"><g><path d="M 3.800781 -7.476562 C 3.015625 -7.476562 2.382812 -6.996094 1.921875 -6.519531 L 1.90625 -6.519531 L 1.832031 -7.351562 L 0.921875 -7.351562 L 0.921875 0 L 2.03125 0 L 2.03125 -5.628906 C 2.507812 -6.121094 3.121094 -6.429688 3.722656 -6.429688 C 3.953125 -6.429688 4.183594 -6.382812 4.414062 -6.289062 L 4.660156 -7.289062 C 4.445312 -7.382812 4.136719 -7.476562 3.800781 -7.476562 Z M 3.800781 -7.476562 "/></g></g></g><g fill="#eb9018" fill-opacity="1"><g transform="translate(200.750421, 129.659402)"><g/></g></g><g fill="#eb9018" fill-opacity="1"><g transform="translate(203.347949, 129.659402)"><g><path d="M 5.445312 0 L 6.675781 0 L 4.183594 -6.058594 C 5.335938 -7.089844 5.9375 -8.765625 6.230469 -10.765625 L 5.074219 -10.765625 C 4.769531 -8.304688 3.84375 -6.519531 2.230469 -6.074219 L 2.230469 -10.765625 L 1.09375 -10.765625 L 1.09375 0 L 2.230469 0 L 2.230469 -5.074219 C 2.582031 -5.152344 2.921875 -5.277344 3.214844 -5.414062 Z M 5.445312 0 "/></g></g></g><g fill="#eb9018" fill-opacity="1"><g transform="translate(210.371891, 129.659402)"><g><path d="M 3.277344 -7.503906 C 1.507812 -7.503906 0.613281 -6.199219 0.613281 -3.675781 C 0.613281 -1.121094 1.460938 0.152344 3.261719 0.152344 C 4.058594 0.152344 4.890625 -0.09375 5.460938 -0.492188 L 5.105469 -1.414062 C 4.628906 -1.0625 4 -0.832031 3.429688 -0.832031 C 2.308594 -0.832031 1.816406 -1.554688 1.738281 -3.261719 L 5.660156 -3.261719 C 5.675781 -3.554688 5.691406 -3.8125 5.691406 -4.089844 C 5.691406 -6.136719 5.152344 -7.503906 3.277344 -7.503906 Z M 3.292969 -6.535156 C 4.382812 -6.535156 4.644531 -5.566406 4.597656 -4.136719 L 1.738281 -4.136719 C 1.816406 -5.796875 2.261719 -6.535156 3.292969 -6.535156 Z M 3.292969 -6.535156 "/></g></g></g><g fill="#eb9018" fill-opacity="1"><g transform="translate(216.673468, 129.659402)"><g><path d="M 4.398438 -7.351562 L 3.320312 -2.90625 C 3.183594 -2.367188 3.0625 -1.90625 2.96875 -1.261719 L 2.890625 -1.261719 C 2.785156 -1.890625 2.691406 -2.382812 2.554688 -2.953125 L 1.351562 -7.351562 L 0.199219 -7.351562 L 2.382812 0.152344 C 2.167969 1.078125 1.800781 2.121094 0.675781 2.613281 L 1.136719 3.554688 C 2.628906 2.984375 3.046875 1.753906 3.507812 0.03125 L 5.535156 -7.351562 Z M 4.398438 -7.351562 "/></g></g></g><g fill="#eb9018" fill-opacity="1"><g transform="translate(222.483215, 129.659402)"><g/></g></g><g fill="#eb9018" fill-opacity="1"><g transform="translate(225.080746, 129.659402)"><g><path d="M 5.890625 -10.765625 L 0.277344 -10.765625 L 0.277344 -9.796875 L 2.507812 -9.796875 L 2.507812 0 L 3.644531 0 L 3.644531 -9.796875 L 5.890625 -9.796875 Z M 5.890625 -10.765625 "/></g></g></g><g fill="#eb9018" fill-opacity="1"><g transform="translate(231.320849, 129.659402)"><g><path d="M 3.246094 0.152344 C 5.03125 0.152344 5.890625 -1.078125 5.890625 -3.691406 C 5.890625 -6.273438 5.042969 -7.503906 3.277344 -7.503906 C 1.476562 -7.503906 0.613281 -6.273438 0.613281 -3.660156 C 0.613281 -1.09375 1.476562 0.152344 3.246094 0.152344 Z M 3.277344 -0.832031 C 2.183594 -0.832031 1.753906 -1.644531 1.753906 -3.691406 C 1.753906 -5.707031 2.183594 -6.519531 3.246094 -6.519531 C 4.335938 -6.519531 4.753906 -5.691406 4.753906 -3.660156 C 4.753906 -1.644531 4.320312 -0.832031 3.277344 -0.832031 Z M 3.277344 -0.832031 "/></g></g></g><g fill="#eb9018" fill-opacity="1"><g transform="translate(237.899071, 129.659402)"><g/></g></g><g fill="#eb9018" fill-opacity="1"><g transform="translate(240.496603, 129.659402)"><g><path d="M 2.84375 0.152344 C 4.628906 0.152344 5.691406 -1.015625 5.691406 -3.015625 C 5.691406 -4.320312 4.984375 -5.320312 3.460938 -6.289062 C 2.199219 -7.089844 1.832031 -7.582031 1.832031 -8.472656 C 1.832031 -9.398438 2.367188 -9.9375 3.292969 -9.9375 C 3.859375 -9.9375 4.539062 -9.703125 5.136719 -9.289062 L 5.566406 -10.195312 C 4.796875 -10.660156 3.953125 -10.921875 3.214844 -10.921875 C 1.660156 -10.921875 0.660156 -9.964844 0.660156 -8.460938 C 0.660156 -7.230469 1.230469 -6.351562 2.675781 -5.460938 C 4.089844 -4.597656 4.507812 -3.96875 4.507812 -2.84375 C 4.507812 -1.613281 3.875 -0.847656 2.816406 -0.847656 C 2.136719 -0.847656 1.382812 -1.136719 0.707031 -1.644531 L 0.339844 -0.660156 C 1.078125 -0.136719 1.984375 0.152344 2.84375 0.152344 Z M 2.84375 0.152344 "/></g></g></g><g fill="#eb9018" fill-opacity="1"><g transform="translate(246.690591, 129.659402)"><g><path d="M 4.550781 -7.351562 L 4.550781 -1.691406 C 4 -1.152344 3.367188 -0.832031 2.859375 -0.832031 C 2.277344 -0.832031 2 -1.261719 2 -1.921875 L 2 -7.351562 L 0.890625 -7.351562 L 0.890625 -1.691406 C 0.890625 -0.507812 1.460938 0.152344 2.507812 0.152344 C 3.246094 0.152344 3.921875 -0.167969 4.644531 -0.832031 L 4.675781 -0.832031 L 4.753906 0 L 5.660156 0 L 5.660156 -7.351562 Z M 4.550781 -7.351562 "/></g></g></g><g fill="#eb9018" fill-opacity="1"><g transform="translate(253.345666, 129.659402)"><g><path d="M 3.261719 0.152344 C 4 0.152344 4.769531 -0.078125 5.320312 -0.476562 L 4.96875 -1.367188 C 4.476562 -1.015625 3.953125 -0.832031 3.398438 -0.832031 C 2.246094 -0.832031 1.753906 -1.691406 1.753906 -3.722656 C 1.753906 -5.769531 2.199219 -6.519531 3.414062 -6.519531 C 3.9375 -6.519531 4.414062 -6.367188 4.8125 -6.074219 L 5.230469 -6.921875 C 4.722656 -7.289062 4.046875 -7.503906 3.351562 -7.503906 C 1.476562 -7.503906 0.613281 -6.304688 0.613281 -3.675781 C 0.613281 -1.136719 1.492188 0.152344 3.261719 0.152344 Z M 3.261719 0.152344 "/></g></g></g><g fill="#eb9018" fill-opacity="1"><g transform="translate(259.078575, 129.659402)"><g><path d="M 3.261719 0.152344 C 4 0.152344 4.769531 -0.078125 5.320312 -0.476562 L 4.96875 -1.367188 C 4.476562 -1.015625 3.953125 -0.832031 3.398438 -0.832031 C 2.246094 -0.832031 1.753906 -1.691406 1.753906 -3.722656 C 1.753906 -5.769531 2.199219 -6.519531 3.414062 -6.519531 C 3.9375 -6.519531 4.414062 -6.367188 4.8125 -6.074219 L 5.230469 -6.921875 C 4.722656 -7.289062 4.046875 -7.503906 3.351562 -7.503906 C 1.476562 -7.503906 0.613281 -6.304688 0.613281 -3.675781 C 0.613281 -1.136719 1.492188 0.152344 3.261719 0.152344 Z M 3.261719 0.152344 "/></g></g></g><g fill="#eb9018" fill-opacity="1"><g transform="translate(264.811484, 129.659402)"><g><path d="M 3.277344 -7.503906 C 1.507812 -7.503906 0.613281 -6.199219 0.613281 -3.675781 C 0.613281 -1.121094 1.460938 0.152344 3.261719 0.152344 C 4.058594 0.152344 4.890625 -0.09375 5.460938 -0.492188 L 5.105469 -1.414062 C 4.628906 -1.0625 4 -0.832031 3.429688 -0.832031 C 2.308594 -0.832031 1.816406 -1.554688 1.738281 -3.261719 L 5.660156 -3.261719 C 5.675781 -3.554688 5.691406 -3.8125 5.691406 -4.089844 C 5.691406 -6.136719 5.152344 -7.503906 3.277344 -7.503906 Z M 3.292969 -6.535156 C 4.382812 -6.535156 4.644531 -5.566406 4.597656 -4.136719 L 1.738281 -4.136719 C 1.816406 -5.796875 2.261719 -6.535156 3.292969 -6.535156 Z M 3.292969 -6.535156 "/></g></g></g><g fill="#eb9018" fill-opacity="1"><g transform="translate(271.113058, 129.659402)"><g><path d="M 2.445312 0.152344 C 3.890625 0.152344 4.796875 -0.675781 4.796875 -2.015625 C 4.796875 -3.382812 3.8125 -3.890625 2.953125 -4.335938 C 2.261719 -4.691406 1.644531 -5.015625 1.644531 -5.675781 C 1.644531 -6.214844 2 -6.519531 2.675781 -6.519531 C 3.152344 -6.519531 3.660156 -6.367188 4.121094 -6.089844 L 4.539062 -6.921875 C 3.96875 -7.304688 3.246094 -7.503906 2.554688 -7.503906 C 1.199219 -7.503906 0.507812 -6.78125 0.507812 -5.675781 C 0.507812 -4.398438 1.414062 -3.9375 2.261719 -3.539062 C 2.984375 -3.183594 3.675781 -2.84375 3.675781 -1.984375 C 3.675781 -1.261719 3.167969 -0.816406 2.414062 -0.816406 C 1.859375 -0.816406 1.230469 -1.046875 0.691406 -1.429688 L 0.308594 -0.554688 C 0.96875 -0.0625 1.691406 0.152344 2.445312 0.152344 Z M 2.445312 0.152344 "/></g></g></g><g fill="#eb9018" fill-opacity="1"><g transform="translate(276.415609, 129.659402)"><g><path d="M 2.445312 0.152344 C 3.890625 0.152344 4.796875 -0.675781 4.796875 -2.015625 C 4.796875 -3.382812 3.8125 -3.890625 2.953125 -4.335938 C 2.261719 -4.691406 1.644531 -5.015625 1.644531 -5.675781 C 1.644531 -6.214844 2 -6.519531 2.675781 -6.519531 C 3.152344 -6.519531 3.660156 -6.367188 4.121094 -6.089844 L 4.539062 -6.921875 C 3.96875 -7.304688 3.246094 -7.503906 2.554688 -7.503906 C 1.199219 -7.503906 0.507812 -6.78125 0.507812 -5.675781 C 0.507812 -4.398438 1.414062 -3.9375 2.261719 -3.539062 C 2.984375 -3.183594 3.675781 -2.84375 3.675781 -1.984375 C 3.675781 -1.261719 3.167969 -0.816406 2.414062 -0.816406 C 1.859375 -0.816406 1.230469 -1.046875 0.691406 -1.429688 L 0.308594 -0.554688 C 0.96875 -0.0625 1.691406 0.152344 2.445312 0.152344 Z M 2.445312 0.152344 "/></g></g></g></svg>