<svg xmlns="http://www.w3.org/2000/svg" xmlns:xlink="http://www.w3.org/1999/xlink" width="500" zoomAndPan="magnify" viewBox="0 0 375 374.999991" height="500" preserveAspectRatio="xMidYMid meet" version="1.0"><defs><g/><clipPath id="fc70f46572"><path d="M 80.410156 126 L 153.910156 126 L 153.910156 178.152344 L 80.410156 178.152344 Z M 80.410156 126 " clip-rule="nonzero"/></clipPath><clipPath id="da2a7f513d"><path d="M 132 106.152344 L 151 106.152344 L 151 124 L 132 124 Z M 132 106.152344 " clip-rule="nonzero"/></clipPath></defs><g clip-path="url(#fc70f46572)"><path fill="#ffffff" d="M 142.964844 156.441406 C 143.28125 154.925781 143.472656 153.363281 143.53125 151.769531 C 143.65625 151.667969 143.78125 151.566406 143.902344 151.46875 C 155.199219 142.320312 158.464844 131.695312 145.625 126.863281 C 149.9375 131.78125 148.351562 137.527344 143 143.042969 C 142.847656 143.195312 142.695312 143.347656 142.542969 143.503906 C 133.082031 152.851562 112.894531 161.441406 92.425781 164.0625 C 92.289062 164.078125 92.152344 164.097656 92.011719 164.113281 C 88.128906 164.59375 84.234375 164.863281 80.410156 164.875 C 84.882812 166.214844 89.472656 166.964844 94.0625 167.21875 C 94.183594 167.210938 94.304688 167.207031 94.425781 167.203125 C 94.472656 167.199219 94.515625 167.199219 94.558594 167.199219 C 97.707031 171.441406 102.050781 174.734375 107.089844 176.570312 C 104.921875 174.046875 103.09375 170.664062 101.753906 166.683594 C 102.734375 166.585938 103.71875 166.476562 104.699219 166.359375 C 106.816406 172.480469 110.152344 176.84375 114.023438 178.089844 C 114.292969 178.113281 114.554688 178.132812 114.824219 178.144531 L 114.824219 164.769531 C 115.816406 164.578125 116.808594 164.378906 117.800781 164.171875 L 117.800781 178.144531 C 118.066406 178.128906 118.335938 178.113281 118.601562 178.089844 C 123.382812 176.550781 127.351562 170.261719 129.210938 161.769531 C 126.921875 162.359375 124.511719 162.855469 121.976562 163.246094 C 121.835938 163.269531 121.699219 163.289062 121.558594 163.308594 C 125.625 161.957031 129.476562 160.316406 133.011719 158.492188 L 142.457031 158.492188 C 142.652344 157.820312 142.820312 157.136719 142.964844 156.445312 Z M 142.964844 156.441406 " fill-opacity="1" fill-rule="evenodd"/></g><path fill="#ffffff" d="M 117.90625 128.292969 L 114.882812 132.527344 C 119.617188 132.605469 123.101562 133.410156 117.863281 139.277344 C 127.214844 130.984375 125.15625 128.351562 117.90625 128.292969 Z M 117.90625 128.292969 " fill-opacity="1" fill-rule="evenodd"/><path fill="#ffffff" d="M 113.785156 114.09375 C 113.785156 116.089844 115.394531 117.710938 117.378906 117.710938 C 119.363281 117.710938 120.976562 116.089844 120.976562 114.09375 C 120.976562 112.097656 119.363281 110.476562 117.378906 110.476562 C 115.398438 110.476562 113.785156 112.097656 113.785156 114.09375 Z M 113.785156 114.09375 " fill-opacity="1" fill-rule="evenodd"/><path fill="#ffffff" d="M 111.203125 122.417969 C 108.785156 132.367188 104.007812 141.058594 97.613281 148.890625 C 106.582031 142.617188 113.941406 134.421875 119.171875 123.679688 C 124.847656 124.476562 130.730469 124.414062 135.828125 119.078125 C 123.90625 127.3125 106.289062 110.140625 100.59375 125.519531 C 103.386719 122.269531 107.082031 121.953125 111.199219 122.421875 Z M 111.203125 122.417969 " fill-opacity="1" fill-rule="evenodd"/><g clip-path="url(#da2a7f513d)"><path fill="#ffffff" d="M 141.378906 106.15625 L 143.011719 112.070312 L 148.621094 109.667969 L 145.039062 114.636719 L 150.40625 117.550781 L 144.316406 117.832031 L 145.398438 123.871094 L 141.378906 119.253906 L 137.363281 123.871094 L 138.445312 117.832031 L 132.351562 117.550781 L 137.722656 114.636719 L 134.144531 109.667969 L 139.753906 112.070312 Z M 141.378906 106.15625 " fill-opacity="1" fill-rule="evenodd"/></g><path fill="#eb9018" d="M 102.578125 160.945312 L 102.578125 152.335938 L 94.902344 152.335938 L 94.902344 162.394531 C 95.242188 162.34375 95.578125 162.289062 95.917969 162.234375 C 98.136719 161.875 100.359375 161.441406 102.578125 160.945312 Z M 130.042969 136.007812 L 130.042969 150.851562 C 132.714844 149.390625 135.335938 147.75 137.71875 145.941406 L 137.71875 136.007812 Z M 118.328125 139.707031 L 118.328125 156.210938 C 119.796875 155.652344 121.246094 155.058594 122.671875 154.441406 C 123.765625 153.964844 124.878906 153.457031 126.003906 152.921875 L 126.003906 139.710938 L 118.328125 139.710938 Z M 106.617188 146.582031 L 106.617188 159.964844 C 109.203125 159.289062 111.765625 158.519531 114.292969 157.664062 L 114.292969 146.582031 Z M 106.617188 146.582031 " fill-opacity="1" fill-rule="evenodd"/><path fill="#ffffff" d="M 132.246094 161.570312 C 130.960938 167.773438 128.578125 173.023438 125.53125 176.570312 L 125.644531 176.527344 C 132.683594 173.929688 138.355469 168.480469 141.277344 161.570312 Z M 132.246094 161.570312 " fill-opacity="1" fill-rule="evenodd"/><g fill="#d9d9d9" fill-opacity="1"><g transform="translate(169.837075, 136.373305)"><g><path d="M 2.328125 -15.242188 L 1.730469 -19.4375 L 2.046875 -19.4375 L 3.175781 -15.769531 C 4.375 -12.84375 5.222656 -10.511719 6.5625 -7.375 C 6.878906 -6.667969 8.253906 -6.246094 8.714844 -7.550781 L 8.714844 -7.515625 L 11.996094 -15.734375 L 13.054688 -19.191406 L 13.371094 -19.191406 L 12.804688 -15.171875 L 12.804688 -1.023438 C 12.804688 -0.175781 13.371094 0.210938 14.007812 0.210938 C 14.570312 0.210938 15.207031 -0.175781 15.207031 -1.023438 L 15.207031 -23.566406 C 15.207031 -24.449219 14.640625 -24.800781 14.113281 -24.800781 C 13.652344 -24.800781 13.019531 -24.484375 12.804688 -24.097656 L 7.585938 -10.40625 C 5.75 -14.957031 4.128906 -19.402344 2.257812 -23.992188 C 2.152344 -24.449219 1.621094 -24.835938 1.09375 -24.835938 C 0.566406 -24.835938 0 -24.484375 0 -23.566406 L 0 -1.023438 C 0 -0.246094 0.601562 0.140625 1.164062 0.140625 C 1.800781 0.140625 2.398438 -0.316406 2.398438 -1.023438 C 2.398438 -5.925781 2.328125 -10.300781 2.328125 -15.242188 Z M 2.328125 -15.242188 "/></g></g></g><g fill="#d9d9d9" fill-opacity="1"><g transform="translate(187.50903, 136.373305)"><g><path d="M 5.433594 -14.535156 C 7.125 -14.535156 8.503906 -13.160156 8.503906 -11.464844 C 8.503906 -9.703125 7.125 -8.398438 5.433594 -8.398438 L 3.246094 -8.398438 L 3.246094 -6.101562 L 5.433594 -6.101562 C 8.363281 -6.101562 10.796875 -8.363281 10.796875 -11.464844 C 10.796875 -14.535156 8.503906 -16.863281 5.433594 -16.863281 C 2.363281 -16.863281 0 -14.359375 0 -11.359375 L 0 -5.117188 C 0 -2.046875 2.574219 0.28125 5.433594 0.28125 C 6.84375 0.28125 8.113281 -0.246094 8.996094 -1.023438 L 8.960938 -1.023438 C 9.878906 -1.800781 9.207031 -3.84375 7.515625 -2.789062 C 6.84375 -2.328125 6.175781 -2.082031 5.433594 -2.082031 C 3.738281 -2.082031 2.363281 -3.457031 2.363281 -5.117188 L 2.363281 -11.359375 C 2.363281 -13.089844 3.703125 -14.535156 5.433594 -14.535156 Z M 5.433594 -14.535156 "/></g></g></g><g fill="#d9d9d9" fill-opacity="1"><g transform="translate(200.066345, 136.373305)"><g><path d="M 10.9375 -1.023438 L 10.9375 -11.535156 C 10.9375 -14.464844 8.433594 -17.039062 5.46875 -17.039062 C 2.539062 -17.039062 0 -14.5 0 -11.535156 L 0 -1.023438 C 0 -0.246094 0.601562 0.105469 1.164062 0.105469 C 1.765625 0.105469 2.363281 -0.28125 2.363281 -1.023438 L 2.363281 -11.535156 C 2.363281 -13.300781 3.773438 -14.710938 5.46875 -14.710938 C 7.195312 -14.710938 8.644531 -13.300781 8.644531 -11.535156 L 8.644531 -1.023438 C 8.644531 -0.351562 9.242188 0.0703125 9.808594 0.0703125 C 10.40625 0.0703125 10.9375 -0.28125 10.9375 -1.023438 Z M 10.9375 -1.023438 "/></g></g></g><g fill="#d9d9d9" fill-opacity="1"><g transform="translate(213.470224, 136.373305)"><g><path d="M 5.117188 -16.898438 L 2.328125 -16.898438 L 2.328125 -23.355469 C 2.328125 -24.132812 1.730469 -24.484375 1.164062 -24.484375 C 0.566406 -24.484375 0 -24.132812 0 -23.355469 L 0 -5.433594 C 0 -2.222656 2.433594 0.105469 5.679688 0.105469 C 6.421875 0.105469 6.773438 -0.421875 6.773438 -1.023438 C 6.773438 -1.585938 6.421875 -2.1875 5.679688 -2.1875 C 3.84375 -2.1875 2.328125 -3.597656 2.328125 -5.433594 L 2.328125 -14.570312 L 5.117188 -14.570312 C 5.855469 -14.570312 6.210938 -15.171875 6.210938 -15.734375 C 6.210938 -16.300781 5.855469 -16.898438 5.117188 -16.898438 Z M 5.117188 -16.898438 "/></g></g></g><g fill="#d9d9d9" fill-opacity="1"><g transform="translate(221.195089, 136.373305)"><g><path d="M 11.007812 -5.257812 L 11.007812 -11.640625 C 11.007812 -14.535156 8.503906 -17.144531 5.539062 -17.144531 C 2.574219 -17.144531 0 -14.535156 0 -11.640625 L 0 -5.257812 C 0 -2.292969 2.574219 0.28125 5.539062 0.28125 C 8.503906 0.28125 11.007812 -2.292969 11.007812 -5.257812 Z M 8.679688 -11.640625 L 8.679688 -5.257812 C 8.679688 -3.492188 7.089844 -2.046875 5.539062 -2.046875 C 3.988281 -2.046875 2.363281 -3.492188 2.363281 -5.257812 L 2.363281 -11.640625 C 2.363281 -13.371094 3.808594 -14.816406 5.539062 -14.816406 C 7.195312 -14.816406 8.679688 -13.371094 8.679688 -11.640625 Z M 8.679688 -11.640625 "/></g></g></g><g fill="#d9d9d9" fill-opacity="1"><g transform="translate(234.775334, 136.373305)"><g><path d="M 2.363281 -0.917969 L 2.363281 -11.605469 C 2.363281 -13.371094 3.738281 -14.816406 5.46875 -14.816406 C 5.609375 -14.816406 5.855469 -14.78125 6.03125 -14.746094 C 7.019531 -14.605469 7.585938 -15.3125 7.585938 -15.945312 C 7.585938 -16.441406 7.230469 -16.933594 6.597656 -17.074219 C 6.210938 -17.144531 5.960938 -17.144531 5.46875 -17.144531 C 2.398438 -17.144531 0 -14.5 0 -11.605469 L 0 -0.917969 C 0 -0.175781 0.636719 0.175781 1.199219 0.175781 C 1.765625 0.175781 2.363281 -0.175781 2.363281 -0.917969 Z M 2.363281 -0.917969 "/></g></g></g><g fill="#d9d9d9" fill-opacity="1"><g transform="translate(243.382035, 136.373305)"><g/></g></g><g fill="#d9d9d9" fill-opacity="1"><g transform="translate(251.142181, 136.373305)"><g><path d="M 4.058594 -8.363281 L 4.058594 -0.847656 C 4.058594 -0.175781 4.65625 0.28125 5.292969 0.28125 C 5.855469 0.28125 6.457031 -0.105469 6.457031 -0.847656 L 6.457031 -8.289062 L 9.808594 -12.488281 C 10.546875 -13.371094 10.972656 -14.816406 10.972656 -15.945312 L 10.972656 -23.671875 C 10.972656 -24.414062 10.40625 -24.765625 9.808594 -24.765625 C 9.207031 -24.765625 8.609375 -24.34375 8.609375 -23.671875 L 8.609375 -16.015625 C 8.609375 -15.417969 8.363281 -14.464844 7.9375 -13.898438 L 5.292969 -10.476562 L 2.609375 -13.863281 C 2.257812 -14.359375 1.941406 -15.417969 1.941406 -16.015625 L 1.941406 -23.671875 C 1.941406 -24.378906 1.304688 -24.730469 0.742188 -24.730469 C 0.105469 -24.730469 -0.457031 -24.378906 -0.457031 -23.671875 L -0.457031 -15.945312 C -0.457031 -14.816406 -0.0351562 -13.371094 0.707031 -12.488281 Z M 4.058594 -8.363281 "/></g></g></g><g fill="#d9d9d9" fill-opacity="1"><g transform="translate(264.122779, 136.373305)"><g><path d="M 4.902344 -2.117188 C 3.246094 -2.117188 1.90625 -3.457031 1.90625 -5.152344 C 1.90625 -6.914062 3.28125 -8.21875 4.902344 -8.21875 L 7.125 -8.21875 L 7.125 -10.511719 L 4.902344 -10.511719 C 2.046875 -10.511719 -0.457031 -8.253906 -0.457031 -5.152344 C -0.457031 -2.152344 1.941406 0.246094 4.902344 0.246094 C 8.078125 0.246094 10.335938 -2.292969 10.335938 -5.257812 L 10.335938 -11.535156 C 10.335938 -14.570312 7.761719 -16.898438 4.902344 -16.898438 C 3.632812 -16.898438 2.503906 -16.476562 1.515625 -15.664062 C 0.457031 -14.851562 1.65625 -12.949219 2.859375 -13.792969 C 3.492188 -14.253906 4.164062 -14.605469 4.902344 -14.605469 C 6.632812 -14.605469 8.042969 -13.195312 8.042969 -11.535156 L 8.042969 -5.257812 C 8.042969 -3.527344 6.667969 -2.117188 4.902344 -2.117188 Z M 4.902344 -2.117188 "/></g></g></g><g fill="#d9d9d9" fill-opacity="1"><g transform="translate(276.891741, 136.373305)"><g><path d="M 2.363281 -0.917969 L 2.363281 -11.605469 C 2.363281 -13.371094 3.738281 -14.816406 5.46875 -14.816406 C 5.609375 -14.816406 5.855469 -14.78125 6.03125 -14.746094 C 7.019531 -14.605469 7.585938 -15.3125 7.585938 -15.945312 C 7.585938 -16.441406 7.230469 -16.933594 6.597656 -17.074219 C 6.210938 -17.144531 5.960938 -17.144531 5.46875 -17.144531 C 2.398438 -17.144531 0 -14.5 0 -11.605469 L 0 -0.917969 C 0 -0.175781 0.636719 0.175781 1.199219 0.175781 C 1.765625 0.175781 2.363281 -0.175781 2.363281 -0.917969 Z M 2.363281 -0.917969 "/></g></g></g><g fill="#d9d9d9" fill-opacity="1"><g transform="translate(285.498442, 136.373305)"><g><path d="M 7.410156 -14.570312 L 7.410156 -16.898438 L 5.46875 -16.898438 C 2.292969 -16.898438 0 -14.464844 0 -11.535156 L 0 -5.117188 C 0 -2.117188 2.328125 0.316406 5.46875 0.316406 C 8.503906 0.316406 10.867188 -2.292969 10.867188 -5.257812 L 10.867188 -23.003906 C 10.867188 -23.8125 10.230469 -24.203125 9.667969 -24.203125 C 9.101562 -24.203125 8.503906 -23.8125 8.503906 -23.003906 L 8.503906 -5.257812 C 8.503906 -3.457031 7.195312 -2.011719 5.46875 -2.011719 C 3.703125 -2.011719 2.292969 -3.421875 2.292969 -5.117188 L 2.292969 -11.464844 C 2.292969 -13.195312 3.703125 -14.570312 5.46875 -14.570312 Z M 7.410156 -14.570312 "/></g></g></g><g fill="#eb9018" fill-opacity="1"><g transform="translate(181.607204, 160.554921)"><g><path d="M 2.617188 0 L 3.757812 0 L 3.757812 -4.527344 L 6.144531 -10.777344 L 4.972656 -10.777344 L 3.726562 -7.328125 C 3.558594 -6.820312 3.386719 -6.3125 3.203125 -5.789062 L 3.140625 -5.789062 C 3.003906 -6.328125 2.847656 -6.851562 2.664062 -7.296875 L 1.308594 -10.777344 L 0.109375 -10.777344 L 2.617188 -4.527344 Z M 2.617188 0 "/></g></g></g><g fill="#eb9018" fill-opacity="1"><g transform="translate(187.946627, 160.554921)"><g><path d="M 3.25 0.152344 C 5.035156 0.152344 5.898438 -1.078125 5.898438 -3.695312 C 5.898438 -6.28125 5.050781 -7.515625 3.28125 -7.515625 C 1.476562 -7.515625 0.617188 -6.28125 0.617188 -3.664062 C 0.617188 -1.09375 1.476562 0.152344 3.25 0.152344 Z M 3.28125 -0.832031 C 2.1875 -0.832031 1.753906 -1.648438 1.753906 -3.695312 C 1.753906 -5.710938 2.1875 -6.527344 3.25 -6.527344 C 4.34375 -6.527344 4.757812 -5.695312 4.757812 -3.664062 C 4.757812 -1.648438 4.328125 -0.832031 3.28125 -0.832031 Z M 3.28125 -0.832031 "/></g></g></g><g fill="#eb9018" fill-opacity="1"><g transform="translate(194.532235, 160.554921)"><g><path d="M 4.558594 -7.359375 L 4.558594 -1.695312 C 4.003906 -1.15625 3.371094 -0.832031 2.863281 -0.832031 C 2.277344 -0.832031 2 -1.261719 2 -1.925781 L 2 -7.359375 L 0.894531 -7.359375 L 0.894531 -1.695312 C 0.894531 -0.507812 1.460938 0.152344 2.511719 0.152344 C 3.25 0.152344 3.925781 -0.167969 4.648438 -0.832031 L 4.679688 -0.832031 L 4.757812 0 L 5.667969 0 L 5.667969 -7.359375 Z M 4.558594 -7.359375 "/></g></g></g><g fill="#eb9018" fill-opacity="1"><g transform="translate(201.194781, 160.554921)"><g><path d="M 3.804688 -7.484375 C 3.019531 -7.484375 2.386719 -7.007812 1.925781 -6.527344 L 1.910156 -6.527344 L 1.832031 -7.359375 L 0.925781 -7.359375 L 0.925781 0 L 2.03125 0 L 2.03125 -5.636719 C 2.511719 -6.128906 3.125 -6.4375 3.726562 -6.4375 C 3.957031 -6.4375 4.1875 -6.390625 4.417969 -6.296875 L 4.664062 -7.296875 C 4.449219 -7.390625 4.140625 -7.484375 3.804688 -7.484375 Z M 3.804688 -7.484375 "/></g></g></g><g fill="#eb9018" fill-opacity="1"><g transform="translate(206.041689, 160.554921)"><g/></g></g><g fill="#eb9018" fill-opacity="1"><g transform="translate(208.642132, 160.554921)"><g><path d="M 5.449219 0 L 6.683594 0 L 4.1875 -6.066406 C 5.34375 -7.097656 5.945312 -8.777344 6.234375 -10.777344 L 5.082031 -10.777344 C 4.773438 -8.316406 3.847656 -6.527344 2.234375 -6.082031 L 2.234375 -10.777344 L 1.09375 -10.777344 L 1.09375 0 L 2.234375 0 L 2.234375 -5.082031 C 2.585938 -5.15625 2.925781 -5.28125 3.21875 -5.417969 Z M 5.449219 0 "/></g></g></g><g fill="#eb9018" fill-opacity="1"><g transform="translate(215.673957, 160.554921)"><g><path d="M 3.28125 -7.515625 C 1.507812 -7.515625 0.617188 -6.207031 0.617188 -3.679688 C 0.617188 -1.125 1.460938 0.152344 3.265625 0.152344 C 4.066406 0.152344 4.894531 -0.09375 5.464844 -0.492188 L 5.113281 -1.417969 C 4.632812 -1.0625 4.003906 -0.832031 3.433594 -0.832031 C 2.308594 -0.832031 1.816406 -1.554688 1.738281 -3.265625 L 5.667969 -3.265625 C 5.683594 -3.558594 5.695312 -3.820312 5.695312 -4.097656 C 5.695312 -6.144531 5.15625 -7.515625 3.28125 -7.515625 Z M 3.296875 -6.542969 C 4.386719 -6.542969 4.648438 -5.574219 4.605469 -4.140625 L 1.738281 -4.140625 C 1.816406 -5.804688 2.261719 -6.542969 3.296875 -6.542969 Z M 3.296875 -6.542969 "/></g></g></g><g fill="#eb9018" fill-opacity="1"><g transform="translate(221.982607, 160.554921)"><g><path d="M 4.402344 -7.359375 L 3.324219 -2.910156 C 3.1875 -2.371094 3.0625 -1.910156 2.972656 -1.261719 L 2.894531 -1.261719 C 2.785156 -1.894531 2.695312 -2.386719 2.554688 -2.957031 L 1.355469 -7.359375 L 0.199219 -7.359375 L 2.386719 0.152344 C 2.171875 1.078125 1.800781 2.125 0.675781 2.617188 L 1.140625 3.558594 C 2.632812 2.988281 3.046875 1.753906 3.511719 0.03125 L 5.542969 -7.359375 Z M 4.402344 -7.359375 "/></g></g></g><g fill="#eb9018" fill-opacity="1"><g transform="translate(227.798874, 160.554921)"><g/></g></g><g fill="#eb9018" fill-opacity="1"><g transform="translate(230.399321, 160.554921)"><g><path d="M 5.898438 -10.777344 L 0.277344 -10.777344 L 0.277344 -9.808594 L 2.511719 -9.808594 L 2.511719 0 L 3.648438 0 L 3.648438 -9.808594 L 5.898438 -9.808594 Z M 5.898438 -10.777344 "/></g></g></g><g fill="#eb9018" fill-opacity="1"><g transform="translate(236.646427, 160.554921)"><g><path d="M 3.25 0.152344 C 5.035156 0.152344 5.898438 -1.078125 5.898438 -3.695312 C 5.898438 -6.28125 5.050781 -7.515625 3.28125 -7.515625 C 1.476562 -7.515625 0.617188 -6.28125 0.617188 -3.664062 C 0.617188 -1.09375 1.476562 0.152344 3.25 0.152344 Z M 3.28125 -0.832031 C 2.1875 -0.832031 1.753906 -1.648438 1.753906 -3.695312 C 1.753906 -5.710938 2.1875 -6.527344 3.25 -6.527344 C 4.34375 -6.527344 4.757812 -5.695312 4.757812 -3.664062 C 4.757812 -1.648438 4.328125 -0.832031 3.28125 -0.832031 Z M 3.28125 -0.832031 "/></g></g></g><g fill="#eb9018" fill-opacity="1"><g transform="translate(243.232032, 160.554921)"><g/></g></g><g fill="#eb9018" fill-opacity="1"><g transform="translate(245.832479, 160.554921)"><g><path d="M 2.847656 0.152344 C 4.632812 0.152344 5.695312 -1.015625 5.695312 -3.019531 C 5.695312 -4.328125 4.988281 -5.328125 3.464844 -6.296875 C 2.203125 -7.097656 1.832031 -7.589844 1.832031 -8.484375 C 1.832031 -9.40625 2.371094 -9.945312 3.296875 -9.945312 C 3.863281 -9.945312 4.542969 -9.714844 5.144531 -9.300781 L 5.574219 -10.207031 C 4.804688 -10.671875 3.957031 -10.933594 3.21875 -10.933594 C 1.664062 -10.933594 0.660156 -9.976562 0.660156 -8.46875 C 0.660156 -7.238281 1.230469 -6.359375 2.679688 -5.464844 C 4.097656 -4.605469 4.511719 -3.972656 4.511719 -2.847656 C 4.511719 -1.617188 3.878906 -0.847656 2.816406 -0.847656 C 2.140625 -0.847656 1.386719 -1.140625 0.707031 -1.648438 L 0.339844 -0.660156 C 1.078125 -0.136719 1.984375 0.152344 2.847656 0.152344 Z M 2.847656 0.152344 "/></g></g></g><g fill="#eb9018" fill-opacity="1"><g transform="translate(252.033419, 160.554921)"><g><path d="M 4.558594 -7.359375 L 4.558594 -1.695312 C 4.003906 -1.15625 3.371094 -0.832031 2.863281 -0.832031 C 2.277344 -0.832031 2 -1.261719 2 -1.925781 L 2 -7.359375 L 0.894531 -7.359375 L 0.894531 -1.695312 C 0.894531 -0.507812 1.460938 0.152344 2.511719 0.152344 C 3.25 0.152344 3.925781 -0.167969 4.648438 -0.832031 L 4.679688 -0.832031 L 4.757812 0 L 5.667969 0 L 5.667969 -7.359375 Z M 4.558594 -7.359375 "/></g></g></g><g fill="#eb9018" fill-opacity="1"><g transform="translate(258.695963, 160.554921)"><g><path d="M 3.265625 0.152344 C 4.003906 0.152344 4.773438 -0.078125 5.328125 -0.476562 L 4.972656 -1.371094 C 4.480469 -1.015625 3.957031 -0.832031 3.402344 -0.832031 C 2.246094 -0.832031 1.753906 -1.695312 1.753906 -3.726562 C 1.753906 -5.773438 2.203125 -6.527344 3.417969 -6.527344 C 3.941406 -6.527344 4.417969 -6.375 4.820312 -6.082031 L 5.234375 -6.929688 C 4.726562 -7.296875 4.050781 -7.515625 3.355469 -7.515625 C 1.476562 -7.515625 0.617188 -6.3125 0.617188 -3.679688 C 0.617188 -1.140625 1.492188 0.152344 3.265625 0.152344 Z M 3.265625 0.152344 "/></g></g></g><g fill="#eb9018" fill-opacity="1"><g transform="translate(264.435306, 160.554921)"><g><path d="M 3.265625 0.152344 C 4.003906 0.152344 4.773438 -0.078125 5.328125 -0.476562 L 4.972656 -1.371094 C 4.480469 -1.015625 3.957031 -0.832031 3.402344 -0.832031 C 2.246094 -0.832031 1.753906 -1.695312 1.753906 -3.726562 C 1.753906 -5.773438 2.203125 -6.527344 3.417969 -6.527344 C 3.941406 -6.527344 4.417969 -6.375 4.820312 -6.082031 L 5.234375 -6.929688 C 4.726562 -7.296875 4.050781 -7.515625 3.355469 -7.515625 C 1.476562 -7.515625 0.617188 -6.3125 0.617188 -3.679688 C 0.617188 -1.140625 1.492188 0.152344 3.265625 0.152344 Z M 3.265625 0.152344 "/></g></g></g><g fill="#eb9018" fill-opacity="1"><g transform="translate(270.17465, 160.554921)"><g><path d="M 3.28125 -7.515625 C 1.507812 -7.515625 0.617188 -6.207031 0.617188 -3.679688 C 0.617188 -1.125 1.460938 0.152344 3.265625 0.152344 C 4.066406 0.152344 4.894531 -0.09375 5.464844 -0.492188 L 5.113281 -1.417969 C 4.632812 -1.0625 4.003906 -0.832031 3.433594 -0.832031 C 2.308594 -0.832031 1.816406 -1.554688 1.738281 -3.265625 L 5.667969 -3.265625 C 5.683594 -3.558594 5.695312 -3.820312 5.695312 -4.097656 C 5.695312 -6.144531 5.15625 -7.515625 3.28125 -7.515625 Z M 3.296875 -6.542969 C 4.386719 -6.542969 4.648438 -5.574219 4.605469 -4.140625 L 1.738281 -4.140625 C 1.816406 -5.804688 2.261719 -6.542969 3.296875 -6.542969 Z M 3.296875 -6.542969 "/></g></g></g><g fill="#eb9018" fill-opacity="1"><g transform="translate(276.483296, 160.554921)"><g><path d="M 2.449219 0.152344 C 3.894531 0.152344 4.804688 -0.675781 4.804688 -2.015625 C 4.804688 -3.386719 3.820312 -3.894531 2.957031 -4.34375 C 2.261719 -4.695312 1.648438 -5.019531 1.648438 -5.683594 C 1.648438 -6.21875 2 -6.527344 2.679688 -6.527344 C 3.15625 -6.527344 3.664062 -6.375 4.125 -6.097656 L 4.542969 -6.929688 C 3.972656 -7.3125 3.25 -7.515625 2.554688 -7.515625 C 1.199219 -7.515625 0.507812 -6.789062 0.507812 -5.683594 C 0.507812 -4.402344 1.417969 -3.941406 2.261719 -3.542969 C 2.988281 -3.1875 3.679688 -2.847656 3.679688 -1.984375 C 3.679688 -1.261719 3.171875 -0.816406 2.417969 -0.816406 C 1.863281 -0.816406 1.230469 -1.046875 0.691406 -1.433594 L 0.308594 -0.554688 C 0.96875 -0.0625 1.695312 0.152344 2.449219 0.152344 Z M 2.449219 0.152344 "/></g></g></g><g fill="#eb9018" fill-opacity="1"><g transform="translate(281.791798, 160.554921)"><g><path d="M 2.449219 0.152344 C 3.894531 0.152344 4.804688 -0.675781 4.804688 -2.015625 C 4.804688 -3.386719 3.820312 -3.894531 2.957031 -4.34375 C 2.261719 -4.695312 1.648438 -5.019531 1.648438 -5.683594 C 1.648438 -6.21875 2 -6.527344 2.679688 -6.527344 C 3.15625 -6.527344 3.664062 -6.375 4.125 -6.097656 L 4.542969 -6.929688 C 3.972656 -7.3125 3.25 -7.515625 2.554688 -7.515625 C 1.199219 -7.515625 0.507812 -6.789062 0.507812 -5.683594 C 0.507812 -4.402344 1.417969 -3.941406 2.261719 -3.542969 C 2.988281 -3.1875 3.679688 -2.847656 3.679688 -1.984375 C 3.679688 -1.261719 3.171875 -0.816406 2.417969 -0.816406 C 1.863281 -0.816406 1.230469 -1.046875 0.691406 -1.433594 L 0.308594 -0.554688 C 0.96875 -0.0625 1.695312 0.152344 2.449219 0.152344 Z M 2.449219 0.152344 "/></g></g></g></svg>