<svg xmlns="http://www.w3.org/2000/svg" xmlns:xlink="http://www.w3.org/1999/xlink" width="649" zoomAndPan="magnify" viewBox="0 0 486.75 244.499993" height="326" preserveAspectRatio="xMidYMid meet" version="1.0"><defs><g/><clipPath id="812dacb1e1"><path d="M 75.953125 103 L 170.308594 103 L 170.308594 168.59375 L 75.953125 168.59375 Z M 75.953125 103 " clip-rule="nonzero"/></clipPath><clipPath id="f6a26c9b54"><path d="M 142 77.234375 L 166 77.234375 L 166 100 L 142 100 Z M 142 77.234375 " clip-rule="nonzero"/></clipPath></defs><g clip-path="url(#812dacb1e1)"><path fill="#ffffff" d="M 156.261719 141.050781 C 156.667969 139.125 156.914062 137.144531 156.984375 135.117188 C 157.148438 134.992188 157.308594 134.863281 157.464844 134.738281 C 171.964844 123.128906 176.15625 109.648438 159.675781 103.515625 C 165.210938 109.757812 163.175781 117.050781 156.304688 124.046875 C 156.113281 124.242188 155.917969 124.433594 155.71875 124.628906 C 143.574219 136.496094 117.65625 147.394531 91.382812 150.71875 C 91.207031 150.742188 91.03125 150.761719 90.851562 150.785156 C 85.863281 151.394531 80.867188 151.734375 75.953125 151.75 C 81.699219 153.453125 87.589844 154.402344 93.480469 154.722656 C 93.640625 154.714844 93.792969 154.710938 93.949219 154.703125 C 94.007812 154.699219 94.0625 154.699219 94.121094 154.699219 C 98.160156 160.082031 103.738281 164.261719 110.207031 166.589844 C 107.421875 163.390625 105.074219 159.09375 103.355469 154.046875 C 104.613281 153.921875 105.875 153.785156 107.136719 153.632812 C 109.855469 161.402344 114.136719 166.9375 119.109375 168.519531 C 119.449219 168.546875 119.789062 168.574219 120.136719 168.589844 L 120.136719 151.613281 C 121.410156 151.371094 122.679688 151.121094 123.953125 150.855469 L 123.953125 168.589844 C 124.296875 168.570312 124.640625 168.546875 124.984375 168.519531 C 131.121094 166.5625 136.214844 158.582031 138.601562 147.808594 C 135.664062 148.558594 132.570312 149.1875 129.316406 149.683594 C 129.136719 149.710938 128.957031 149.734375 128.78125 149.761719 C 134 148.042969 138.945312 145.964844 143.480469 143.648438 L 155.609375 143.648438 C 155.859375 142.796875 156.078125 141.929688 156.261719 141.054688 Z M 156.261719 141.050781 " fill-opacity="1" fill-rule="evenodd"/></g><path fill="#ffffff" d="M 124.089844 105.332031 L 120.210938 110.703125 C 126.285156 110.804688 130.761719 111.824219 124.035156 119.265625 C 136.039062 108.742188 133.398438 105.40625 124.09375 105.332031 Z M 124.089844 105.332031 " fill-opacity="1" fill-rule="evenodd"/><path fill="#ffffff" d="M 118.800781 87.308594 C 118.800781 89.84375 120.867188 91.898438 123.417969 91.898438 C 125.960938 91.898438 128.03125 89.84375 128.03125 87.308594 C 128.03125 84.777344 125.960938 82.722656 123.417969 82.722656 C 120.871094 82.722656 118.800781 84.777344 118.800781 87.308594 Z M 118.800781 87.308594 " fill-opacity="1" fill-rule="evenodd"/><path fill="#ffffff" d="M 115.484375 97.875 C 112.382812 110.5 106.246094 121.53125 98.042969 131.46875 C 109.554688 123.503906 119.003906 113.109375 125.71875 99.476562 C 133.003906 100.488281 140.554688 100.410156 147.097656 93.636719 C 131.792969 104.085938 109.175781 82.292969 101.867188 101.808594 C 105.449219 97.6875 110.195312 97.285156 115.480469 97.878906 Z M 115.484375 97.875 " fill-opacity="1" fill-rule="evenodd"/><g clip-path="url(#f6a26c9b54)"><path fill="#ffffff" d="M 154.226562 77.242188 L 156.320312 84.746094 L 163.519531 81.691406 L 158.925781 88 L 165.816406 91.695312 L 157.992188 92.050781 L 159.382812 99.71875 L 154.226562 93.859375 L 149.070312 99.71875 L 150.457031 92.050781 L 142.636719 91.695312 L 149.53125 88 L 144.933594 81.691406 L 152.136719 84.746094 Z M 154.226562 77.242188 " fill-opacity="1" fill-rule="evenodd"/></g><path fill="#eb9018" d="M 104.414062 146.765625 L 104.414062 135.835938 L 94.5625 135.835938 L 94.5625 148.601562 C 94.996094 148.535156 95.429688 148.46875 95.863281 148.398438 C 98.710938 147.941406 101.566406 147.394531 104.414062 146.765625 Z M 139.671875 115.117188 L 139.671875 133.953125 C 143.101562 132.097656 146.46875 130.019531 149.523438 127.722656 L 149.523438 115.117188 Z M 124.632812 119.8125 L 124.632812 140.757812 C 126.515625 140.046875 128.375 139.292969 130.207031 138.507812 C 131.613281 137.90625 133.039062 137.261719 134.484375 136.578125 L 134.484375 119.816406 L 124.632812 119.816406 Z M 109.597656 128.539062 L 109.597656 145.519531 C 112.917969 144.660156 116.207031 143.6875 119.449219 142.601562 L 119.449219 128.539062 Z M 109.597656 128.539062 " fill-opacity="1" fill-rule="evenodd"/><path fill="#ffffff" d="M 142.503906 147.554688 C 140.851562 155.425781 137.792969 162.089844 133.882812 166.589844 L 134.027344 166.535156 C 143.0625 163.238281 150.34375 156.324219 154.09375 147.554688 Z M 142.503906 147.554688 " fill-opacity="1" fill-rule="evenodd"/><g fill="#ffffff" fill-opacity="1"><g transform="translate(178.907476, 127.600828)"><g><path d="M 4.011719 -26.261719 L 2.980469 -33.496094 L 3.527344 -33.496094 L 5.472656 -27.175781 C 7.539062 -22.128906 8.996094 -18.117188 11.308594 -12.707031 C 11.855469 -11.488281 14.226562 -10.761719 15.015625 -13.011719 L 15.015625 -12.949219 L 20.671875 -27.113281 L 22.492188 -33.070312 L 23.039062 -33.070312 L 22.066406 -26.140625 L 22.066406 -1.761719 C 22.066406 -0.304688 23.039062 0.363281 24.136719 0.363281 C 25.109375 0.363281 26.203125 -0.304688 26.203125 -1.761719 L 26.203125 -40.609375 C 26.203125 -42.128906 25.230469 -42.738281 24.316406 -42.738281 C 23.527344 -42.738281 22.433594 -42.191406 22.066406 -41.523438 L 13.070312 -17.933594 C 9.910156 -25.777344 7.113281 -33.4375 3.890625 -41.339844 C 3.707031 -42.128906 2.796875 -42.800781 1.882812 -42.800781 C 0.972656 -42.800781 0 -42.191406 0 -40.609375 L 0 -1.761719 C 0 -0.425781 1.035156 0.242188 2.007812 0.242188 C 3.101562 0.242188 4.132812 -0.546875 4.132812 -1.761719 C 4.132812 -10.214844 4.011719 -17.75 4.011719 -26.261719 Z M 4.011719 -26.261719 "/></g></g></g><g fill="#ffffff" fill-opacity="1"><g transform="translate(209.364655, 127.600828)"><g><path d="M 8.449219 -3.648438 C 5.59375 -3.648438 3.28125 -5.957031 3.28125 -8.875 C 3.28125 -11.914062 5.652344 -14.164062 8.449219 -14.164062 L 12.28125 -14.164062 L 12.28125 -18.117188 L 8.449219 -18.117188 C 3.527344 -18.117188 -0.789062 -14.226562 -0.789062 -8.875 C -0.789062 -3.707031 3.34375 0.425781 8.449219 0.425781 C 13.921875 0.425781 17.8125 -3.953125 17.8125 -9.058594 L 17.8125 -19.878906 C 17.8125 -25.109375 13.375 -29.121094 8.449219 -29.121094 C 6.261719 -29.121094 4.316406 -28.390625 2.613281 -26.992188 C 0.789062 -25.59375 2.855469 -22.3125 4.925781 -23.769531 C 6.019531 -24.5625 7.171875 -25.167969 8.449219 -25.167969 C 11.429688 -25.167969 13.859375 -22.738281 13.859375 -19.878906 L 13.859375 -9.058594 C 13.859375 -6.078125 11.488281 -3.648438 8.449219 -3.648438 Z M 8.449219 -3.648438 "/></g></g></g><g fill="#ffffff" fill-opacity="1"><g transform="translate(231.371646, 127.600828)"><g><path d="M 16.476562 -24.804688 L 16.230469 -25.410156 C 14.652344 -28.085938 12.160156 -29.304688 8.9375 -29.484375 C 3.953125 -29.605469 -0.488281 -25.835938 -0.546875 -20.425781 C -0.609375 -15.015625 3.28125 -12.707031 8.328125 -12.644531 C 10.882812 -12.402344 13.679688 -11.246094 13.558594 -8.570312 C 13.558594 -5.714844 11.003906 -3.40625 8.328125 -3.464844 C 5.957031 -3.585938 4.195312 -4.925781 3.34375 -6.261719 C 1.335938 -8.269531 -0.851562 -5.714844 0.242188 -3.890625 C 1.703125 -1.398438 5.289062 0.242188 8.328125 0.363281 C 13.375 0.488281 17.507812 -3.40625 17.628906 -8.570312 C 17.691406 -14.226562 13.070312 -16.476562 8.449219 -16.597656 C 5.714844 -16.65625 3.40625 -17.933594 3.464844 -20.488281 C 3.527344 -23.34375 5.957031 -25.535156 8.875 -25.472656 C 10.578125 -25.289062 12.28125 -24.4375 13.253906 -22.917969 C 14.53125 -21.21875 16.839844 -22.917969 16.476562 -24.804688 Z M 16.476562 -24.804688 "/></g></g></g><g fill="#ffffff" fill-opacity="1"><g transform="translate(252.223568, 127.600828)"><g><path d="M 8.816406 -29.121094 L 4.011719 -29.121094 L 4.011719 -40.246094 C 4.011719 -41.582031 2.980469 -42.191406 2.007812 -42.191406 C 0.972656 -42.191406 0 -41.582031 0 -40.246094 L 0 -9.363281 C 0 -3.828125 4.195312 0.183594 9.789062 0.183594 C 11.066406 0.183594 11.671875 -0.730469 11.671875 -1.761719 C 11.671875 -2.734375 11.066406 -3.769531 9.789062 -3.769531 C 6.625 -3.769531 4.011719 -6.199219 4.011719 -9.363281 L 4.011719 -25.109375 L 8.816406 -25.109375 C 10.09375 -25.109375 10.699219 -26.140625 10.699219 -27.113281 C 10.699219 -28.085938 10.09375 -29.121094 8.816406 -29.121094 Z M 8.816406 -29.121094 "/></g></g></g><g fill="#ffffff" fill-opacity="1"><g transform="translate(265.537193, 127.600828)"><g><path d="M 9.363281 -25.046875 C 12.28125 -25.046875 14.652344 -22.675781 14.652344 -19.757812 C 14.652344 -16.71875 12.28125 -14.46875 9.363281 -14.46875 L 5.59375 -14.46875 L 5.59375 -10.515625 L 9.363281 -10.515625 C 14.410156 -10.515625 18.601562 -14.410156 18.601562 -19.757812 C 18.601562 -25.046875 14.652344 -29.058594 9.363281 -29.058594 C 4.074219 -29.058594 0 -24.742188 0 -19.574219 L 0 -8.816406 C 0 -3.527344 4.4375 0.488281 9.363281 0.488281 C 11.792969 0.488281 13.984375 -0.425781 15.503906 -1.761719 L 15.441406 -1.761719 C 17.023438 -3.101562 15.867188 -6.625 12.949219 -4.804688 C 11.792969 -4.011719 10.640625 -3.585938 9.363281 -3.585938 C 6.445312 -3.585938 4.074219 -5.957031 4.074219 -8.816406 L 4.074219 -19.574219 C 4.074219 -22.554688 6.382812 -25.046875 9.363281 -25.046875 Z M 9.363281 -25.046875 "/></g></g></g><g fill="#ffffff" fill-opacity="1"><g transform="translate(287.179425, 127.600828)"><g><path d="M 4.074219 -1.582031 L 4.074219 -20 C 4.074219 -23.039062 6.445312 -25.535156 9.421875 -25.535156 C 9.667969 -25.535156 10.09375 -25.472656 10.394531 -25.410156 C 12.097656 -25.167969 13.070312 -26.382812 13.070312 -27.480469 C 13.070312 -28.332031 12.460938 -29.179688 11.367188 -29.425781 C 10.699219 -29.546875 10.273438 -29.546875 9.421875 -29.546875 C 4.132812 -29.546875 0 -24.988281 0 -20 L 0 -1.582031 C 0 -0.304688 1.09375 0.304688 2.066406 0.304688 C 3.039062 0.304688 4.074219 -0.304688 4.074219 -1.582031 Z M 4.074219 -1.582031 "/></g></g></g><g fill="#ffffff" fill-opacity="1"><g transform="translate(302.01286, 127.600828)"><g><path d="M 4.011719 -26.261719 L 2.980469 -33.496094 L 3.527344 -33.496094 L 5.472656 -27.175781 C 7.539062 -22.128906 8.996094 -18.117188 11.308594 -12.707031 C 11.855469 -11.488281 14.226562 -10.761719 15.015625 -13.011719 L 15.015625 -12.949219 L 20.671875 -27.113281 L 22.492188 -33.070312 L 23.039062 -33.070312 L 22.066406 -26.140625 L 22.066406 -1.761719 C 22.066406 -0.304688 23.039062 0.363281 24.136719 0.363281 C 25.109375 0.363281 26.203125 -0.304688 26.203125 -1.761719 L 26.203125 -40.609375 C 26.203125 -42.128906 25.230469 -42.738281 24.316406 -42.738281 C 23.527344 -42.738281 22.433594 -42.191406 22.066406 -41.523438 L 13.070312 -17.933594 C 9.910156 -25.777344 7.113281 -33.4375 3.890625 -41.339844 C 3.707031 -42.128906 2.796875 -42.800781 1.882812 -42.800781 C 0.972656 -42.800781 0 -42.191406 0 -40.609375 L 0 -1.761719 C 0 -0.425781 1.035156 0.242188 2.007812 0.242188 C 3.101562 0.242188 4.132812 -0.546875 4.132812 -1.761719 C 4.132812 -10.214844 4.011719 -17.75 4.011719 -26.261719 Z M 4.011719 -26.261719 "/></g></g></g><g fill="#ffffff" fill-opacity="1"><g transform="translate(332.470039, 127.600828)"><g><path d="M 2.554688 -36.414062 C 0.789062 -36.414062 -0.304688 -35.078125 -0.304688 -33.621094 C -0.304688 -31.125 1.761719 -30.761719 2.554688 -30.761719 C 3.707031 -30.761719 5.351562 -31.671875 5.351562 -33.621094 C 5.351562 -35.078125 4.4375 -36.414062 2.554688 -36.414062 Z M 4.4375 -26.75 L 4.4375 -1.945312 C 4.4375 0.851562 0.425781 1.09375 0.425781 -1.945312 L 0.425781 -26.75 C 0.425781 -29.425781 4.4375 -29.667969 4.4375 -26.75 Z M 4.4375 -26.75 "/></g></g></g><g fill="#ffffff" fill-opacity="1"><g transform="translate(341.832135, 127.600828)"><g><path d="M 18.847656 -1.761719 L 18.847656 -19.878906 C 18.847656 -24.925781 14.53125 -29.363281 9.421875 -29.363281 C 4.378906 -29.363281 0 -24.988281 0 -19.878906 L 0 -1.761719 C 0 -0.425781 1.035156 0.183594 2.007812 0.183594 C 3.039062 0.183594 4.074219 -0.488281 4.074219 -1.761719 L 4.074219 -19.878906 C 4.074219 -22.917969 6.503906 -25.351562 9.421875 -25.351562 C 12.402344 -25.351562 14.894531 -22.917969 14.894531 -19.878906 L 14.894531 -1.761719 C 14.894531 -0.609375 15.929688 0.121094 16.902344 0.121094 C 17.933594 0.121094 18.847656 -0.488281 18.847656 -1.761719 Z M 18.847656 -1.761719 "/></g></g></g><g fill="#ffffff" fill-opacity="1"><g transform="translate(364.933387, 127.600828)"><g><path d="M 12.765625 -25.109375 L 12.765625 -29.121094 L 9.421875 -29.121094 C 3.953125 -29.121094 0 -24.925781 0 -19.878906 L 0 -8.816406 C 0 -3.648438 4.011719 0.546875 9.421875 0.546875 C 14.652344 0.546875 18.726562 -3.953125 18.726562 -9.058594 L 18.726562 -39.636719 C 18.726562 -41.035156 17.628906 -41.703125 16.65625 -41.703125 C 15.683594 -41.703125 14.652344 -41.035156 14.652344 -39.636719 L 14.652344 -9.058594 C 14.652344 -5.957031 12.402344 -3.464844 9.421875 -3.464844 C 6.382812 -3.464844 3.953125 -5.898438 3.953125 -8.816406 L 3.953125 -19.757812 C 3.953125 -22.738281 6.382812 -25.109375 9.421875 -25.109375 Z M 12.765625 -25.109375 "/></g></g></g><g fill="#ffffff" fill-opacity="1"><g transform="translate(387.852268, 127.600828)"><g><path d="M 16.476562 -24.804688 L 16.230469 -25.410156 C 14.652344 -28.085938 12.160156 -29.304688 8.9375 -29.484375 C 3.953125 -29.605469 -0.488281 -25.835938 -0.546875 -20.425781 C -0.609375 -15.015625 3.28125 -12.707031 8.328125 -12.644531 C 10.882812 -12.402344 13.679688 -11.246094 13.558594 -8.570312 C 13.558594 -5.714844 11.003906 -3.40625 8.328125 -3.464844 C 5.957031 -3.585938 4.195312 -4.925781 3.34375 -6.261719 C 1.335938 -8.269531 -0.851562 -5.714844 0.242188 -3.890625 C 1.703125 -1.398438 5.289062 0.242188 8.328125 0.363281 C 13.375 0.488281 17.507812 -3.40625 17.628906 -8.570312 C 17.691406 -14.226562 13.070312 -16.476562 8.449219 -16.597656 C 5.714844 -16.65625 3.40625 -17.933594 3.464844 -20.488281 C 3.527344 -23.34375 5.957031 -25.535156 8.875 -25.472656 C 10.578125 -25.289062 12.28125 -24.4375 13.253906 -22.917969 C 14.53125 -21.21875 16.839844 -22.917969 16.476562 -24.804688 Z M 16.476562 -24.804688 "/></g></g></g><g fill="#eb9018" fill-opacity="1"><g transform="translate(197.924873, 161.831309)"><g><path d="M 1.5 -19.765625 L 4.15625 -19.765625 L 4.15625 -1.3125 L 7.421875 -1.3125 L 7.421875 0 L 1.5 0 Z M 1.5 -19.765625 "/></g></g></g><g fill="#eb9018" fill-opacity="1"><g transform="translate(206.301399, 161.831309)"><g><path d="M 1.359375 -15.8125 L 7.28125 -15.8125 L 6.640625 -14.5 L 4.015625 -14.5 L 4.015625 -9.875 L 6.640625 -9.875 L 5.984375 -8.578125 L 4.015625 -8.578125 L 4.015625 -1.3125 L 7.28125 -1.3125 L 7.28125 0 L 1.359375 0 Z M 1.359375 -15.8125 "/></g></g></g><g fill="#eb9018" fill-opacity="1"><g transform="translate(214.541503, 161.831309)"><g><path d="M 2.84375 -13.84375 L 2.515625 -15.8125 L 5.15625 -15.8125 L 7.78125 0 L 5.15625 0 L 4.609375 -3.296875 L 2.40625 -3.296875 L 1.859375 0 L 0.546875 0 Z M 4.390625 -4.609375 L 3.515625 -9.875 L 2.625 -4.609375 Z M 4.390625 -4.609375 "/></g></g></g><g fill="#eb9018" fill-opacity="1"><g transform="translate(222.999883, 161.831309)"><g><path d="M 1.75 -13.84375 L 1.09375 -15.8125 L 4.390625 -15.8125 C 7.816406 -15.789062 9.53125 -13.160156 9.53125 -7.921875 C 9.53125 -2.671875 7.816406 -0.03125 4.390625 0 L 1.75 0 Z M 4.390625 -1.171875 C 5.210938 -1.210938 5.835938 -1.765625 6.265625 -2.828125 C 6.691406 -3.890625 6.90625 -5.585938 6.90625 -7.921875 C 6.90625 -10.222656 6.695312 -11.910156 6.28125 -12.984375 C 5.875 -14.066406 5.242188 -14.625 4.390625 -14.65625 Z M 4.390625 -1.171875 "/></g></g></g><g fill="#eb9018" fill-opacity="1"><g transform="translate(233.477324, 161.831309)"><g><path d="M 1.5 -15.8125 L 4.15625 -15.8125 L 4.15625 0 L 1.5 0 Z M 1.5 -15.8125 "/></g></g></g><g fill="#eb9018" fill-opacity="1"><g transform="translate(239.261796, 161.831309)"><g><path d="M 1.75 -14.0625 L 1.09375 -15.8125 L 3.71875 -15.8125 L 7.671875 -5.4375 L 7.671875 -15.8125 L 8.984375 -15.8125 L 8.984375 0 L 7.015625 0 L 3.0625 -10.53125 L 3.0625 0 L 1.75 0 Z M 1.75 -14.0625 "/></g></g></g><g fill="#eb9018" fill-opacity="1"><g transform="translate(249.875658, 161.831309)"><g><path d="M 6.09375 0 C 5.269531 0 4.53125 -0.128906 3.875 -0.390625 C 3.21875 -0.660156 2.660156 -1.101562 2.203125 -1.71875 C 1.753906 -2.332031 1.410156 -3.144531 1.171875 -4.15625 C 0.929688 -5.164062 0.8125 -6.421875 0.8125 -7.921875 C 0.8125 -9.390625 0.929688 -10.628906 1.171875 -11.640625 C 1.410156 -12.648438 1.753906 -13.460938 2.203125 -14.078125 C 2.660156 -14.703125 3.21875 -15.144531 3.875 -15.40625 C 4.53125 -15.675781 5.269531 -15.8125 6.09375 -15.8125 C 6.394531 -15.8125 6.6875 -15.796875 6.96875 -15.765625 C 7.25 -15.734375 7.519531 -15.675781 7.78125 -15.59375 L 7.78125 -12.90625 C 7.632812 -13.3125 7.414062 -13.675781 7.125 -14 C 6.832031 -14.332031 6.488281 -14.5 6.09375 -14.5 C 5.6875 -14.5 5.335938 -14.3125 5.046875 -13.9375 C 4.753906 -13.5625 4.507812 -13.0625 4.3125 -12.4375 C 4.113281 -11.820312 3.960938 -11.117188 3.859375 -10.328125 C 3.765625 -9.535156 3.71875 -8.734375 3.71875 -7.921875 C 3.71875 -7.097656 3.765625 -6.285156 3.859375 -5.484375 C 3.960938 -4.679688 4.109375 -3.96875 4.296875 -3.34375 C 4.484375 -2.726562 4.722656 -2.226562 5.015625 -1.84375 C 5.304688 -1.46875 5.644531 -1.28125 6.03125 -1.28125 C 6.289062 -1.28125 6.53125 -1.351562 6.75 -1.5 L 6.75 -7.921875 L 9.390625 -8.578125 L 9.390625 -1.09375 C 8.921875 -0.675781 8.40625 -0.390625 7.84375 -0.234375 C 7.289062 -0.078125 6.707031 0 6.09375 0 Z M 6.09375 0 "/></g></g></g><g fill="#eb9018" fill-opacity="1"><g transform="translate(260.489521, 161.831309)"><g/></g></g><g fill="#eb9018" fill-opacity="1"><g transform="translate(266.083002, 161.831309)"><g><path d="M 3.515625 -6.90625 L 0.546875 -15.8125 L 3.1875 -15.8125 C 3.25 -15.625 3.335938 -15.351562 3.453125 -15 C 3.566406 -14.644531 3.695312 -14.238281 3.84375 -13.78125 C 3.988281 -13.332031 4.144531 -12.851562 4.3125 -12.34375 C 4.488281 -11.84375 4.648438 -11.363281 4.796875 -10.90625 C 4.941406 -10.457031 5.078125 -10.050781 5.203125 -9.6875 C 5.335938 -9.320312 5.429688 -9.0625 5.484375 -8.90625 L 7.78125 -15.8125 L 9.109375 -15.8125 L 6.140625 -6.90625 L 6.140625 0 L 3.515625 0 Z M 3.515625 -6.90625 "/></g></g></g><g fill="#eb9018" fill-opacity="1"><g transform="translate(275.878338, 161.831309)"><g><path d="M 5.765625 0 C 4.992188 0 4.296875 -0.128906 3.671875 -0.390625 C 3.054688 -0.660156 2.539062 -1.101562 2.125 -1.71875 C 1.707031 -2.332031 1.382812 -3.144531 1.15625 -4.15625 C 0.925781 -5.164062 0.8125 -6.421875 0.8125 -7.921875 C 0.8125 -9.390625 0.925781 -10.628906 1.15625 -11.640625 C 1.382812 -12.648438 1.707031 -13.460938 2.125 -14.078125 C 2.539062 -14.703125 3.054688 -15.144531 3.671875 -15.40625 C 4.296875 -15.675781 4.992188 -15.8125 5.765625 -15.8125 C 6.523438 -15.8125 7.210938 -15.675781 7.828125 -15.40625 C 8.453125 -15.144531 8.972656 -14.703125 9.390625 -14.078125 C 9.804688 -13.460938 10.128906 -12.648438 10.359375 -11.640625 C 10.585938 -10.628906 10.703125 -9.390625 10.703125 -7.921875 C 10.703125 -6.421875 10.585938 -5.164062 10.359375 -4.15625 C 10.128906 -3.144531 9.804688 -2.332031 9.390625 -1.71875 C 8.972656 -1.101562 8.453125 -0.660156 7.828125 -0.390625 C 7.210938 -0.128906 6.523438 0 5.765625 0 Z M 5.765625 -1.3125 C 6.140625 -1.3125 6.46875 -1.492188 6.75 -1.859375 C 7.03125 -2.222656 7.265625 -2.695312 7.453125 -3.28125 C 7.648438 -3.875 7.796875 -4.550781 7.890625 -5.3125 C 7.984375 -6.082031 8.03125 -6.867188 8.03125 -7.671875 C 8.03125 -8.503906 7.976562 -9.328125 7.875 -10.140625 C 7.769531 -10.960938 7.625 -11.695312 7.4375 -12.34375 C 7.25 -13 7.015625 -13.519531 6.734375 -13.90625 C 6.453125 -14.300781 6.128906 -14.5 5.765625 -14.5 C 5.398438 -14.5 5.078125 -14.300781 4.796875 -13.90625 C 4.515625 -13.519531 4.273438 -13.003906 4.078125 -12.359375 C 3.890625 -11.722656 3.742188 -11.003906 3.640625 -10.203125 C 3.546875 -9.410156 3.5 -8.59375 3.5 -7.75 C 3.5 -6.9375 3.539062 -6.140625 3.625 -5.359375 C 3.71875 -4.585938 3.859375 -3.898438 4.046875 -3.296875 C 4.242188 -2.703125 4.484375 -2.222656 4.765625 -1.859375 C 5.046875 -1.492188 5.378906 -1.3125 5.765625 -1.3125 Z M 5.765625 -1.3125 "/></g></g></g><g fill="#eb9018" fill-opacity="1"><g transform="translate(287.529025, 161.831309)"><g><path d="M 5.046875 0 C 4.503906 0 3.988281 -0.078125 3.5 -0.234375 C 3.019531 -0.398438 2.601562 -0.644531 2.25 -0.96875 C 1.894531 -1.300781 1.613281 -1.71875 1.40625 -2.21875 C 1.195312 -2.71875 1.09375 -3.296875 1.09375 -3.953125 L 1.09375 -15.8125 L 3.734375 -15.8125 L 3.734375 -3.953125 C 3.734375 -3.773438 3.738281 -3.570312 3.75 -3.34375 C 3.757812 -3.113281 3.804688 -2.894531 3.890625 -2.6875 C 3.972656 -2.476562 4.101562 -2.304688 4.28125 -2.171875 C 4.46875 -2.035156 4.722656 -1.96875 5.046875 -1.96875 C 5.378906 -1.96875 5.628906 -2.035156 5.796875 -2.171875 C 5.972656 -2.304688 6.101562 -2.476562 6.1875 -2.6875 C 6.269531 -2.894531 6.316406 -3.113281 6.328125 -3.34375 C 6.347656 -3.570312 6.359375 -3.773438 6.359375 -3.953125 L 6.359375 -15.8125 L 9.015625 -15.8125 L 9.015625 -3.953125 C 9.015625 -3.296875 8.90625 -2.71875 8.6875 -2.21875 C 8.476562 -1.71875 8.195312 -1.300781 7.84375 -0.96875 C 7.488281 -0.644531 7.070312 -0.398438 6.59375 -0.234375 C 6.113281 -0.078125 5.597656 0 5.046875 0 Z M 5.046875 0 "/></g></g></g><g fill="#eb9018" fill-opacity="1"><g transform="translate(297.760906, 161.831309)"><g/></g></g><g fill="#eb9018" fill-opacity="1"><g transform="translate(303.354387, 161.831309)"><g><path d="M 3.46875 -14.5 L 0.8125 -14.5 L 0.8125 -15.8125 L 8.734375 -15.8125 L 8.734375 -14.5 L 6.09375 -14.5 L 6.09375 0 L 3.46875 0 Z M 3.46875 -14.5 "/></g></g></g><g fill="#eb9018" fill-opacity="1"><g transform="translate(313.040562, 161.831309)"><g><path d="M 5.765625 0 C 4.992188 0 4.296875 -0.128906 3.671875 -0.390625 C 3.054688 -0.660156 2.539062 -1.101562 2.125 -1.71875 C 1.707031 -2.332031 1.382812 -3.144531 1.15625 -4.15625 C 0.925781 -5.164062 0.8125 -6.421875 0.8125 -7.921875 C 0.8125 -9.390625 0.925781 -10.628906 1.15625 -11.640625 C 1.382812 -12.648438 1.707031 -13.460938 2.125 -14.078125 C 2.539062 -14.703125 3.054688 -15.144531 3.671875 -15.40625 C 4.296875 -15.675781 4.992188 -15.8125 5.765625 -15.8125 C 6.523438 -15.8125 7.210938 -15.675781 7.828125 -15.40625 C 8.453125 -15.144531 8.972656 -14.703125 9.390625 -14.078125 C 9.804688 -13.460938 10.128906 -12.648438 10.359375 -11.640625 C 10.585938 -10.628906 10.703125 -9.390625 10.703125 -7.921875 C 10.703125 -6.421875 10.585938 -5.164062 10.359375 -4.15625 C 10.128906 -3.144531 9.804688 -2.332031 9.390625 -1.71875 C 8.972656 -1.101562 8.453125 -0.660156 7.828125 -0.390625 C 7.210938 -0.128906 6.523438 0 5.765625 0 Z M 5.765625 -1.3125 C 6.140625 -1.3125 6.46875 -1.492188 6.75 -1.859375 C 7.03125 -2.222656 7.265625 -2.695312 7.453125 -3.28125 C 7.648438 -3.875 7.796875 -4.550781 7.890625 -5.3125 C 7.984375 -6.082031 8.03125 -6.867188 8.03125 -7.671875 C 8.03125 -8.503906 7.976562 -9.328125 7.875 -10.140625 C 7.769531 -10.960938 7.625 -11.695312 7.4375 -12.34375 C 7.25 -13 7.015625 -13.519531 6.734375 -13.90625 C 6.453125 -14.300781 6.128906 -14.5 5.765625 -14.5 C 5.398438 -14.5 5.078125 -14.300781 4.796875 -13.90625 C 4.515625 -13.519531 4.273438 -13.003906 4.078125 -12.359375 C 3.890625 -11.722656 3.742188 -11.003906 3.640625 -10.203125 C 3.546875 -9.410156 3.5 -8.59375 3.5 -7.75 C 3.5 -6.9375 3.539062 -6.140625 3.625 -5.359375 C 3.71875 -4.585938 3.859375 -3.898438 4.046875 -3.296875 C 4.242188 -2.703125 4.484375 -2.222656 4.765625 -1.859375 C 5.046875 -1.492188 5.378906 -1.3125 5.765625 -1.3125 Z M 5.765625 -1.3125 "/></g></g></g><g fill="#eb9018" fill-opacity="1"><g transform="translate(324.69125, 161.831309)"><g/></g></g><g fill="#eb9018" fill-opacity="1"><g transform="translate(330.284731, 161.831309)"><g><path d="M 3.828125 0 C 3.390625 0 2.992188 -0.0859375 2.640625 -0.265625 C 2.285156 -0.453125 1.984375 -0.660156 1.734375 -0.890625 C 1.484375 -1.117188 1.285156 -1.34375 1.140625 -1.5625 C 0.992188 -1.789062 0.894531 -1.953125 0.84375 -2.046875 L 1.90625 -2.921875 C 2.039062 -2.734375 2.175781 -2.578125 2.3125 -2.453125 C 2.445312 -2.347656 2.585938 -2.25 2.734375 -2.15625 C 2.878906 -2.0625 3.039062 -2.015625 3.21875 -2.015625 C 3.582031 -2.015625 3.867188 -2.179688 4.078125 -2.515625 C 4.285156 -2.859375 4.390625 -3.265625 4.390625 -3.734375 C 4.390625 -3.847656 4.390625 -3.953125 4.390625 -4.046875 C 4.390625 -4.148438 4.375 -4.257812 4.34375 -4.375 C 4.195312 -4.96875 3.929688 -5.550781 3.546875 -6.125 C 3.160156 -6.695312 2.765625 -7.285156 2.359375 -7.890625 C 1.953125 -8.503906 1.59375 -9.148438 1.28125 -9.828125 C 0.96875 -10.503906 0.8125 -11.238281 0.8125 -12.03125 C 0.800781 -12.601562 0.875 -13.117188 1.03125 -13.578125 C 1.195312 -14.046875 1.425781 -14.441406 1.71875 -14.765625 C 2.007812 -15.097656 2.351562 -15.351562 2.75 -15.53125 C 3.15625 -15.71875 3.585938 -15.8125 4.046875 -15.8125 C 4.472656 -15.8125 4.863281 -15.71875 5.21875 -15.53125 C 5.582031 -15.351562 5.882812 -15.148438 6.125 -14.921875 C 6.375 -14.691406 6.570312 -14.460938 6.71875 -14.234375 C 6.863281 -14.003906 6.960938 -13.84375 7.015625 -13.75 L 5.953125 -12.890625 C 5.953125 -12.890625 5.914062 -12.929688 5.84375 -13.015625 C 5.769531 -13.109375 5.664062 -13.210938 5.53125 -13.328125 C 5.40625 -13.453125 5.265625 -13.554688 5.109375 -13.640625 C 4.960938 -13.734375 4.796875 -13.78125 4.609375 -13.78125 C 4.242188 -13.78125 3.957031 -13.617188 3.75 -13.296875 C 3.539062 -12.984375 3.4375 -12.59375 3.4375 -12.125 C 3.4375 -11.882812 3.460938 -11.65625 3.515625 -11.4375 C 3.660156 -10.832031 3.925781 -10.242188 4.3125 -9.671875 C 4.695312 -9.097656 5.09375 -8.503906 5.5 -7.890625 C 5.90625 -7.285156 6.265625 -6.644531 6.578125 -5.96875 C 6.890625 -5.300781 7.046875 -4.566406 7.046875 -3.765625 C 7.054688 -3.203125 6.976562 -2.6875 6.8125 -2.21875 C 6.65625 -1.757812 6.425781 -1.363281 6.125 -1.03125 C 5.820312 -0.707031 5.472656 -0.453125 5.078125 -0.265625 C 4.679688 -0.0859375 4.265625 0 3.828125 0 Z M 3.828125 0 "/></g></g></g><g fill="#eb9018" fill-opacity="1"><g transform="translate(338.279274, 161.831309)"><g><path d="M 5.046875 0 C 4.503906 0 3.988281 -0.078125 3.5 -0.234375 C 3.019531 -0.398438 2.601562 -0.644531 2.25 -0.96875 C 1.894531 -1.300781 1.613281 -1.71875 1.40625 -2.21875 C 1.195312 -2.71875 1.09375 -3.296875 1.09375 -3.953125 L 1.09375 -15.8125 L 3.734375 -15.8125 L 3.734375 -3.953125 C 3.734375 -3.773438 3.738281 -3.570312 3.75 -3.34375 C 3.757812 -3.113281 3.804688 -2.894531 3.890625 -2.6875 C 3.972656 -2.476562 4.101562 -2.304688 4.28125 -2.171875 C 4.46875 -2.035156 4.722656 -1.96875 5.046875 -1.96875 C 5.378906 -1.96875 5.628906 -2.035156 5.796875 -2.171875 C 5.972656 -2.304688 6.101562 -2.476562 6.1875 -2.6875 C 6.269531 -2.894531 6.316406 -3.113281 6.328125 -3.34375 C 6.347656 -3.570312 6.359375 -3.773438 6.359375 -3.953125 L 6.359375 -15.8125 L 9.015625 -15.8125 L 9.015625 -3.953125 C 9.015625 -3.296875 8.90625 -2.71875 8.6875 -2.21875 C 8.476562 -1.71875 8.195312 -1.300781 7.84375 -0.96875 C 7.488281 -0.644531 7.070312 -0.398438 6.59375 -0.234375 C 6.113281 -0.078125 5.597656 0 5.046875 0 Z M 5.046875 0 "/></g></g></g><g fill="#eb9018" fill-opacity="1"><g transform="translate(348.511155, 161.831309)"><g><path d="M 6.09375 0 C 5.269531 0 4.53125 -0.128906 3.875 -0.390625 C 3.21875 -0.660156 2.660156 -1.101562 2.203125 -1.71875 C 1.753906 -2.332031 1.410156 -3.144531 1.171875 -4.15625 C 0.929688 -5.164062 0.8125 -6.421875 0.8125 -7.921875 C 0.8125 -9.390625 0.929688 -10.628906 1.171875 -11.640625 C 1.410156 -12.648438 1.753906 -13.460938 2.203125 -14.078125 C 2.660156 -14.703125 3.21875 -15.144531 3.875 -15.40625 C 4.53125 -15.675781 5.269531 -15.8125 6.09375 -15.8125 C 6.320312 -15.8125 6.546875 -15.789062 6.765625 -15.75 C 6.984375 -15.71875 7.191406 -15.671875 7.390625 -15.609375 L 7.390625 -13.640625 C 7.015625 -14.210938 6.582031 -14.5 6.09375 -14.5 C 5.582031 -14.5 5.113281 -14.179688 4.6875 -13.546875 C 4.550781 -13.304688 4.421875 -12.984375 4.296875 -12.578125 C 4.179688 -12.179688 4.082031 -11.734375 4 -11.234375 C 3.914062 -10.734375 3.851562 -10.195312 3.8125 -9.625 C 3.78125 -9.050781 3.765625 -8.472656 3.765625 -7.890625 C 3.765625 -7.304688 3.78125 -6.734375 3.8125 -6.171875 C 3.851562 -5.609375 3.914062 -5.078125 4 -4.578125 C 4.082031 -4.078125 4.179688 -3.625 4.296875 -3.21875 C 4.421875 -2.820312 4.550781 -2.503906 4.6875 -2.265625 C 5.09375 -1.628906 5.5625 -1.3125 6.09375 -1.3125 C 6.582031 -1.3125 7.015625 -1.59375 7.390625 -2.15625 L 7.390625 -0.21875 C 6.960938 -0.0703125 6.53125 0 6.09375 0 Z M 6.09375 0 "/></g></g></g><g fill="#eb9018" fill-opacity="1"><g transform="translate(356.860405, 161.831309)"><g><path d="M 6.09375 0 C 5.269531 0 4.53125 -0.128906 3.875 -0.390625 C 3.21875 -0.660156 2.660156 -1.101562 2.203125 -1.71875 C 1.753906 -2.332031 1.410156 -3.144531 1.171875 -4.15625 C 0.929688 -5.164062 0.8125 -6.421875 0.8125 -7.921875 C 0.8125 -9.390625 0.929688 -10.628906 1.171875 -11.640625 C 1.410156 -12.648438 1.753906 -13.460938 2.203125 -14.078125 C 2.660156 -14.703125 3.21875 -15.144531 3.875 -15.40625 C 4.53125 -15.675781 5.269531 -15.8125 6.09375 -15.8125 C 6.320312 -15.8125 6.546875 -15.789062 6.765625 -15.75 C 6.984375 -15.71875 7.191406 -15.671875 7.390625 -15.609375 L 7.390625 -13.640625 C 7.015625 -14.210938 6.582031 -14.5 6.09375 -14.5 C 5.582031 -14.5 5.113281 -14.179688 4.6875 -13.546875 C 4.550781 -13.304688 4.421875 -12.984375 4.296875 -12.578125 C 4.179688 -12.179688 4.082031 -11.734375 4 -11.234375 C 3.914062 -10.734375 3.851562 -10.195312 3.8125 -9.625 C 3.78125 -9.050781 3.765625 -8.472656 3.765625 -7.890625 C 3.765625 -7.304688 3.78125 -6.734375 3.8125 -6.171875 C 3.851562 -5.609375 3.914062 -5.078125 4 -4.578125 C 4.082031 -4.078125 4.179688 -3.625 4.296875 -3.21875 C 4.421875 -2.820312 4.550781 -2.503906 4.6875 -2.265625 C 5.09375 -1.628906 5.5625 -1.3125 6.09375 -1.3125 C 6.582031 -1.3125 7.015625 -1.59375 7.390625 -2.15625 L 7.390625 -0.21875 C 6.960938 -0.0703125 6.53125 0 6.09375 0 Z M 6.09375 0 "/></g></g></g><g fill="#eb9018" fill-opacity="1"><g transform="translate(365.209645, 161.831309)"><g><path d="M 1.359375 -15.8125 L 7.28125 -15.8125 L 6.640625 -14.5 L 4.015625 -14.5 L 4.015625 -9.875 L 6.640625 -9.875 L 5.984375 -8.578125 L 4.015625 -8.578125 L 4.015625 -1.3125 L 7.28125 -1.3125 L 7.28125 0 L 1.359375 0 Z M 1.359375 -15.8125 "/></g></g></g><g fill="#eb9018" fill-opacity="1"><g transform="translate(373.449748, 161.831309)"><g><path d="M 3.828125 0 C 3.390625 0 2.992188 -0.0859375 2.640625 -0.265625 C 2.285156 -0.453125 1.984375 -0.660156 1.734375 -0.890625 C 1.484375 -1.117188 1.285156 -1.34375 1.140625 -1.5625 C 0.992188 -1.789062 0.894531 -1.953125 0.84375 -2.046875 L 1.90625 -2.921875 C 2.039062 -2.734375 2.175781 -2.578125 2.3125 -2.453125 C 2.445312 -2.347656 2.585938 -2.25 2.734375 -2.15625 C 2.878906 -2.0625 3.039062 -2.015625 3.21875 -2.015625 C 3.582031 -2.015625 3.867188 -2.179688 4.078125 -2.515625 C 4.285156 -2.859375 4.390625 -3.265625 4.390625 -3.734375 C 4.390625 -3.847656 4.390625 -3.953125 4.390625 -4.046875 C 4.390625 -4.148438 4.375 -4.257812 4.34375 -4.375 C 4.195312 -4.96875 3.929688 -5.550781 3.546875 -6.125 C 3.160156 -6.695312 2.765625 -7.285156 2.359375 -7.890625 C 1.953125 -8.503906 1.59375 -9.148438 1.28125 -9.828125 C 0.96875 -10.503906 0.8125 -11.238281 0.8125 -12.03125 C 0.800781 -12.601562 0.875 -13.117188 1.03125 -13.578125 C 1.195312 -14.046875 1.425781 -14.441406 1.71875 -14.765625 C 2.007812 -15.097656 2.351562 -15.351562 2.75 -15.53125 C 3.15625 -15.71875 3.585938 -15.8125 4.046875 -15.8125 C 4.472656 -15.8125 4.863281 -15.71875 5.21875 -15.53125 C 5.582031 -15.351562 5.882812 -15.148438 6.125 -14.921875 C 6.375 -14.691406 6.570312 -14.460938 6.71875 -14.234375 C 6.863281 -14.003906 6.960938 -13.84375 7.015625 -13.75 L 5.953125 -12.890625 C 5.953125 -12.890625 5.914062 -12.929688 5.84375 -13.015625 C 5.769531 -13.109375 5.664062 -13.210938 5.53125 -13.328125 C 5.40625 -13.453125 5.265625 -13.554688 5.109375 -13.640625 C 4.960938 -13.734375 4.796875 -13.78125 4.609375 -13.78125 C 4.242188 -13.78125 3.957031 -13.617188 3.75 -13.296875 C 3.539062 -12.984375 3.4375 -12.59375 3.4375 -12.125 C 3.4375 -11.882812 3.460938 -11.65625 3.515625 -11.4375 C 3.660156 -10.832031 3.925781 -10.242188 4.3125 -9.671875 C 4.695312 -9.097656 5.09375 -8.503906 5.5 -7.890625 C 5.90625 -7.285156 6.265625 -6.644531 6.578125 -5.96875 C 6.890625 -5.300781 7.046875 -4.566406 7.046875 -3.765625 C 7.054688 -3.203125 6.976562 -2.6875 6.8125 -2.21875 C 6.65625 -1.757812 6.425781 -1.363281 6.125 -1.03125 C 5.820312 -0.707031 5.472656 -0.453125 5.078125 -0.265625 C 4.679688 -0.0859375 4.265625 0 3.828125 0 Z M 3.828125 0 "/></g></g></g><g fill="#eb9018" fill-opacity="1"><g transform="translate(381.444291, 161.831309)"><g><path d="M 3.828125 0 C 3.390625 0 2.992188 -0.0859375 2.640625 -0.265625 C 2.285156 -0.453125 1.984375 -0.660156 1.734375 -0.890625 C 1.484375 -1.117188 1.285156 -1.34375 1.140625 -1.5625 C 0.992188 -1.789062 0.894531 -1.953125 0.84375 -2.046875 L 1.90625 -2.921875 C 2.039062 -2.734375 2.175781 -2.578125 2.3125 -2.453125 C 2.445312 -2.347656 2.585938 -2.25 2.734375 -2.15625 C 2.878906 -2.0625 3.039062 -2.015625 3.21875 -2.015625 C 3.582031 -2.015625 3.867188 -2.179688 4.078125 -2.515625 C 4.285156 -2.859375 4.390625 -3.265625 4.390625 -3.734375 C 4.390625 -3.847656 4.390625 -3.953125 4.390625 -4.046875 C 4.390625 -4.148438 4.375 -4.257812 4.34375 -4.375 C 4.195312 -4.96875 3.929688 -5.550781 3.546875 -6.125 C 3.160156 -6.695312 2.765625 -7.285156 2.359375 -7.890625 C 1.953125 -8.503906 1.59375 -9.148438 1.28125 -9.828125 C 0.96875 -10.503906 0.8125 -11.238281 0.8125 -12.03125 C 0.800781 -12.601562 0.875 -13.117188 1.03125 -13.578125 C 1.195312 -14.046875 1.425781 -14.441406 1.71875 -14.765625 C 2.007812 -15.097656 2.351562 -15.351562 2.75 -15.53125 C 3.15625 -15.71875 3.585938 -15.8125 4.046875 -15.8125 C 4.472656 -15.8125 4.863281 -15.71875 5.21875 -15.53125 C 5.582031 -15.351562 5.882812 -15.148438 6.125 -14.921875 C 6.375 -14.691406 6.570312 -14.460938 6.71875 -14.234375 C 6.863281 -14.003906 6.960938 -13.84375 7.015625 -13.75 L 5.953125 -12.890625 C 5.953125 -12.890625 5.914062 -12.929688 5.84375 -13.015625 C 5.769531 -13.109375 5.664062 -13.210938 5.53125 -13.328125 C 5.40625 -13.453125 5.265625 -13.554688 5.109375 -13.640625 C 4.960938 -13.734375 4.796875 -13.78125 4.609375 -13.78125 C 4.242188 -13.78125 3.957031 -13.617188 3.75 -13.296875 C 3.539062 -12.984375 3.4375 -12.59375 3.4375 -12.125 C 3.4375 -11.882812 3.460938 -11.65625 3.515625 -11.4375 C 3.660156 -10.832031 3.925781 -10.242188 4.3125 -9.671875 C 4.695312 -9.097656 5.09375 -8.503906 5.5 -7.890625 C 5.90625 -7.285156 6.265625 -6.644531 6.578125 -5.96875 C 6.890625 -5.300781 7.046875 -4.566406 7.046875 -3.765625 C 7.054688 -3.203125 6.976562 -2.6875 6.8125 -2.21875 C 6.65625 -1.757812 6.425781 -1.363281 6.125 -1.03125 C 5.820312 -0.707031 5.472656 -0.453125 5.078125 -0.265625 C 4.679688 -0.0859375 4.265625 0 3.828125 0 Z M 3.828125 0 "/></g></g></g></svg>