<svg xmlns="http://www.w3.org/2000/svg" xmlns:xlink="http://www.w3.org/1999/xlink" width="500" zoomAndPan="magnify" viewBox="0 0 375 374.999991" height="500" preserveAspectRatio="xMidYMid meet" version="1.0"><defs><g/><clipPath id="1a6e4b2f98"><path d="M 70.449219 117 L 130.449219 117 L 130.449219 159.257812 L 70.449219 159.257812 Z M 70.449219 117 " clip-rule="nonzero"/></clipPath><clipPath id="77b59d15cb"><path d="M 112 100.757812 L 128 100.757812 L 128 116 L 112 116 Z M 112 100.757812 " clip-rule="nonzero"/></clipPath></defs><g clip-path="url(#1a6e4b2f98)"><path fill="#ffffff" d="M 121.515625 141.617188 C 121.773438 140.386719 121.929688 139.117188 121.976562 137.820312 C 122.078125 137.738281 122.179688 137.65625 122.28125 137.578125 C 131.5 130.144531 134.164062 121.511719 123.6875 117.582031 C 127.207031 121.582031 125.914062 126.25 121.542969 130.730469 C 121.417969 130.855469 121.296875 130.980469 121.167969 131.101562 C 113.449219 138.703125 96.964844 145.679688 80.257812 147.808594 C 80.144531 147.824219 80.035156 147.835938 79.921875 147.851562 C 76.75 148.242188 73.570312 148.457031 70.449219 148.46875 C 74.101562 149.558594 77.847656 150.167969 81.59375 150.371094 C 81.691406 150.367188 81.792969 150.363281 81.890625 150.359375 C 81.925781 150.359375 81.964844 150.359375 82 150.355469 C 84.570312 153.804688 88.117188 156.480469 92.230469 157.96875 C 90.457031 155.921875 88.964844 153.171875 87.871094 149.9375 C 88.671875 149.859375 89.476562 149.769531 90.273438 149.675781 C 92.003906 154.648438 94.726562 158.191406 97.886719 159.207031 C 98.105469 159.226562 98.324219 159.242188 98.542969 159.25 L 98.542969 148.382812 C 99.351562 148.226562 100.160156 148.066406 100.972656 147.898438 L 100.972656 159.25 C 101.1875 159.238281 101.40625 159.226562 101.625 159.207031 C 105.527344 157.953125 108.769531 152.84375 110.285156 145.945312 C 108.417969 146.425781 106.449219 146.828125 104.378906 147.144531 C 104.265625 147.164062 104.152344 147.179688 104.039062 147.195312 C 107.359375 146.097656 110.503906 144.765625 113.386719 143.28125 L 121.097656 143.28125 C 121.257812 142.738281 121.398438 142.179688 121.515625 141.621094 Z M 121.515625 141.617188 " fill-opacity="1" fill-rule="evenodd"/></g><path fill="#ffffff" d="M 101.058594 118.746094 L 98.589844 122.1875 C 102.453125 122.25 105.300781 122.902344 101.023438 127.667969 C 108.65625 120.933594 106.976562 118.792969 101.058594 118.746094 Z M 101.058594 118.746094 " fill-opacity="1" fill-rule="evenodd"/><path fill="#ffffff" d="M 97.695312 107.207031 C 97.695312 108.832031 99.007812 110.144531 100.628906 110.144531 C 102.246094 110.144531 103.5625 108.832031 103.5625 107.207031 C 103.5625 105.585938 102.246094 104.269531 100.628906 104.269531 C 99.007812 104.269531 97.695312 105.585938 97.695312 107.207031 Z M 97.695312 107.207031 " fill-opacity="1" fill-rule="evenodd"/><path fill="#ffffff" d="M 95.585938 113.972656 C 93.613281 122.054688 89.710938 129.117188 84.492188 135.480469 C 91.8125 130.382812 97.824219 123.726562 102.089844 114.996094 C 106.726562 115.644531 111.527344 115.59375 115.6875 111.257812 C 105.957031 117.949219 91.574219 103.996094 86.925781 116.492188 C 89.203125 113.851562 92.21875 113.59375 95.582031 113.976562 Z M 95.585938 113.972656 " fill-opacity="1" fill-rule="evenodd"/><g clip-path="url(#77b59d15cb)"><path fill="#ffffff" d="M 120.21875 100.761719 L 121.550781 105.566406 L 126.128906 103.609375 L 123.207031 107.648438 L 127.589844 110.015625 L 122.617188 110.246094 L 123.5 115.152344 L 120.21875 111.402344 L 116.941406 115.152344 L 117.824219 110.246094 L 112.851562 110.015625 L 117.234375 107.648438 L 114.3125 103.609375 L 118.890625 105.566406 Z M 120.21875 100.761719 " fill-opacity="1" fill-rule="evenodd"/></g><path fill="#eb9018" d="M 88.542969 145.277344 L 88.542969 138.28125 L 82.28125 138.28125 L 82.28125 146.453125 C 82.554688 146.410156 82.832031 146.367188 83.109375 146.324219 C 84.917969 146.03125 86.734375 145.679688 88.542969 145.277344 Z M 110.964844 125.011719 L 110.964844 137.074219 C 113.144531 135.886719 115.285156 134.554688 117.230469 133.085938 L 117.230469 125.011719 Z M 101.402344 128.019531 L 101.402344 141.429688 C 102.601562 140.972656 103.78125 140.492188 104.949219 139.988281 C 105.839844 139.605469 106.75 139.191406 107.667969 138.753906 L 107.667969 128.023438 L 101.402344 128.023438 Z M 91.84375 133.605469 L 91.84375 144.480469 C 93.953125 143.929688 96.046875 143.304688 98.105469 142.609375 L 98.105469 133.605469 Z M 91.84375 133.605469 " fill-opacity="1" fill-rule="evenodd"/><path fill="#ffffff" d="M 112.765625 145.785156 C 111.714844 150.824219 109.769531 155.089844 107.28125 157.96875 L 107.375 157.9375 C 113.121094 155.824219 117.75 151.398438 120.136719 145.785156 Z M 112.765625 145.785156 " fill-opacity="1" fill-rule="evenodd"/><g fill="#ffffff" fill-opacity="1"><g transform="translate(136.545679, 133.09178)"><g><path d="M 2.574219 -16.863281 L 1.914062 -21.507812 L 2.265625 -21.507812 L 3.511719 -17.445312 C 4.839844 -14.207031 5.777344 -11.632812 7.261719 -8.15625 C 7.609375 -7.375 9.132812 -6.910156 9.640625 -8.351562 L 9.640625 -8.3125 L 13.269531 -17.40625 L 14.441406 -21.234375 L 14.792969 -21.234375 L 14.167969 -16.785156 L 14.167969 -1.132812 C 14.167969 -0.195312 14.792969 0.234375 15.496094 0.234375 C 16.121094 0.234375 16.824219 -0.195312 16.824219 -1.132812 L 16.824219 -26.074219 C 16.824219 -27.046875 16.199219 -27.4375 15.613281 -27.4375 C 15.105469 -27.4375 14.402344 -27.085938 14.167969 -26.65625 L 8.390625 -11.515625 C 6.363281 -16.550781 4.566406 -21.46875 2.496094 -26.542969 C 2.382812 -27.046875 1.796875 -27.476562 1.210938 -27.476562 C 0.625 -27.476562 0 -27.085938 0 -26.074219 L 0 -1.132812 C 0 -0.273438 0.664062 0.15625 1.289062 0.15625 C 1.992188 0.15625 2.652344 -0.351562 2.652344 -1.132812 C 2.652344 -6.558594 2.574219 -11.398438 2.574219 -16.863281 Z M 2.574219 -16.863281 "/></g></g></g><g fill="#ffffff" fill-opacity="1"><g transform="translate(156.099761, 133.09178)"><g><path d="M 5.425781 -2.34375 C 3.589844 -2.34375 2.109375 -3.824219 2.109375 -5.699219 C 2.109375 -7.648438 3.628906 -9.09375 5.425781 -9.09375 L 7.882812 -9.09375 L 7.882812 -11.632812 L 5.425781 -11.632812 C 2.265625 -11.632812 -0.507812 -9.132812 -0.507812 -5.699219 C -0.507812 -2.382812 2.148438 0.273438 5.425781 0.273438 C 8.9375 0.273438 11.4375 -2.535156 11.4375 -5.816406 L 11.4375 -12.761719 C 11.4375 -16.121094 8.585938 -18.695312 5.425781 -18.695312 C 4.019531 -18.695312 2.769531 -18.226562 1.679688 -17.328125 C 0.507812 -16.433594 1.835938 -14.324219 3.160156 -15.261719 C 3.863281 -15.769531 4.605469 -16.160156 5.425781 -16.160156 C 7.335938 -16.160156 8.898438 -14.597656 8.898438 -12.761719 L 8.898438 -5.816406 C 8.898438 -3.902344 7.375 -2.34375 5.425781 -2.34375 Z M 5.425781 -2.34375 "/></g></g></g><g fill="#ffffff" fill-opacity="1"><g transform="translate(170.228663, 133.09178)"><g><path d="M 10.578125 -15.925781 L 10.421875 -16.316406 C 9.40625 -18.03125 7.804688 -18.8125 5.738281 -18.929688 C 2.535156 -19.007812 -0.3125 -16.589844 -0.351562 -13.113281 C -0.390625 -9.640625 2.109375 -8.15625 5.347656 -8.117188 C 6.988281 -7.960938 8.78125 -7.222656 8.703125 -5.503906 C 8.703125 -3.667969 7.066406 -2.1875 5.347656 -2.226562 C 3.824219 -2.304688 2.691406 -3.160156 2.148438 -4.019531 C 0.859375 -5.308594 -0.546875 -3.667969 0.15625 -2.496094 C 1.09375 -0.898438 3.394531 0.15625 5.347656 0.234375 C 8.585938 0.3125 11.242188 -2.1875 11.320312 -5.503906 C 11.359375 -9.132812 8.390625 -10.578125 5.425781 -10.65625 C 3.667969 -10.695312 2.1875 -11.515625 2.226562 -13.152344 C 2.265625 -14.988281 3.824219 -16.394531 5.699219 -16.355469 C 6.792969 -16.238281 7.882812 -15.691406 8.507812 -14.714844 C 9.328125 -13.621094 10.8125 -14.714844 10.578125 -15.925781 Z M 10.578125 -15.925781 "/></g></g></g><g fill="#ffffff" fill-opacity="1"><g transform="translate(183.61599, 133.09178)"><g><path d="M 5.660156 -18.695312 L 2.574219 -18.695312 L 2.574219 -25.839844 C 2.574219 -26.695312 1.914062 -27.085938 1.289062 -27.085938 C 0.625 -27.085938 0 -26.695312 0 -25.839844 L 0 -6.011719 C 0 -2.457031 2.691406 0.117188 6.285156 0.117188 C 7.105469 0.117188 7.492188 -0.46875 7.492188 -1.132812 C 7.492188 -1.757812 7.105469 -2.421875 6.285156 -2.421875 C 4.253906 -2.421875 2.574219 -3.980469 2.574219 -6.011719 L 2.574219 -16.121094 L 5.660156 -16.121094 C 6.480469 -16.121094 6.871094 -16.785156 6.871094 -17.40625 C 6.871094 -18.03125 6.480469 -18.695312 5.660156 -18.695312 Z M 5.660156 -18.695312 "/></g></g></g><g fill="#ffffff" fill-opacity="1"><g transform="translate(192.163588, 133.09178)"><g><path d="M 6.011719 -16.082031 C 7.882812 -16.082031 9.40625 -14.558594 9.40625 -12.683594 C 9.40625 -10.734375 7.882812 -9.289062 6.011719 -9.289062 L 3.589844 -9.289062 L 3.589844 -6.753906 L 6.011719 -6.753906 C 9.25 -6.753906 11.945312 -9.25 11.945312 -12.683594 C 11.945312 -16.082031 9.40625 -18.65625 6.011719 -18.65625 C 2.613281 -18.65625 0 -15.886719 0 -12.566406 L 0 -5.660156 C 0 -2.265625 2.847656 0.3125 6.011719 0.3125 C 7.570312 0.3125 8.976562 -0.273438 9.953125 -1.132812 L 9.914062 -1.132812 C 10.929688 -1.992188 10.1875 -4.253906 8.3125 -3.082031 C 7.570312 -2.574219 6.832031 -2.304688 6.011719 -2.304688 C 4.136719 -2.304688 2.613281 -3.824219 2.613281 -5.660156 L 2.613281 -12.566406 C 2.613281 -14.480469 4.097656 -16.082031 6.011719 -16.082031 Z M 6.011719 -16.082031 "/></g></g></g><g fill="#ffffff" fill-opacity="1"><g transform="translate(206.058308, 133.09178)"><g><path d="M 2.613281 -1.015625 L 2.613281 -12.839844 C 2.613281 -14.792969 4.136719 -16.394531 6.050781 -16.394531 C 6.207031 -16.394531 6.480469 -16.355469 6.675781 -16.316406 C 7.765625 -16.160156 8.390625 -16.941406 8.390625 -17.640625 C 8.390625 -18.1875 8 -18.734375 7.296875 -18.890625 C 6.871094 -18.96875 6.597656 -18.96875 6.050781 -18.96875 C 2.652344 -18.96875 0 -16.042969 0 -12.839844 L 0 -1.015625 C 0 -0.195312 0.703125 0.195312 1.328125 0.195312 C 1.953125 0.195312 2.613281 -0.195312 2.613281 -1.015625 Z M 2.613281 -1.015625 "/></g></g></g><g fill="#ffffff" fill-opacity="1"><g transform="translate(215.581652, 133.09178)"><g><path d="M 2.574219 -16.863281 L 1.914062 -21.507812 L 2.265625 -21.507812 L 3.511719 -17.445312 C 4.839844 -14.207031 5.777344 -11.632812 7.261719 -8.15625 C 7.609375 -7.375 9.132812 -6.910156 9.640625 -8.351562 L 9.640625 -8.3125 L 13.269531 -17.40625 L 14.441406 -21.234375 L 14.792969 -21.234375 L 14.167969 -16.785156 L 14.167969 -1.132812 C 14.167969 -0.195312 14.792969 0.234375 15.496094 0.234375 C 16.121094 0.234375 16.824219 -0.195312 16.824219 -1.132812 L 16.824219 -26.074219 C 16.824219 -27.046875 16.199219 -27.4375 15.613281 -27.4375 C 15.105469 -27.4375 14.402344 -27.085938 14.167969 -26.65625 L 8.390625 -11.515625 C 6.363281 -16.550781 4.566406 -21.46875 2.496094 -26.542969 C 2.382812 -27.046875 1.796875 -27.476562 1.210938 -27.476562 C 0.625 -27.476562 0 -27.085938 0 -26.074219 L 0 -1.132812 C 0 -0.273438 0.664062 0.15625 1.289062 0.15625 C 1.992188 0.15625 2.652344 -0.351562 2.652344 -1.132812 C 2.652344 -6.558594 2.574219 -11.398438 2.574219 -16.863281 Z M 2.574219 -16.863281 "/></g></g></g><g fill="#ffffff" fill-opacity="1"><g transform="translate(235.135734, 133.09178)"><g><path d="M 1.640625 -23.378906 C 0.507812 -23.378906 -0.195312 -22.519531 -0.195312 -21.585938 C -0.195312 -19.984375 1.132812 -19.75 1.640625 -19.75 C 2.382812 -19.75 3.433594 -20.335938 3.433594 -21.585938 C 3.433594 -22.519531 2.847656 -23.378906 1.640625 -23.378906 Z M 2.847656 -17.171875 L 2.847656 -1.25 C 2.847656 0.546875 0.273438 0.703125 0.273438 -1.25 L 0.273438 -17.171875 C 0.273438 -18.890625 2.847656 -19.046875 2.847656 -17.171875 Z M 2.847656 -17.171875 "/></g></g></g><g fill="#ffffff" fill-opacity="1"><g transform="translate(241.146376, 133.09178)"><g><path d="M 12.101562 -1.132812 L 12.101562 -12.761719 C 12.101562 -16.003906 9.328125 -18.851562 6.050781 -18.851562 C 2.808594 -18.851562 0 -16.042969 0 -12.761719 L 0 -1.132812 C 0 -0.273438 0.664062 0.117188 1.289062 0.117188 C 1.953125 0.117188 2.613281 -0.3125 2.613281 -1.132812 L 2.613281 -12.761719 C 2.613281 -14.714844 4.175781 -16.277344 6.050781 -16.277344 C 7.960938 -16.277344 9.5625 -14.714844 9.5625 -12.761719 L 9.5625 -1.132812 C 9.5625 -0.390625 10.226562 0.078125 10.851562 0.078125 C 11.515625 0.078125 12.101562 -0.3125 12.101562 -1.132812 Z M 12.101562 -1.132812 "/></g></g></g><g fill="#ffffff" fill-opacity="1"><g transform="translate(255.977815, 133.09178)"><g><path d="M 8.195312 -16.121094 L 8.195312 -18.695312 L 6.050781 -18.695312 C 2.535156 -18.695312 0 -16.003906 0 -12.761719 L 0 -5.660156 C 0 -2.34375 2.574219 0.351562 6.050781 0.351562 C 9.40625 0.351562 12.023438 -2.535156 12.023438 -5.816406 L 12.023438 -25.449219 C 12.023438 -26.347656 11.320312 -26.773438 10.695312 -26.773438 C 10.070312 -26.773438 9.40625 -26.347656 9.40625 -25.449219 L 9.40625 -5.816406 C 9.40625 -3.824219 7.960938 -2.226562 6.050781 -2.226562 C 4.097656 -2.226562 2.535156 -3.785156 2.535156 -5.660156 L 2.535156 -12.683594 C 2.535156 -14.597656 4.097656 -16.121094 6.050781 -16.121094 Z M 8.195312 -16.121094 "/></g></g></g><g fill="#ffffff" fill-opacity="1"><g transform="translate(270.692168, 133.09178)"><g><path d="M 10.578125 -15.925781 L 10.421875 -16.316406 C 9.40625 -18.03125 7.804688 -18.8125 5.738281 -18.929688 C 2.535156 -19.007812 -0.3125 -16.589844 -0.351562 -13.113281 C -0.390625 -9.640625 2.109375 -8.15625 5.347656 -8.117188 C 6.988281 -7.960938 8.78125 -7.222656 8.703125 -5.503906 C 8.703125 -3.667969 7.066406 -2.1875 5.347656 -2.226562 C 3.824219 -2.304688 2.691406 -3.160156 2.148438 -4.019531 C 0.859375 -5.308594 -0.546875 -3.667969 0.15625 -2.496094 C 1.09375 -0.898438 3.394531 0.15625 5.347656 0.234375 C 8.585938 0.3125 11.242188 -2.1875 11.320312 -5.503906 C 11.359375 -9.132812 8.390625 -10.578125 5.425781 -10.65625 C 3.667969 -10.695312 2.1875 -11.515625 2.226562 -13.152344 C 2.265625 -14.988281 3.824219 -16.394531 5.699219 -16.355469 C 6.792969 -16.238281 7.882812 -15.691406 8.507812 -14.714844 C 9.328125 -13.621094 10.8125 -14.714844 10.578125 -15.925781 Z M 10.578125 -15.925781 "/></g></g></g><g fill="#eb9018" fill-opacity="1"><g transform="translate(148.755202, 155.06839)"><g><path d="M 0.96875 -12.6875 L 2.671875 -12.6875 L 2.671875 -0.84375 L 4.765625 -0.84375 L 4.765625 0 L 0.96875 0 Z M 0.96875 -12.6875 "/></g></g></g><g fill="#eb9018" fill-opacity="1"><g transform="translate(154.133089, 155.06839)"><g><path d="M 0.875 -10.15625 L 4.6875 -10.15625 L 4.265625 -9.3125 L 2.578125 -9.3125 L 2.578125 -6.34375 L 4.265625 -6.34375 L 3.84375 -5.5 L 2.578125 -5.5 L 2.578125 -0.84375 L 4.6875 -0.84375 L 4.6875 0 L 0.875 0 Z M 0.875 -10.15625 "/></g></g></g><g fill="#eb9018" fill-opacity="1"><g transform="translate(159.423391, 155.06839)"><g><path d="M 1.828125 -8.890625 L 1.609375 -10.15625 L 3.3125 -10.15625 L 5 0 L 3.3125 0 L 2.96875 -2.125 L 1.546875 -2.125 L 1.1875 0 L 0.34375 0 Z M 2.828125 -2.96875 L 2.265625 -6.34375 L 1.6875 -2.96875 Z M 2.828125 -2.96875 "/></g></g></g><g fill="#eb9018" fill-opacity="1"><g transform="translate(164.853829, 155.06839)"><g><path d="M 1.125 -8.890625 L 0.703125 -10.15625 L 2.828125 -10.15625 C 5.023438 -10.144531 6.125 -8.453125 6.125 -5.078125 C 6.125 -1.710938 5.023438 -0.0195312 2.828125 0 L 1.125 0 Z M 2.828125 -0.75 C 3.347656 -0.769531 3.742188 -1.125 4.015625 -1.8125 C 4.296875 -2.5 4.4375 -3.585938 4.4375 -5.078125 C 4.4375 -6.566406 4.300781 -7.65625 4.03125 -8.34375 C 3.769531 -9.03125 3.367188 -9.390625 2.828125 -9.421875 Z M 2.828125 -0.75 "/></g></g></g><g fill="#eb9018" fill-opacity="1"><g transform="translate(171.580543, 155.06839)"><g><path d="M 0.96875 -10.15625 L 2.671875 -10.15625 L 2.671875 0 L 0.96875 0 Z M 0.96875 -10.15625 "/></g></g></g><g fill="#eb9018" fill-opacity="1"><g transform="translate(175.294282, 155.06839)"><g><path d="M 1.125 -9.03125 L 0.703125 -10.15625 L 2.390625 -10.15625 L 4.921875 -3.484375 L 4.921875 -10.15625 L 5.765625 -10.15625 L 5.765625 0 L 4.5 0 L 1.96875 -6.765625 L 1.96875 0 L 1.125 0 Z M 1.125 -9.03125 "/></g></g></g><g fill="#eb9018" fill-opacity="1"><g transform="translate(182.108581, 155.06839)"><g><path d="M 3.90625 0 C 3.382812 0 2.910156 -0.0820312 2.484375 -0.25 C 2.066406 -0.425781 1.710938 -0.710938 1.421875 -1.109375 C 1.128906 -1.503906 0.90625 -2.023438 0.75 -2.671875 C 0.601562 -3.316406 0.53125 -4.117188 0.53125 -5.078125 C 0.53125 -6.023438 0.601562 -6.820312 0.75 -7.46875 C 0.90625 -8.125 1.128906 -8.648438 1.421875 -9.046875 C 1.710938 -9.441406 2.066406 -9.722656 2.484375 -9.890625 C 2.910156 -10.066406 3.382812 -10.15625 3.90625 -10.15625 C 4.101562 -10.15625 4.289062 -10.144531 4.46875 -10.125 C 4.65625 -10.101562 4.832031 -10.066406 5 -10.015625 L 5 -8.296875 C 4.90625 -8.546875 4.765625 -8.773438 4.578125 -8.984375 C 4.390625 -9.203125 4.164062 -9.3125 3.90625 -9.3125 C 3.65625 -9.3125 3.4375 -9.191406 3.25 -8.953125 C 3.0625 -8.710938 2.898438 -8.390625 2.765625 -7.984375 C 2.640625 -7.585938 2.546875 -7.132812 2.484375 -6.625 C 2.421875 -6.125 2.390625 -5.609375 2.390625 -5.078125 C 2.390625 -4.554688 2.421875 -4.035156 2.484375 -3.515625 C 2.546875 -3.003906 2.632812 -2.550781 2.75 -2.15625 C 2.875 -1.757812 3.03125 -1.4375 3.21875 -1.1875 C 3.40625 -0.945312 3.625 -0.828125 3.875 -0.828125 C 4.039062 -0.828125 4.191406 -0.875 4.328125 -0.96875 L 4.328125 -5.078125 L 6.03125 -5.5 L 6.03125 -0.703125 C 5.726562 -0.429688 5.394531 -0.242188 5.03125 -0.140625 C 4.675781 -0.046875 4.300781 0 3.90625 0 Z M 3.90625 0 "/></g></g></g><g fill="#eb9018" fill-opacity="1"><g transform="translate(188.92288, 155.06839)"><g/></g></g><g fill="#eb9018" fill-opacity="1"><g transform="translate(192.514, 155.06839)"><g><path d="M 2.265625 -4.4375 L 0.34375 -10.15625 L 2.046875 -10.15625 C 2.085938 -10.03125 2.144531 -9.851562 2.21875 -9.625 C 2.289062 -9.40625 2.375 -9.148438 2.46875 -8.859375 C 2.5625 -8.566406 2.660156 -8.257812 2.765625 -7.9375 C 2.878906 -7.613281 2.984375 -7.304688 3.078125 -7.015625 C 3.171875 -6.722656 3.257812 -6.457031 3.34375 -6.21875 C 3.425781 -5.988281 3.488281 -5.820312 3.53125 -5.71875 L 5 -10.15625 L 5.859375 -10.15625 L 3.9375 -4.4375 L 3.9375 0 L 2.265625 0 Z M 2.265625 -4.4375 "/></g></g></g><g fill="#eb9018" fill-opacity="1"><g transform="translate(198.80279, 155.06839)"><g><path d="M 3.703125 0 C 3.210938 0 2.765625 -0.0820312 2.359375 -0.25 C 1.960938 -0.425781 1.628906 -0.710938 1.359375 -1.109375 C 1.097656 -1.503906 0.894531 -2.023438 0.75 -2.671875 C 0.601562 -3.316406 0.53125 -4.117188 0.53125 -5.078125 C 0.53125 -6.023438 0.601562 -6.820312 0.75 -7.46875 C 0.894531 -8.125 1.097656 -8.648438 1.359375 -9.046875 C 1.628906 -9.441406 1.960938 -9.722656 2.359375 -9.890625 C 2.765625 -10.066406 3.210938 -10.15625 3.703125 -10.15625 C 4.191406 -10.15625 4.632812 -10.066406 5.03125 -9.890625 C 5.425781 -9.722656 5.757812 -9.441406 6.03125 -9.046875 C 6.300781 -8.648438 6.507812 -8.125 6.65625 -7.46875 C 6.800781 -6.820312 6.875 -6.023438 6.875 -5.078125 C 6.875 -4.117188 6.800781 -3.316406 6.65625 -2.671875 C 6.507812 -2.023438 6.300781 -1.503906 6.03125 -1.109375 C 5.757812 -0.710938 5.425781 -0.425781 5.03125 -0.25 C 4.632812 -0.0820312 4.191406 0 3.703125 0 Z M 3.703125 -0.84375 C 3.941406 -0.84375 4.148438 -0.957031 4.328125 -1.1875 C 4.515625 -1.425781 4.671875 -1.734375 4.796875 -2.109375 C 4.921875 -2.492188 5.007812 -2.929688 5.0625 -3.421875 C 5.125 -3.910156 5.15625 -4.410156 5.15625 -4.921875 C 5.15625 -5.460938 5.125 -5.992188 5.0625 -6.515625 C 5 -7.046875 4.90625 -7.519531 4.78125 -7.9375 C 4.65625 -8.351562 4.5 -8.6875 4.3125 -8.9375 C 4.132812 -9.1875 3.929688 -9.3125 3.703125 -9.3125 C 3.460938 -9.3125 3.253906 -9.1875 3.078125 -8.9375 C 2.898438 -8.6875 2.75 -8.351562 2.625 -7.9375 C 2.5 -7.53125 2.40625 -7.066406 2.34375 -6.546875 C 2.28125 -6.035156 2.25 -5.515625 2.25 -4.984375 C 2.25 -4.453125 2.273438 -3.9375 2.328125 -3.4375 C 2.390625 -2.945312 2.476562 -2.507812 2.59375 -2.125 C 2.71875 -1.738281 2.867188 -1.425781 3.046875 -1.1875 C 3.234375 -0.957031 3.453125 -0.84375 3.703125 -0.84375 Z M 3.703125 -0.84375 "/></g></g></g><g fill="#eb9018" fill-opacity="1"><g transform="translate(206.282749, 155.06839)"><g><path d="M 3.25 0 C 2.894531 0 2.5625 -0.0507812 2.25 -0.15625 C 1.9375 -0.257812 1.664062 -0.414062 1.4375 -0.625 C 1.21875 -0.84375 1.039062 -1.109375 0.90625 -1.421875 C 0.769531 -1.742188 0.703125 -2.117188 0.703125 -2.546875 L 0.703125 -10.15625 L 2.40625 -10.15625 L 2.40625 -2.546875 C 2.40625 -2.421875 2.40625 -2.285156 2.40625 -2.140625 C 2.414062 -1.992188 2.445312 -1.851562 2.5 -1.71875 C 2.550781 -1.59375 2.632812 -1.484375 2.75 -1.390625 C 2.863281 -1.304688 3.03125 -1.265625 3.25 -1.265625 C 3.457031 -1.265625 3.613281 -1.304688 3.71875 -1.390625 C 3.832031 -1.484375 3.914062 -1.59375 3.96875 -1.71875 C 4.019531 -1.851562 4.050781 -1.992188 4.0625 -2.140625 C 4.070312 -2.285156 4.078125 -2.421875 4.078125 -2.546875 L 4.078125 -10.15625 L 5.78125 -10.15625 L 5.78125 -2.546875 C 5.78125 -2.117188 5.710938 -1.742188 5.578125 -1.421875 C 5.441406 -1.109375 5.257812 -0.84375 5.03125 -0.625 C 4.8125 -0.414062 4.546875 -0.257812 4.234375 -0.15625 C 3.921875 -0.0507812 3.59375 0 3.25 0 Z M 3.25 0 "/></g></g></g><g fill="#eb9018" fill-opacity="1"><g transform="translate(212.851809, 155.06839)"><g/></g></g><g fill="#eb9018" fill-opacity="1"><g transform="translate(216.442929, 155.06839)"><g><path d="M 2.21875 -9.3125 L 0.53125 -9.3125 L 0.53125 -10.15625 L 5.609375 -10.15625 L 5.609375 -9.3125 L 3.90625 -9.3125 L 3.90625 0 L 2.21875 0 Z M 2.21875 -9.3125 "/></g></g></g><g fill="#eb9018" fill-opacity="1"><g transform="translate(222.661635, 155.06839)"><g><path d="M 3.703125 0 C 3.210938 0 2.765625 -0.0820312 2.359375 -0.25 C 1.960938 -0.425781 1.628906 -0.710938 1.359375 -1.109375 C 1.097656 -1.503906 0.894531 -2.023438 0.75 -2.671875 C 0.601562 -3.316406 0.53125 -4.117188 0.53125 -5.078125 C 0.53125 -6.023438 0.601562 -6.820312 0.75 -7.46875 C 0.894531 -8.125 1.097656 -8.648438 1.359375 -9.046875 C 1.628906 -9.441406 1.960938 -9.722656 2.359375 -9.890625 C 2.765625 -10.066406 3.210938 -10.15625 3.703125 -10.15625 C 4.191406 -10.15625 4.632812 -10.066406 5.03125 -9.890625 C 5.425781 -9.722656 5.757812 -9.441406 6.03125 -9.046875 C 6.300781 -8.648438 6.507812 -8.125 6.65625 -7.46875 C 6.800781 -6.820312 6.875 -6.023438 6.875 -5.078125 C 6.875 -4.117188 6.800781 -3.316406 6.65625 -2.671875 C 6.507812 -2.023438 6.300781 -1.503906 6.03125 -1.109375 C 5.757812 -0.710938 5.425781 -0.425781 5.03125 -0.25 C 4.632812 -0.0820312 4.191406 0 3.703125 0 Z M 3.703125 -0.84375 C 3.941406 -0.84375 4.148438 -0.957031 4.328125 -1.1875 C 4.515625 -1.425781 4.671875 -1.734375 4.796875 -2.109375 C 4.921875 -2.492188 5.007812 -2.929688 5.0625 -3.421875 C 5.125 -3.910156 5.15625 -4.410156 5.15625 -4.921875 C 5.15625 -5.460938 5.125 -5.992188 5.0625 -6.515625 C 5 -7.046875 4.90625 -7.519531 4.78125 -7.9375 C 4.65625 -8.351562 4.5 -8.6875 4.3125 -8.9375 C 4.132812 -9.1875 3.929688 -9.3125 3.703125 -9.3125 C 3.460938 -9.3125 3.253906 -9.1875 3.078125 -8.9375 C 2.898438 -8.6875 2.75 -8.351562 2.625 -7.9375 C 2.5 -7.53125 2.40625 -7.066406 2.34375 -6.546875 C 2.28125 -6.035156 2.25 -5.515625 2.25 -4.984375 C 2.25 -4.453125 2.273438 -3.9375 2.328125 -3.4375 C 2.390625 -2.945312 2.476562 -2.507812 2.59375 -2.125 C 2.71875 -1.738281 2.867188 -1.425781 3.046875 -1.1875 C 3.234375 -0.957031 3.453125 -0.84375 3.703125 -0.84375 Z M 3.703125 -0.84375 "/></g></g></g><g fill="#eb9018" fill-opacity="1"><g transform="translate(230.141595, 155.06839)"><g/></g></g><g fill="#eb9018" fill-opacity="1"><g transform="translate(233.732715, 155.06839)"><g><path d="M 2.453125 0 C 2.171875 0 1.914062 -0.0546875 1.6875 -0.171875 C 1.457031 -0.285156 1.265625 -0.414062 1.109375 -0.5625 C 0.953125 -0.707031 0.828125 -0.851562 0.734375 -1 C 0.640625 -1.15625 0.578125 -1.257812 0.546875 -1.3125 L 1.234375 -1.875 C 1.304688 -1.757812 1.390625 -1.660156 1.484375 -1.578125 C 1.566406 -1.503906 1.65625 -1.4375 1.75 -1.375 C 1.84375 -1.320312 1.945312 -1.296875 2.0625 -1.296875 C 2.300781 -1.296875 2.488281 -1.40625 2.625 -1.625 C 2.757812 -1.84375 2.828125 -2.101562 2.828125 -2.40625 C 2.828125 -2.46875 2.828125 -2.53125 2.828125 -2.59375 C 2.828125 -2.664062 2.8125 -2.738281 2.78125 -2.8125 C 2.6875 -3.195312 2.515625 -3.570312 2.265625 -3.9375 C 2.023438 -4.300781 1.773438 -4.675781 1.515625 -5.0625 C 1.253906 -5.457031 1.023438 -5.867188 0.828125 -6.296875 C 0.628906 -6.734375 0.53125 -7.210938 0.53125 -7.734375 C 0.519531 -8.097656 0.566406 -8.425781 0.671875 -8.71875 C 0.773438 -9.019531 0.921875 -9.273438 1.109375 -9.484375 C 1.296875 -9.691406 1.515625 -9.851562 1.765625 -9.96875 C 2.023438 -10.09375 2.300781 -10.15625 2.59375 -10.15625 C 2.875 -10.15625 3.128906 -10.09375 3.359375 -9.96875 C 3.585938 -9.851562 3.78125 -9.722656 3.9375 -9.578125 C 4.09375 -9.429688 4.21875 -9.285156 4.3125 -9.140625 C 4.40625 -8.992188 4.46875 -8.890625 4.5 -8.828125 L 3.828125 -8.28125 C 3.828125 -8.28125 3.800781 -8.304688 3.75 -8.359375 C 3.707031 -8.421875 3.644531 -8.488281 3.5625 -8.5625 C 3.476562 -8.632812 3.382812 -8.703125 3.28125 -8.765625 C 3.1875 -8.828125 3.082031 -8.859375 2.96875 -8.859375 C 2.726562 -8.859375 2.539062 -8.753906 2.40625 -8.546875 C 2.269531 -8.335938 2.203125 -8.082031 2.203125 -7.78125 C 2.203125 -7.632812 2.222656 -7.488281 2.265625 -7.34375 C 2.359375 -6.957031 2.523438 -6.578125 2.765625 -6.203125 C 3.015625 -5.835938 3.269531 -5.457031 3.53125 -5.0625 C 3.789062 -4.675781 4.019531 -4.265625 4.21875 -3.828125 C 4.414062 -3.398438 4.515625 -2.929688 4.515625 -2.421875 C 4.535156 -2.054688 4.488281 -1.722656 4.375 -1.421875 C 4.269531 -1.128906 4.117188 -0.875 3.921875 -0.65625 C 3.734375 -0.445312 3.507812 -0.285156 3.25 -0.171875 C 3 -0.0546875 2.734375 0 2.453125 0 Z M 2.453125 0 "/></g></g></g><g fill="#eb9018" fill-opacity="1"><g transform="translate(238.865362, 155.06839)"><g><path d="M 3.25 0 C 2.894531 0 2.5625 -0.0507812 2.25 -0.15625 C 1.9375 -0.257812 1.664062 -0.414062 1.4375 -0.625 C 1.21875 -0.84375 1.039062 -1.109375 0.90625 -1.421875 C 0.769531 -1.742188 0.703125 -2.117188 0.703125 -2.546875 L 0.703125 -10.15625 L 2.40625 -10.15625 L 2.40625 -2.546875 C 2.40625 -2.421875 2.40625 -2.285156 2.40625 -2.140625 C 2.414062 -1.992188 2.445312 -1.851562 2.5 -1.71875 C 2.550781 -1.59375 2.632812 -1.484375 2.75 -1.390625 C 2.863281 -1.304688 3.03125 -1.265625 3.25 -1.265625 C 3.457031 -1.265625 3.613281 -1.304688 3.71875 -1.390625 C 3.832031 -1.484375 3.914062 -1.59375 3.96875 -1.71875 C 4.019531 -1.851562 4.050781 -1.992188 4.0625 -2.140625 C 4.070312 -2.285156 4.078125 -2.421875 4.078125 -2.546875 L 4.078125 -10.15625 L 5.78125 -10.15625 L 5.78125 -2.546875 C 5.78125 -2.117188 5.710938 -1.742188 5.578125 -1.421875 C 5.441406 -1.109375 5.257812 -0.84375 5.03125 -0.625 C 4.8125 -0.414062 4.546875 -0.257812 4.234375 -0.15625 C 3.921875 -0.0507812 3.59375 0 3.25 0 Z M 3.25 0 "/></g></g></g><g fill="#eb9018" fill-opacity="1"><g transform="translate(245.434422, 155.06839)"><g><path d="M 3.90625 0 C 3.382812 0 2.910156 -0.0820312 2.484375 -0.25 C 2.066406 -0.425781 1.710938 -0.710938 1.421875 -1.109375 C 1.128906 -1.503906 0.90625 -2.023438 0.75 -2.671875 C 0.601562 -3.316406 0.53125 -4.117188 0.53125 -5.078125 C 0.53125 -6.023438 0.601562 -6.820312 0.75 -7.46875 C 0.90625 -8.125 1.128906 -8.648438 1.421875 -9.046875 C 1.710938 -9.441406 2.066406 -9.722656 2.484375 -9.890625 C 2.910156 -10.066406 3.382812 -10.15625 3.90625 -10.15625 C 4.0625 -10.15625 4.207031 -10.140625 4.34375 -10.109375 C 4.488281 -10.085938 4.625 -10.0625 4.75 -10.03125 L 4.75 -8.765625 C 4.5 -9.128906 4.21875 -9.3125 3.90625 -9.3125 C 3.582031 -9.3125 3.285156 -9.109375 3.015625 -8.703125 C 2.921875 -8.546875 2.832031 -8.335938 2.75 -8.078125 C 2.675781 -7.828125 2.613281 -7.539062 2.5625 -7.21875 C 2.507812 -6.894531 2.472656 -6.546875 2.453125 -6.171875 C 2.429688 -5.804688 2.421875 -5.4375 2.421875 -5.0625 C 2.421875 -4.6875 2.429688 -4.316406 2.453125 -3.953125 C 2.472656 -3.597656 2.507812 -3.257812 2.5625 -2.9375 C 2.613281 -2.613281 2.675781 -2.320312 2.75 -2.0625 C 2.832031 -1.8125 2.921875 -1.609375 3.015625 -1.453125 C 3.273438 -1.046875 3.570312 -0.84375 3.90625 -0.84375 C 4.21875 -0.84375 4.5 -1.023438 4.75 -1.390625 L 4.75 -0.140625 C 4.46875 -0.046875 4.1875 0 3.90625 0 Z M 3.90625 0 "/></g></g></g><g fill="#eb9018" fill-opacity="1"><g transform="translate(250.794797, 155.06839)"><g><path d="M 3.90625 0 C 3.382812 0 2.910156 -0.0820312 2.484375 -0.25 C 2.066406 -0.425781 1.710938 -0.710938 1.421875 -1.109375 C 1.128906 -1.503906 0.90625 -2.023438 0.75 -2.671875 C 0.601562 -3.316406 0.53125 -4.117188 0.53125 -5.078125 C 0.53125 -6.023438 0.601562 -6.820312 0.75 -7.46875 C 0.90625 -8.125 1.128906 -8.648438 1.421875 -9.046875 C 1.710938 -9.441406 2.066406 -9.722656 2.484375 -9.890625 C 2.910156 -10.066406 3.382812 -10.15625 3.90625 -10.15625 C 4.0625 -10.15625 4.207031 -10.140625 4.34375 -10.109375 C 4.488281 -10.085938 4.625 -10.0625 4.75 -10.03125 L 4.75 -8.765625 C 4.5 -9.128906 4.21875 -9.3125 3.90625 -9.3125 C 3.582031 -9.3125 3.285156 -9.109375 3.015625 -8.703125 C 2.921875 -8.546875 2.832031 -8.335938 2.75 -8.078125 C 2.675781 -7.828125 2.613281 -7.539062 2.5625 -7.21875 C 2.507812 -6.894531 2.472656 -6.546875 2.453125 -6.171875 C 2.429688 -5.804688 2.421875 -5.4375 2.421875 -5.0625 C 2.421875 -4.6875 2.429688 -4.316406 2.453125 -3.953125 C 2.472656 -3.597656 2.507812 -3.257812 2.5625 -2.9375 C 2.613281 -2.613281 2.675781 -2.320312 2.75 -2.0625 C 2.832031 -1.8125 2.921875 -1.609375 3.015625 -1.453125 C 3.273438 -1.046875 3.570312 -0.84375 3.90625 -0.84375 C 4.21875 -0.84375 4.5 -1.023438 4.75 -1.390625 L 4.75 -0.140625 C 4.46875 -0.046875 4.1875 0 3.90625 0 Z M 3.90625 0 "/></g></g></g><g fill="#eb9018" fill-opacity="1"><g transform="translate(256.155166, 155.06839)"><g><path d="M 0.875 -10.15625 L 4.6875 -10.15625 L 4.265625 -9.3125 L 2.578125 -9.3125 L 2.578125 -6.34375 L 4.265625 -6.34375 L 3.84375 -5.5 L 2.578125 -5.5 L 2.578125 -0.84375 L 4.6875 -0.84375 L 4.6875 0 L 0.875 0 Z M 0.875 -10.15625 "/></g></g></g><g fill="#eb9018" fill-opacity="1"><g transform="translate(261.445466, 155.06839)"><g><path d="M 2.453125 0 C 2.171875 0 1.914062 -0.0546875 1.6875 -0.171875 C 1.457031 -0.285156 1.265625 -0.414062 1.109375 -0.5625 C 0.953125 -0.707031 0.828125 -0.851562 0.734375 -1 C 0.640625 -1.15625 0.578125 -1.257812 0.546875 -1.3125 L 1.234375 -1.875 C 1.304688 -1.757812 1.390625 -1.660156 1.484375 -1.578125 C 1.566406 -1.503906 1.65625 -1.4375 1.75 -1.375 C 1.84375 -1.320312 1.945312 -1.296875 2.0625 -1.296875 C 2.300781 -1.296875 2.488281 -1.40625 2.625 -1.625 C 2.757812 -1.84375 2.828125 -2.101562 2.828125 -2.40625 C 2.828125 -2.46875 2.828125 -2.53125 2.828125 -2.59375 C 2.828125 -2.664062 2.8125 -2.738281 2.78125 -2.8125 C 2.6875 -3.195312 2.515625 -3.570312 2.265625 -3.9375 C 2.023438 -4.300781 1.773438 -4.675781 1.515625 -5.0625 C 1.253906 -5.457031 1.023438 -5.867188 0.828125 -6.296875 C 0.628906 -6.734375 0.53125 -7.210938 0.53125 -7.734375 C 0.519531 -8.097656 0.566406 -8.425781 0.671875 -8.71875 C 0.773438 -9.019531 0.921875 -9.273438 1.109375 -9.484375 C 1.296875 -9.691406 1.515625 -9.851562 1.765625 -9.96875 C 2.023438 -10.09375 2.300781 -10.15625 2.59375 -10.15625 C 2.875 -10.15625 3.128906 -10.09375 3.359375 -9.96875 C 3.585938 -9.851562 3.78125 -9.722656 3.9375 -9.578125 C 4.09375 -9.429688 4.21875 -9.285156 4.3125 -9.140625 C 4.40625 -8.992188 4.46875 -8.890625 4.5 -8.828125 L 3.828125 -8.28125 C 3.828125 -8.28125 3.800781 -8.304688 3.75 -8.359375 C 3.707031 -8.421875 3.644531 -8.488281 3.5625 -8.5625 C 3.476562 -8.632812 3.382812 -8.703125 3.28125 -8.765625 C 3.1875 -8.828125 3.082031 -8.859375 2.96875 -8.859375 C 2.726562 -8.859375 2.539062 -8.753906 2.40625 -8.546875 C 2.269531 -8.335938 2.203125 -8.082031 2.203125 -7.78125 C 2.203125 -7.632812 2.222656 -7.488281 2.265625 -7.34375 C 2.359375 -6.957031 2.523438 -6.578125 2.765625 -6.203125 C 3.015625 -5.835938 3.269531 -5.457031 3.53125 -5.0625 C 3.789062 -4.675781 4.019531 -4.265625 4.21875 -3.828125 C 4.414062 -3.398438 4.515625 -2.929688 4.515625 -2.421875 C 4.535156 -2.054688 4.488281 -1.722656 4.375 -1.421875 C 4.269531 -1.128906 4.117188 -0.875 3.921875 -0.65625 C 3.734375 -0.445312 3.507812 -0.285156 3.25 -0.171875 C 3 -0.0546875 2.734375 0 2.453125 0 Z M 2.453125 0 "/></g></g></g><g fill="#eb9018" fill-opacity="1"><g transform="translate(266.578113, 155.06839)"><g><path d="M 2.453125 0 C 2.171875 0 1.914062 -0.0546875 1.6875 -0.171875 C 1.457031 -0.285156 1.265625 -0.414062 1.109375 -0.5625 C 0.953125 -0.707031 0.828125 -0.851562 0.734375 -1 C 0.640625 -1.15625 0.578125 -1.257812 0.546875 -1.3125 L 1.234375 -1.875 C 1.304688 -1.757812 1.390625 -1.660156 1.484375 -1.578125 C 1.566406 -1.503906 1.65625 -1.4375 1.75 -1.375 C 1.84375 -1.320312 1.945312 -1.296875 2.0625 -1.296875 C 2.300781 -1.296875 2.488281 -1.40625 2.625 -1.625 C 2.757812 -1.84375 2.828125 -2.101562 2.828125 -2.40625 C 2.828125 -2.46875 2.828125 -2.53125 2.828125 -2.59375 C 2.828125 -2.664062 2.8125 -2.738281 2.78125 -2.8125 C 2.6875 -3.195312 2.515625 -3.570312 2.265625 -3.9375 C 2.023438 -4.300781 1.773438 -4.675781 1.515625 -5.0625 C 1.253906 -5.457031 1.023438 -5.867188 0.828125 -6.296875 C 0.628906 -6.734375 0.53125 -7.210938 0.53125 -7.734375 C 0.519531 -8.097656 0.566406 -8.425781 0.671875 -8.71875 C 0.773438 -9.019531 0.921875 -9.273438 1.109375 -9.484375 C 1.296875 -9.691406 1.515625 -9.851562 1.765625 -9.96875 C 2.023438 -10.09375 2.300781 -10.15625 2.59375 -10.15625 C 2.875 -10.15625 3.128906 -10.09375 3.359375 -9.96875 C 3.585938 -9.851562 3.78125 -9.722656 3.9375 -9.578125 C 4.09375 -9.429688 4.21875 -9.285156 4.3125 -9.140625 C 4.40625 -8.992188 4.46875 -8.890625 4.5 -8.828125 L 3.828125 -8.28125 C 3.828125 -8.28125 3.800781 -8.304688 3.75 -8.359375 C 3.707031 -8.421875 3.644531 -8.488281 3.5625 -8.5625 C 3.476562 -8.632812 3.382812 -8.703125 3.28125 -8.765625 C 3.1875 -8.828125 3.082031 -8.859375 2.96875 -8.859375 C 2.726562 -8.859375 2.539062 -8.753906 2.40625 -8.546875 C 2.269531 -8.335938 2.203125 -8.082031 2.203125 -7.78125 C 2.203125 -7.632812 2.222656 -7.488281 2.265625 -7.34375 C 2.359375 -6.957031 2.523438 -6.578125 2.765625 -6.203125 C 3.015625 -5.835938 3.269531 -5.457031 3.53125 -5.0625 C 3.789062 -4.675781 4.019531 -4.265625 4.21875 -3.828125 C 4.414062 -3.398438 4.515625 -2.929688 4.515625 -2.421875 C 4.535156 -2.054688 4.488281 -1.722656 4.375 -1.421875 C 4.269531 -1.128906 4.117188 -0.875 3.921875 -0.65625 C 3.734375 -0.445312 3.507812 -0.285156 3.25 -0.171875 C 3 -0.0546875 2.734375 0 2.453125 0 Z M 2.453125 0 "/></g></g></g></svg>