<svg xmlns="http://www.w3.org/2000/svg" xmlns:xlink="http://www.w3.org/1999/xlink" width="760" zoomAndPan="magnify" viewBox="0 0 570 257.99999" height="344" preserveAspectRatio="xMidYMid meet" version="1.0"><defs><g/><clipPath id="80e7d0bac5"><path d="M 75.300781 106 L 185.550781 106 L 185.550781 182.667969 L 75.300781 182.667969 Z M 75.300781 106 " clip-rule="nonzero"/></clipPath><clipPath id="19128b38c2"><path d="M 153 75.417969 L 181 75.417969 L 181 102 L 153 102 Z M 153 75.417969 " clip-rule="nonzero"/></clipPath></defs><g clip-path="url(#80e7d0bac5)"><path fill="#ffffff" d="M 169.136719 150.332031 C 169.609375 148.070312 169.898438 145.746094 169.980469 143.367188 C 170.171875 143.21875 170.359375 143.070312 170.542969 142.921875 C 187.484375 129.292969 192.382812 113.464844 173.125 106.265625 C 179.59375 113.59375 177.214844 122.15625 169.183594 130.371094 C 168.960938 130.597656 168.730469 130.824219 168.5 131.054688 C 154.3125 144.984375 124.027344 157.78125 93.328125 161.683594 C 93.121094 161.707031 92.914062 161.734375 92.707031 161.761719 C 86.878906 162.476562 81.039062 162.875 75.300781 162.890625 C 82.011719 164.890625 88.894531 166.007812 95.78125 166.382812 C 95.964844 166.378906 96.144531 166.371094 96.328125 166.363281 C 96.394531 166.359375 96.460938 166.359375 96.527344 166.355469 C 101.25 172.675781 107.765625 177.585938 115.324219 180.316406 C 112.066406 176.558594 109.324219 171.515625 107.316406 165.589844 C 108.789062 165.445312 110.261719 165.28125 111.734375 165.105469 C 114.910156 174.222656 119.914062 180.722656 125.722656 182.582031 C 126.125 182.617188 126.519531 182.644531 126.925781 182.664062 L 126.925781 162.734375 C 128.410156 162.453125 129.898438 162.15625 131.386719 161.84375 L 131.386719 182.664062 C 131.789062 182.640625 132.1875 182.617188 132.589844 182.582031 C 139.761719 180.285156 145.714844 170.917969 148.5 158.269531 C 145.070312 159.148438 141.453125 159.886719 137.648438 160.464844 C 137.441406 160.5 137.234375 160.527344 137.023438 160.558594 C 143.125 158.542969 148.902344 156.105469 154.203125 153.382812 L 168.371094 153.382812 C 168.664062 152.382812 168.917969 151.367188 169.136719 150.335938 Z M 169.136719 150.332031 " fill-opacity="1" fill-rule="evenodd"/></g><path fill="#ffffff" d="M 131.542969 108.398438 L 127.011719 114.703125 C 134.113281 114.820312 139.339844 116.019531 131.480469 124.757812 C 145.507812 112.402344 142.417969 108.484375 131.546875 108.398438 Z M 131.542969 108.398438 " fill-opacity="1" fill-rule="evenodd"/><path fill="#ffffff" d="M 125.367188 87.238281 C 125.367188 90.21875 127.777344 92.628906 130.757812 92.628906 C 133.734375 92.628906 136.148438 90.21875 136.148438 87.238281 C 136.148438 84.265625 133.734375 81.855469 130.757812 81.855469 C 127.78125 81.855469 125.367188 84.265625 125.367188 87.238281 Z M 125.367188 87.238281 " fill-opacity="1" fill-rule="evenodd"/><path fill="#ffffff" d="M 121.488281 99.644531 C 117.863281 114.464844 110.695312 127.414062 101.109375 139.082031 C 114.5625 129.734375 125.601562 117.527344 133.445312 101.523438 C 141.960938 102.710938 150.78125 102.617188 158.425781 94.667969 C 140.546875 106.933594 114.121094 81.351562 105.578125 104.261719 C 109.765625 99.425781 115.308594 98.949219 121.484375 99.648438 Z M 121.488281 99.644531 " fill-opacity="1" fill-rule="evenodd"/><g clip-path="url(#19128b38c2)"><path fill="#ffffff" d="M 166.757812 75.417969 L 169.203125 84.230469 L 177.617188 80.644531 L 172.246094 88.046875 L 180.296875 92.390625 L 171.160156 92.808594 L 172.785156 101.804688 L 166.757812 94.929688 L 160.734375 101.804688 L 162.355469 92.808594 L 153.214844 92.390625 L 161.269531 88.046875 L 155.902344 80.644531 L 164.316406 84.230469 Z M 166.757812 75.417969 " fill-opacity="1" fill-rule="evenodd"/></g><path fill="#eb9018" d="M 108.550781 157.039062 L 108.550781 144.210938 L 97.042969 144.210938 L 97.042969 159.199219 C 97.550781 159.121094 98.054688 159.039062 98.5625 158.960938 C 101.890625 158.421875 105.226562 157.78125 108.550781 157.039062 Z M 149.753906 119.886719 L 149.753906 142 C 153.757812 139.824219 157.691406 137.382812 161.261719 134.683594 L 161.261719 119.886719 Z M 132.179688 125.402344 L 132.179688 149.988281 C 134.378906 149.152344 136.554688 148.269531 138.695312 147.347656 C 140.332031 146.640625 142.003906 145.886719 143.691406 145.082031 L 143.691406 125.40625 L 132.179688 125.40625 Z M 114.613281 135.644531 L 114.613281 155.578125 C 118.488281 154.570312 122.335938 153.425781 126.125 152.152344 L 126.125 135.644531 Z M 114.613281 135.644531 " fill-opacity="1" fill-rule="evenodd"/><path fill="#ffffff" d="M 153.058594 157.972656 C 151.128906 167.210938 147.554688 175.035156 142.984375 180.316406 L 143.15625 180.253906 C 153.710938 176.382812 162.21875 168.265625 166.601562 157.972656 Z M 153.058594 157.972656 " fill-opacity="1" fill-rule="evenodd"/><g fill="#d9d9d9" fill-opacity="1"><g transform="translate(200.418325, 132.8713)"><g><path d="M 3.554688 -23.269531 L 2.640625 -29.679688 L 3.125 -29.679688 L 4.847656 -24.078125 C 6.679688 -19.605469 7.972656 -16.050781 10.019531 -11.257812 C 10.503906 -10.179688 12.605469 -9.535156 13.304688 -11.527344 L 13.304688 -11.472656 L 18.3125 -24.023438 L 19.929688 -29.300781 L 20.414062 -29.300781 L 19.550781 -23.160156 L 19.550781 -1.5625 C 19.550781 -0.269531 20.414062 0.324219 21.382812 0.324219 C 22.246094 0.324219 23.214844 -0.269531 23.214844 -1.5625 L 23.214844 -35.980469 C 23.214844 -37.328125 22.355469 -37.867188 21.546875 -37.867188 C 20.84375 -37.867188 19.875 -37.382812 19.550781 -36.789062 L 11.582031 -15.890625 C 8.78125 -22.839844 6.300781 -29.625 3.449219 -36.628906 C 3.285156 -37.328125 2.476562 -37.921875 1.667969 -37.921875 C 0.863281 -37.921875 0 -37.382812 0 -35.980469 L 0 -1.5625 C 0 -0.378906 0.914062 0.214844 1.777344 0.214844 C 2.746094 0.214844 3.664062 -0.484375 3.664062 -1.5625 C 3.664062 -9.050781 3.554688 -15.726562 3.554688 -23.269531 Z M 3.554688 -23.269531 "/></g></g></g><g fill="#d9d9d9" fill-opacity="1"><g transform="translate(227.404235, 132.8713)"><g><path d="M 8.296875 -22.191406 C 10.878906 -22.191406 12.980469 -20.089844 12.980469 -17.503906 C 12.980469 -14.8125 10.878906 -12.820312 8.296875 -12.820312 L 4.957031 -12.820312 L 4.957031 -9.320312 L 8.296875 -9.320312 C 12.765625 -9.320312 16.480469 -12.765625 16.480469 -17.503906 C 16.480469 -22.191406 12.980469 -25.746094 8.296875 -25.746094 C 3.609375 -25.746094 0 -21.921875 0 -17.34375 L 0 -7.808594 C 0 -3.125 3.933594 0.429688 8.296875 0.429688 C 10.449219 0.429688 12.390625 -0.378906 13.734375 -1.5625 L 13.679688 -1.5625 C 15.082031 -2.746094 14.058594 -5.871094 11.472656 -4.253906 C 10.449219 -3.554688 9.425781 -3.179688 8.296875 -3.179688 C 5.710938 -3.179688 3.609375 -5.277344 3.609375 -7.808594 L 3.609375 -17.34375 C 3.609375 -19.984375 5.65625 -22.191406 8.296875 -22.191406 Z M 8.296875 -22.191406 "/></g></g></g><g fill="#d9d9d9" fill-opacity="1"><g transform="translate(246.579843, 132.8713)"><g><path d="M 16.699219 -1.5625 L 16.699219 -17.613281 C 16.699219 -22.085938 12.875 -26.015625 8.347656 -26.015625 C 3.878906 -26.015625 0 -22.136719 0 -17.613281 L 0 -1.5625 C 0 -0.378906 0.914062 0.160156 1.777344 0.160156 C 2.691406 0.160156 3.609375 -0.429688 3.609375 -1.5625 L 3.609375 -17.613281 C 3.609375 -20.308594 5.761719 -22.460938 8.347656 -22.460938 C 10.988281 -22.460938 13.195312 -20.308594 13.195312 -17.613281 L 13.195312 -1.5625 C 13.195312 -0.539062 14.113281 0.109375 14.972656 0.109375 C 15.890625 0.109375 16.699219 -0.429688 16.699219 -1.5625 Z M 16.699219 -1.5625 "/></g></g></g><g fill="#d9d9d9" fill-opacity="1"><g transform="translate(267.048195, 132.8713)"><g><path d="M 7.808594 -25.800781 L 3.554688 -25.800781 L 3.554688 -35.65625 C 3.554688 -36.84375 2.640625 -37.382812 1.777344 -37.382812 C 0.863281 -37.382812 0 -36.84375 0 -35.65625 L 0 -8.296875 C 0 -3.394531 3.714844 0.160156 8.671875 0.160156 C 9.804688 0.160156 10.34375 -0.644531 10.34375 -1.5625 C 10.34375 -2.425781 9.804688 -3.339844 8.671875 -3.339844 C 5.871094 -3.339844 3.554688 -5.492188 3.554688 -8.296875 L 3.554688 -22.246094 L 7.808594 -22.246094 C 8.941406 -22.246094 9.480469 -23.160156 9.480469 -24.023438 C 9.480469 -24.886719 8.941406 -25.800781 7.808594 -25.800781 Z M 7.808594 -25.800781 "/></g></g></g><g fill="#d9d9d9" fill-opacity="1"><g transform="translate(278.844433, 132.8713)"><g><path d="M 16.804688 -8.027344 L 16.804688 -17.773438 C 16.804688 -22.191406 12.980469 -26.179688 8.457031 -26.179688 C 3.933594 -26.179688 0 -22.191406 0 -17.773438 L 0 -8.027344 C 0 -3.5 3.933594 0.429688 8.457031 0.429688 C 12.980469 0.429688 16.804688 -3.5 16.804688 -8.027344 Z M 13.25 -17.773438 L 13.25 -8.027344 C 13.25 -5.332031 10.828125 -3.125 8.457031 -3.125 C 6.085938 -3.125 3.609375 -5.332031 3.609375 -8.027344 L 3.609375 -17.773438 C 3.609375 -20.414062 5.816406 -22.621094 8.457031 -22.621094 C 10.988281 -22.621094 13.25 -20.414062 13.25 -17.773438 Z M 13.25 -17.773438 "/></g></g></g><g fill="#d9d9d9" fill-opacity="1"><g transform="translate(299.582112, 132.8713)"><g><path d="M 3.609375 -1.402344 L 3.609375 -17.722656 C 3.609375 -20.414062 5.710938 -22.621094 8.347656 -22.621094 C 8.5625 -22.621094 8.941406 -22.570312 9.210938 -22.515625 C 10.71875 -22.300781 11.582031 -23.378906 11.582031 -24.347656 C 11.582031 -25.101562 11.042969 -25.855469 10.074219 -26.070312 C 9.480469 -26.179688 9.101562 -26.179688 8.347656 -26.179688 C 3.664062 -26.179688 0 -22.136719 0 -17.722656 L 0 -1.402344 C 0 -0.269531 0.96875 0.269531 1.832031 0.269531 C 2.691406 0.269531 3.609375 -0.269531 3.609375 -1.402344 Z M 3.609375 -1.402344 "/></g></g></g><g fill="#d9d9d9" fill-opacity="1"><g transform="translate(312.724947, 132.8713)"><g/></g></g><g fill="#d9d9d9" fill-opacity="1"><g transform="translate(324.575053, 132.8713)"><g><path d="M 6.195312 -12.765625 L 6.195312 -1.292969 C 6.195312 -0.269531 7.109375 0.429688 8.078125 0.429688 C 8.941406 0.429688 9.855469 -0.160156 9.855469 -1.292969 L 9.855469 -12.65625 L 14.972656 -19.066406 C 16.105469 -20.414062 16.75 -22.621094 16.75 -24.347656 L 16.75 -36.144531 C 16.75 -37.273438 15.890625 -37.8125 14.972656 -37.8125 C 14.058594 -37.8125 13.144531 -37.167969 13.144531 -36.144531 L 13.144531 -24.453125 C 13.144531 -23.539062 12.765625 -22.085938 12.121094 -21.222656 L 8.078125 -15.996094 L 3.984375 -21.167969 C 3.449219 -21.921875 2.960938 -23.539062 2.960938 -24.453125 L 2.960938 -36.144531 C 2.960938 -37.21875 1.992188 -37.757812 1.132812 -37.757812 C 0.160156 -37.757812 -0.699219 -37.21875 -0.699219 -36.144531 L -0.699219 -24.347656 C -0.699219 -22.621094 -0.0546875 -20.414062 1.078125 -19.066406 Z M 6.195312 -12.765625 "/></g></g></g><g fill="#d9d9d9" fill-opacity="1"><g transform="translate(344.397034, 132.8713)"><g><path d="M 7.488281 -3.230469 C 4.957031 -3.230469 2.910156 -5.277344 2.910156 -7.863281 C 2.910156 -10.558594 5.007812 -12.550781 7.488281 -12.550781 L 10.878906 -12.550781 L 10.878906 -16.050781 L 7.488281 -16.050781 C 3.125 -16.050781 -0.699219 -12.605469 -0.699219 -7.863281 C -0.699219 -3.285156 2.960938 0.378906 7.488281 0.378906 C 12.335938 0.378906 15.78125 -3.5 15.78125 -8.027344 L 15.78125 -17.613281 C 15.78125 -22.246094 11.851562 -25.800781 7.488281 -25.800781 C 5.546875 -25.800781 3.824219 -25.15625 2.316406 -23.914062 C 0.699219 -22.675781 2.53125 -19.769531 4.363281 -21.0625 C 5.332031 -21.761719 6.355469 -22.300781 7.488281 -22.300781 C 10.125 -22.300781 12.28125 -20.144531 12.28125 -17.613281 L 12.28125 -8.027344 C 12.28125 -5.386719 10.179688 -3.230469 7.488281 -3.230469 Z M 7.488281 -3.230469 "/></g></g></g><g fill="#d9d9d9" fill-opacity="1"><g transform="translate(363.895837, 132.8713)"><g><path d="M 3.609375 -1.402344 L 3.609375 -17.722656 C 3.609375 -20.414062 5.710938 -22.621094 8.347656 -22.621094 C 8.5625 -22.621094 8.941406 -22.570312 9.210938 -22.515625 C 10.71875 -22.300781 11.582031 -23.378906 11.582031 -24.347656 C 11.582031 -25.101562 11.042969 -25.855469 10.074219 -26.070312 C 9.480469 -26.179688 9.101562 -26.179688 8.347656 -26.179688 C 3.664062 -26.179688 0 -22.136719 0 -17.722656 L 0 -1.402344 C 0 -0.269531 0.96875 0.269531 1.832031 0.269531 C 2.691406 0.269531 3.609375 -0.269531 3.609375 -1.402344 Z M 3.609375 -1.402344 "/></g></g></g><g fill="#d9d9d9" fill-opacity="1"><g transform="translate(377.038671, 132.8713)"><g><path d="M 11.3125 -22.246094 L 11.3125 -25.800781 L 8.347656 -25.800781 C 3.5 -25.800781 0 -22.085938 0 -17.613281 L 0 -7.808594 C 0 -3.230469 3.554688 0.484375 8.347656 0.484375 C 12.980469 0.484375 16.589844 -3.5 16.589844 -8.027344 L 16.589844 -35.121094 C 16.589844 -36.359375 15.621094 -36.949219 14.757812 -36.949219 C 13.898438 -36.949219 12.980469 -36.359375 12.980469 -35.121094 L 12.980469 -8.027344 C 12.980469 -5.277344 10.988281 -3.070312 8.347656 -3.070312 C 5.65625 -3.070312 3.5 -5.226562 3.5 -7.808594 L 3.5 -17.503906 C 3.5 -20.144531 5.65625 -22.246094 8.347656 -22.246094 Z M 11.3125 -22.246094 "/></g></g></g><g fill="#eb9018" fill-opacity="1"><g transform="translate(215.052573, 160.422204)"><g><path d="M 3.511719 0 L 5.039062 0 L 5.039062 -6.070312 L 8.238281 -14.453125 L 6.667969 -14.453125 L 4.996094 -9.828125 C 4.769531 -9.148438 4.542969 -8.464844 4.292969 -7.761719 L 4.210938 -7.761719 C 4.027344 -8.484375 3.820312 -9.1875 3.570312 -9.785156 L 1.753906 -14.453125 L 0.144531 -14.453125 L 3.511719 -6.070312 Z M 3.511719 0 "/></g></g></g><g fill="#eb9018" fill-opacity="1"><g transform="translate(223.555227, 160.422204)"><g><path d="M 4.355469 0.207031 C 6.75 0.207031 7.90625 -1.445312 7.90625 -4.957031 C 7.90625 -8.425781 6.773438 -10.074219 4.398438 -10.074219 C 1.980469 -10.074219 0.824219 -8.425781 0.824219 -4.914062 C 0.824219 -1.464844 1.980469 0.207031 4.355469 0.207031 Z M 4.398438 -1.113281 C 2.933594 -1.113281 2.355469 -2.210938 2.355469 -4.957031 C 2.355469 -7.660156 2.933594 -8.753906 4.355469 -8.753906 C 5.824219 -8.753906 6.378906 -7.640625 6.378906 -4.914062 C 6.378906 -2.210938 5.800781 -1.113281 4.398438 -1.113281 Z M 4.398438 -1.113281 "/></g></g></g><g fill="#eb9018" fill-opacity="1"><g transform="translate(232.388079, 160.422204)"><g><path d="M 6.113281 -9.871094 L 6.113281 -2.269531 C 5.367188 -1.546875 4.523438 -1.113281 3.839844 -1.113281 C 3.054688 -1.113281 2.683594 -1.691406 2.683594 -2.582031 L 2.683594 -9.871094 L 1.199219 -9.871094 L 1.199219 -2.269531 C 1.199219 -0.679688 1.960938 0.207031 3.367188 0.207031 C 4.355469 0.207031 5.265625 -0.226562 6.234375 -1.113281 L 6.277344 -1.113281 L 6.378906 0 L 7.597656 0 L 7.597656 -9.871094 Z M 6.113281 -9.871094 "/></g></g></g><g fill="#eb9018" fill-opacity="1"><g transform="translate(241.324115, 160.422204)"><g><path d="M 5.101562 -10.035156 C 4.046875 -10.035156 3.199219 -9.394531 2.582031 -8.753906 L 2.558594 -8.753906 L 2.457031 -9.871094 L 1.238281 -9.871094 L 1.238281 0 L 2.726562 0 L 2.726562 -7.558594 C 3.367188 -8.21875 4.191406 -8.628906 4.996094 -8.628906 C 5.304688 -8.628906 5.617188 -8.570312 5.925781 -8.445312 L 6.257812 -9.785156 C 5.96875 -9.910156 5.554688 -10.035156 5.101562 -10.035156 Z M 5.101562 -10.035156 "/></g></g></g><g fill="#eb9018" fill-opacity="1"><g transform="translate(247.824947, 160.422204)"><g/></g></g><g fill="#eb9018" fill-opacity="1"><g transform="translate(251.312715, 160.422204)"><g><path d="M 1.464844 0 L 7.496094 0 L 7.496094 -1.300781 L 2.992188 -1.300781 L 2.992188 -14.453125 L 1.464844 -14.453125 Z M 1.464844 0 "/></g></g></g><g fill="#eb9018" fill-opacity="1"><g transform="translate(259.237521, 160.422204)"><g><path d="M 4.191406 -10.074219 C 3.136719 -10.074219 2.042969 -9.746094 1.199219 -9.230469 L 1.632812 -8.03125 C 2.375 -8.484375 3.179688 -8.753906 3.964844 -8.753906 C 5.078125 -8.753906 5.59375 -8.175781 5.59375 -6.9375 L 5.59375 -6.089844 L 4.769531 -6.089844 C 2.125 -6.089844 0.660156 -4.894531 0.660156 -2.664062 C 0.660156 -0.910156 1.589844 0.164062 3.136719 0.164062 C 4.171875 0.164062 5.058594 -0.308594 5.71875 -1.113281 L 5.761719 -1.113281 L 5.863281 0 L 7.082031 0 L 7.082031 -7.101562 C 7.082031 -9.023438 6.050781 -10.074219 4.191406 -10.074219 Z M 3.53125 -1.113281 C 2.644531 -1.113281 2.167969 -1.691406 2.167969 -2.746094 C 2.167969 -4.191406 3.015625 -4.914062 4.75 -4.914062 L 5.59375 -4.914062 L 5.59375 -2.230469 C 4.996094 -1.507812 4.273438 -1.113281 3.53125 -1.113281 Z M 3.53125 -1.113281 "/></g></g></g><g fill="#eb9018" fill-opacity="1"><g transform="translate(267.554442, 160.422204)"><g><path d="M 6.441406 -14.453125 L 6.441406 -9.3125 C 5.90625 -9.765625 5.140625 -10.074219 4.292969 -10.074219 C 2.066406 -10.074219 0.929688 -8.339844 0.929688 -4.871094 C 0.929688 -1.691406 1.835938 0.207031 4.003906 0.207031 C 5.078125 0.207031 6.007812 -0.371094 6.566406 -1.113281 L 6.605469 -1.113281 L 6.710938 0 L 7.929688 0 L 7.929688 -14.453125 Z M 4.234375 -1.113281 C 3.035156 -1.113281 2.457031 -2.3125 2.457031 -4.871094 C 2.457031 -7.289062 2.871094 -8.734375 4.542969 -8.734375 C 5.367188 -8.734375 5.988281 -8.402344 6.441406 -7.96875 L 6.441406 -2.25 C 5.925781 -1.632812 5.160156 -1.113281 4.234375 -1.113281 Z M 4.234375 -1.113281 "/></g></g></g><g fill="#eb9018" fill-opacity="1"><g transform="translate(276.820674, 160.422204)"><g><path d="M 6.441406 -14.453125 L 6.441406 -9.3125 C 5.90625 -9.765625 5.140625 -10.074219 4.292969 -10.074219 C 2.066406 -10.074219 0.929688 -8.339844 0.929688 -4.871094 C 0.929688 -1.691406 1.835938 0.207031 4.003906 0.207031 C 5.078125 0.207031 6.007812 -0.371094 6.566406 -1.113281 L 6.605469 -1.113281 L 6.710938 0 L 7.929688 0 L 7.929688 -14.453125 Z M 4.234375 -1.113281 C 3.035156 -1.113281 2.457031 -2.3125 2.457031 -4.871094 C 2.457031 -7.289062 2.871094 -8.734375 4.542969 -8.734375 C 5.367188 -8.734375 5.988281 -8.402344 6.441406 -7.96875 L 6.441406 -2.25 C 5.925781 -1.632812 5.160156 -1.113281 4.234375 -1.113281 Z M 4.234375 -1.113281 "/></g></g></g><g fill="#eb9018" fill-opacity="1"><g transform="translate(286.086906, 160.422204)"><g><path d="M 4.398438 -10.074219 C 2.023438 -10.074219 0.824219 -8.320312 0.824219 -4.933594 C 0.824219 -1.507812 1.960938 0.207031 4.378906 0.207031 C 5.449219 0.207031 6.566406 -0.125 7.328125 -0.660156 L 6.855469 -1.898438 C 6.214844 -1.425781 5.367188 -1.113281 4.605469 -1.113281 C 3.097656 -1.113281 2.4375 -2.085938 2.332031 -4.378906 L 7.597656 -4.378906 C 7.617188 -4.769531 7.640625 -5.121094 7.640625 -5.492188 C 7.640625 -8.238281 6.917969 -10.074219 4.398438 -10.074219 Z M 4.417969 -8.773438 C 5.882812 -8.773438 6.234375 -7.472656 6.171875 -5.554688 L 2.332031 -5.554688 C 2.4375 -7.785156 3.035156 -8.773438 4.417969 -8.773438 Z M 4.417969 -8.773438 "/></g></g></g><g fill="#eb9018" fill-opacity="1"><g transform="translate(294.54828, 160.422204)"><g><path d="M 5.101562 -10.035156 C 4.046875 -10.035156 3.199219 -9.394531 2.582031 -8.753906 L 2.558594 -8.753906 L 2.457031 -9.871094 L 1.238281 -9.871094 L 1.238281 0 L 2.726562 0 L 2.726562 -7.558594 C 3.367188 -8.21875 4.191406 -8.628906 4.996094 -8.628906 C 5.304688 -8.628906 5.617188 -8.570312 5.925781 -8.445312 L 6.257812 -9.785156 C 5.96875 -9.910156 5.554688 -10.035156 5.101562 -10.035156 Z M 5.101562 -10.035156 "/></g></g></g><g fill="#eb9018" fill-opacity="1"><g transform="translate(301.049116, 160.422204)"><g/></g></g><g fill="#eb9018" fill-opacity="1"><g transform="translate(304.536888, 160.422204)"><g><path d="M 7.90625 -14.453125 L 0.371094 -14.453125 L 0.371094 -13.152344 L 3.367188 -13.152344 L 3.367188 0 L 4.894531 0 L 4.894531 -13.152344 L 7.90625 -13.152344 Z M 7.90625 -14.453125 "/></g></g></g><g fill="#eb9018" fill-opacity="1"><g transform="translate(312.915713, 160.422204)"><g><path d="M 4.355469 0.207031 C 6.75 0.207031 7.90625 -1.445312 7.90625 -4.957031 C 7.90625 -8.425781 6.773438 -10.074219 4.398438 -10.074219 C 1.980469 -10.074219 0.824219 -8.425781 0.824219 -4.914062 C 0.824219 -1.464844 1.980469 0.207031 4.355469 0.207031 Z M 4.398438 -1.113281 C 2.933594 -1.113281 2.355469 -2.210938 2.355469 -4.957031 C 2.355469 -7.660156 2.933594 -8.753906 4.355469 -8.753906 C 5.824219 -8.753906 6.378906 -7.640625 6.378906 -4.914062 C 6.378906 -2.210938 5.800781 -1.113281 4.398438 -1.113281 Z M 4.398438 -1.113281 "/></g></g></g><g fill="#eb9018" fill-opacity="1"><g transform="translate(321.748568, 160.422204)"><g/></g></g><g fill="#eb9018" fill-opacity="1"><g transform="translate(325.23634, 160.422204)"><g><path d="M 3.820312 0.207031 C 6.214844 0.207031 7.640625 -1.363281 7.640625 -4.046875 C 7.640625 -5.800781 6.691406 -7.144531 4.644531 -8.445312 C 2.953125 -9.519531 2.457031 -10.179688 2.457031 -11.378906 C 2.457031 -12.617188 3.179688 -13.339844 4.417969 -13.339844 C 5.183594 -13.339844 6.089844 -13.027344 6.894531 -12.472656 L 7.472656 -13.691406 C 6.441406 -14.308594 5.304688 -14.660156 4.316406 -14.660156 C 2.230469 -14.660156 0.886719 -13.378906 0.886719 -11.355469 C 0.886719 -9.703125 1.652344 -8.527344 3.59375 -7.328125 C 5.492188 -6.171875 6.050781 -5.328125 6.050781 -3.820312 C 6.050781 -2.167969 5.203125 -1.136719 3.777344 -1.136719 C 2.871094 -1.136719 1.859375 -1.527344 0.949219 -2.210938 L 0.453125 -0.886719 C 1.445312 -0.1875 2.664062 0.207031 3.820312 0.207031 Z M 3.820312 0.207031 "/></g></g></g><g fill="#eb9018" fill-opacity="1"><g transform="translate(333.553265, 160.422204)"><g><path d="M 6.113281 -9.871094 L 6.113281 -2.269531 C 5.367188 -1.546875 4.523438 -1.113281 3.839844 -1.113281 C 3.054688 -1.113281 2.683594 -1.691406 2.683594 -2.582031 L 2.683594 -9.871094 L 1.199219 -9.871094 L 1.199219 -2.269531 C 1.199219 -0.679688 1.960938 0.207031 3.367188 0.207031 C 4.355469 0.207031 5.265625 -0.226562 6.234375 -1.113281 L 6.277344 -1.113281 L 6.378906 0 L 7.597656 0 L 7.597656 -9.871094 Z M 6.113281 -9.871094 "/></g></g></g><g fill="#eb9018" fill-opacity="1"><g transform="translate(342.489303, 160.422204)"><g><path d="M 4.378906 0.207031 C 5.367188 0.207031 6.402344 -0.101562 7.144531 -0.640625 L 6.667969 -1.835938 C 6.007812 -1.363281 5.304688 -1.113281 4.5625 -1.113281 C 3.015625 -1.113281 2.355469 -2.269531 2.355469 -4.996094 C 2.355469 -7.742188 2.953125 -8.753906 4.582031 -8.753906 C 5.285156 -8.753906 5.925781 -8.546875 6.460938 -8.15625 L 7.019531 -9.292969 C 6.339844 -9.785156 5.429688 -10.074219 4.5 -10.074219 C 1.980469 -10.074219 0.824219 -8.464844 0.824219 -4.933594 C 0.824219 -1.527344 2.003906 0.207031 4.378906 0.207031 Z M 4.378906 0.207031 "/></g></g></g><g fill="#eb9018" fill-opacity="1"><g transform="translate(350.187098, 160.422204)"><g><path d="M 4.378906 0.207031 C 5.367188 0.207031 6.402344 -0.101562 7.144531 -0.640625 L 6.667969 -1.835938 C 6.007812 -1.363281 5.304688 -1.113281 4.5625 -1.113281 C 3.015625 -1.113281 2.355469 -2.269531 2.355469 -4.996094 C 2.355469 -7.742188 2.953125 -8.753906 4.582031 -8.753906 C 5.285156 -8.753906 5.925781 -8.546875 6.460938 -8.15625 L 7.019531 -9.292969 C 6.339844 -9.785156 5.429688 -10.074219 4.5 -10.074219 C 1.980469 -10.074219 0.824219 -8.464844 0.824219 -4.933594 C 0.824219 -1.527344 2.003906 0.207031 4.378906 0.207031 Z M 4.378906 0.207031 "/></g></g></g><g fill="#eb9018" fill-opacity="1"><g transform="translate(357.884894, 160.422204)"><g><path d="M 4.398438 -10.074219 C 2.023438 -10.074219 0.824219 -8.320312 0.824219 -4.933594 C 0.824219 -1.507812 1.960938 0.207031 4.378906 0.207031 C 5.449219 0.207031 6.566406 -0.125 7.328125 -0.660156 L 6.855469 -1.898438 C 6.214844 -1.425781 5.367188 -1.113281 4.605469 -1.113281 C 3.097656 -1.113281 2.4375 -2.085938 2.332031 -4.378906 L 7.597656 -4.378906 C 7.617188 -4.769531 7.640625 -5.121094 7.640625 -5.492188 C 7.640625 -8.238281 6.917969 -10.074219 4.398438 -10.074219 Z M 4.417969 -8.773438 C 5.882812 -8.773438 6.234375 -7.472656 6.171875 -5.554688 L 2.332031 -5.554688 C 2.4375 -7.785156 3.035156 -8.773438 4.417969 -8.773438 Z M 4.417969 -8.773438 "/></g></g></g><g fill="#eb9018" fill-opacity="1"><g transform="translate(366.346268, 160.422204)"><g><path d="M 3.28125 0.207031 C 5.222656 0.207031 6.441406 -0.910156 6.441406 -2.703125 C 6.441406 -4.542969 5.121094 -5.222656 3.964844 -5.824219 C 3.035156 -6.296875 2.210938 -6.730469 2.210938 -7.617188 C 2.210938 -8.339844 2.683594 -8.753906 3.59375 -8.753906 C 4.234375 -8.753906 4.914062 -8.546875 5.535156 -8.175781 L 6.089844 -9.292969 C 5.328125 -9.808594 4.355469 -10.074219 3.425781 -10.074219 C 1.609375 -10.074219 0.679688 -9.105469 0.679688 -7.617188 C 0.679688 -5.90625 1.898438 -5.285156 3.035156 -4.75 C 4.003906 -4.273438 4.933594 -3.820312 4.933594 -2.664062 C 4.933594 -1.691406 4.253906 -1.09375 3.242188 -1.09375 C 2.5 -1.09375 1.652344 -1.402344 0.929688 -1.921875 L 0.414062 -0.742188 C 1.300781 -0.0820312 2.269531 0.207031 3.28125 0.207031 Z M 3.28125 0.207031 "/></g></g></g><g fill="#eb9018" fill-opacity="1"><g transform="translate(373.466209, 160.422204)"><g><path d="M 3.28125 0.207031 C 5.222656 0.207031 6.441406 -0.910156 6.441406 -2.703125 C 6.441406 -4.542969 5.121094 -5.222656 3.964844 -5.824219 C 3.035156 -6.296875 2.210938 -6.730469 2.210938 -7.617188 C 2.210938 -8.339844 2.683594 -8.753906 3.59375 -8.753906 C 4.234375 -8.753906 4.914062 -8.546875 5.535156 -8.175781 L 6.089844 -9.292969 C 5.328125 -9.808594 4.355469 -10.074219 3.425781 -10.074219 C 1.609375 -10.074219 0.679688 -9.105469 0.679688 -7.617188 C 0.679688 -5.90625 1.898438 -5.285156 3.035156 -4.75 C 4.003906 -4.273438 4.933594 -3.820312 4.933594 -2.664062 C 4.933594 -1.691406 4.253906 -1.09375 3.242188 -1.09375 C 2.5 -1.09375 1.652344 -1.402344 0.929688 -1.921875 L 0.414062 -0.742188 C 1.300781 -0.0820312 2.269531 0.207031 3.28125 0.207031 Z M 3.28125 0.207031 "/></g></g></g></svg>