<svg xmlns="http://www.w3.org/2000/svg" version="1.1" xmlns:xlink="http://www.w3.org/1999/xlink" xmlns:svgjs="http://svgjs.dev/svgjs" width="1000" height="623" viewBox="0 0 1000 623"><g transform="matrix(1,0,0,1,-0.6060606060606233,0.2522267206477409)"><svg viewBox="0 0 396 247" data-background-color="#f3f0ec" preserveAspectRatio="xMidYMid meet" height="623" width="1000" xmlns="http://www.w3.org/2000/svg" xmlns:xlink="http://www.w3.org/1999/xlink"><g id="tight-bounds" transform="matrix(1,0,0,1,0.2400000000000091,-0.09999999999999432)"><svg viewBox="0 0 395.52 247.2" height="247.2" width="395.52"><g><svg></svg></g><g><svg viewBox="0 0 395.52 247.2" height="247.2" width="395.52"><g transform="matrix(1,0,0,1,75.54432,83.43485142698191)"><svg viewBox="0 0 244.43135999999998 80.33029714603619" height="80.33029714603619" width="244.43135999999998"><g><svg viewBox="0 0 364.05572678756806 119.64383256944409" height="80.33029714603619" width="244.43135999999998"><g transform="matrix(1,0,0,1,119.62436678756806,36.97168088184884)"><svg viewBox="0 0 244.43136 45.700470805746406" height="45.700470805746406" width="244.43136"><g><svg viewBox="0 0 244.43136 45.700470805746406" height="45.700470805746406" width="244.43136"><g><svg viewBox="0 0 244.43136 45.700470805746406" height="45.700470805746406" width="244.43136"><g transform="matrix(1,0,0,1,0,0)"><svg width="244.43136" viewBox="1.600000023841858 -44.400001525878906 240.12998962402344 44.900001525878906" height="45.700470805746406" data-palette-color="#d14015"><path d="M1.9 0Q1.6 0 1.6-0.45L1.6-0.45Q1.6-0.95 1.9-1.55 2.2-2.15 2.65-2.55L2.65-2.55Q3.9-3.55 4.33-4.03 4.75-4.5 5-5.15 5.25-5.8 5.6-7.45L5.6-7.45 10.75-31.5 10.4-31.5Q10.1-31.5 9.1-31.6L9.1-31.6Q7.3-31.75 7.15-31.75L7.15-31.75Q4.35-31.75 2.9-29.9L2.9-29.9Q2.8-29.75 2.55-29.38 2.3-29 2.1-29L2.1-29Q1.85-29 1.85-29.45L1.85-29.45Q1.85-29.95 2-30.3L2-30.3Q2.5-32.4 4.15-33.55 5.8-34.7 8.2-34.7L8.2-34.7 9.85-34.65Q11.25-34.55 12.1-34.55L12.1-34.55Q12.9-34.55 13.9-34.65L13.9-34.65 15.2-34.7Q15-34.05 15-32.8L15-32.8Q15-31.15 15.48-28.63 15.95-26.1 16.95-21.7L16.95-21.7 18.5-14.45Q18.6-14 19.15-10.8L19.15-10.8Q21.25-14.95 24.73-21.83 28.2-28.7 30.4-33L30.4-33Q32.3-36.6 33.93-38.68 35.55-40.75 37.3-41.95L37.3-41.95Q38.75-42.9 40.25-43.33 41.75-43.75 43.95-43.9L43.95-43.9Q45.65-44 46.15-44.2L46.15-44.2Q46.25-44.25 46.38-44.33 46.5-44.4 46.6-44.4L46.6-44.4Q46.85-44.4 46.85-44L46.85-44Q46.85-42.3 43.75-41.8L43.75-41.8Q43.55-41.75 42.5-41.6 41.45-41.45 40.43-41.08 39.4-40.7 38.65-40.1L38.65-40.1Q37-38.8 35.8-35.83 34.6-32.85 33.85-27.4L33.85-27.4Q33.5-25.2 33-19.5L33-19.5Q32.4-12 31.35-5.5L31.35-5.5Q31.2-4.3 30.4-3.4L30.4-3.4 30.4-3.35Q31.65-2.9 32.5-2.9L32.5-2.9Q33.2-2.9 33.95-3.18 34.7-3.45 34.85-3.45L34.85-3.45Q35.1-3.45 35.1-3.15L35.1-3.15Q35.1-2.75 34.45-2.05L34.45-2.05Q32.7 0 31.45 0L31.45 0Q31.05 0 29.55-0.4L29.55-0.4Q27.75-0.85 27.2-0.85L27.2-0.85Q26.3-0.85 25.33-0.43 24.35 0 24.25 0L24.25 0Q23.95 0 23.95-0.45L23.95-0.45Q23.95-0.9 24.25-1.48 24.55-2.05 25.15-2.55L25.15-2.55Q26.6-3.6 27.03-4.15 27.45-4.7 27.6-5.65L27.6-5.65 27.85-7.9Q28.4-12.9 28.93-17.6 29.45-22.3 29.9-26.4L29.9-26.4 29.8-26.4Q22.1-12.75 19.9-6.8L19.9-6.8Q19.15-5.2 18.15-3.65 17.15-2.1 16.7-2.1L16.7-2.1Q16.3-2.1 16.3-2.6L16.3-2.6Q16.15-5.65 15.83-7.88 15.5-10.1 14.5-14.95L14.5-14.95Q13.7-18.95 13.7-18.95L13.7-18.95Q12.75-23.15 12.35-25.65L12.35-25.65 12.3-25.65 8.1-5.5Q7.95-4.25 7.2-3.4L7.2-3.4 7.2-3.35Q8.55-2.9 9.2-2.9L9.2-2.9Q9.8-2.9 10.35-3.18 10.9-3.45 11.05-3.45L11.05-3.45Q11.3-3.45 11.3-3.15L11.3-3.15Q11.3-2.7 10.65-2.05L10.65-2.05Q8.75 0 7.65 0L7.65 0Q7.2 0 6.2-0.4L6.2-0.4Q6.05-0.45 5.48-0.65 4.9-0.85 4.35-0.85L4.35-0.85Q3.55-0.85 2.8-0.43 2.05 0 1.9 0L1.9 0ZM43.05 0.5Q40.8 0.5 39.47-1.23 38.15-2.95 38.15-6L38.15-6Q38.15-9.7 39.92-13.93 41.7-18.15 44.5-20.98 47.3-23.8 50.15-23.8L50.15-23.8Q52.75-23.8 52.75-20.65L52.75-20.65Q52.75-18.1 51.25-15.65 49.75-13.2 47.22-11.33 44.7-9.45 41.7-8.45L41.7-8.45Q41.7-5.75 42.57-4.55 43.45-3.35 45.15-3.35L45.15-3.35Q46.95-3.35 48.45-4.5 49.95-5.65 51-7.65L51-7.65Q51.15-7.95 51.3-8.15 51.45-8.35 51.7-8.35L51.7-8.35Q52.1-8.35 52.1-7.75L52.1-7.75Q52.1-6.4 50.75-4.4 49.4-2.4 47.3-0.95 45.2 0.5 43.05 0.5L43.05 0.5ZM43.3-11.1Q44.6-11.1 46.07-12.03 47.55-12.95 48.55-14.55 49.55-16.15 49.55-18.15L49.55-18.15Q49.55-20.5 47.9-20.5L47.9-20.5Q46.55-20.5 45.32-19.05 44.1-17.6 43.27-15.45 42.45-13.3 42.15-11.3L42.15-11.3Q42.45-11.1 43.3-11.1L43.3-11.1ZM57.4 0.5Q56.95 0.5 56.95 0.2L56.95 0.2Q56.95 0 57.17-0.68 57.4-1.35 57.8-3L57.8-3Q58.8-7.15 60.2-16.85L60.2-16.85Q60.5-18.75 60.5-19.5L60.5-19.5Q60.5-20.15 60.2-20.15L60.2-20.15Q59.35-20.15 57.65-17.15L57.65-17.15Q57.4-16.7 57.2-16.38 57-16.05 56.87-15.9 56.75-15.75 56.6-15.75L56.6-15.75Q56.2-15.75 56.2-16.25L56.2-16.25Q56.2-17.25 57.3-19.1 58.4-20.95 59.9-22.38 61.4-23.8 62.6-23.8L62.6-23.8Q63.4-23.8 63.75-23.1 64.1-22.4 64.1-21.35L64.1-21.35Q64.1-19.7 63.3-14.9L63.3-14.9 63.35-14.9Q65.65-18.95 68.4-21.38 71.15-23.8 73.15-23.8L73.15-23.8Q75.25-23.8 75.25-20.85L75.25-20.85Q75.25-19.75 74.8-17.15L74.8-17.15 73.65-11.15Q72.4-4.8 72.4-3.95L72.4-3.95Q72.4-3.6 72.57-3.33 72.75-3.05 73.15-3.05L73.15-3.05Q74.5-3.05 76.25-7.15L76.25-7.15Q76.4-7.7 76.75-7.7L76.75-7.7Q77.05-7.7 77.05-7.1L77.05-7.1Q77.05-6.65 77-6.3L77-6.3Q76.65-4.5 75.55-2.93 74.45-1.35 73.1-0.43 71.75 0.5 70.65 0.5L70.65 0.5Q69.6 0.5 69.22-0.38 68.85-1.25 68.85-2.3L68.85-2.3Q68.85-4.55 70.1-10.4L70.1-10.4Q71.3-16.1 71.4-18.3L71.4-18.3Q71.45-19.2 71.27-19.58 71.1-19.95 70.45-19.95L70.45-19.95Q68.9-19.95 67.12-17.9 65.35-15.85 63.95-12.88 62.55-9.9 62.1-7.45L62.1-7.45 61.3-3.1Q61-1.8 59.7-0.65 58.4 0.5 57.4 0.5L57.4 0.5ZM85.19 0.5Q83.69 0.5 83.09-0.53 82.49-1.55 82.49-3.3L82.49-3.3Q82.49-4.6 82.72-6.08 82.94-7.55 82.99-7.85L82.99-7.85 85.04-20.7 79.99-20.7Q79.74-20.7 79.74-20.95L79.74-20.95Q79.74-21.45 80.84-22.38 81.94-23.3 82.44-23.3L82.44-23.3 85.44-23.3 85.94-26.4Q86.14-28.05 87.49-29.35 88.84-30.65 90.19-30.65L90.19-30.65Q90.44-30.65 90.44-30.4L90.44-30.4Q90.44-30.2 89.99-29.23 89.54-28.25 89.34-27.15L89.34-27.15 88.74-23.3 93.64-23.3Q93.94-23.3 93.94-23L93.94-23Q93.94-22.6 92.77-21.65 91.59-20.7 91.24-20.7L91.24-20.7 88.44-20.7 86.39-7.95Q86.34-7.6 86.12-6.25 85.89-4.9 85.89-4.15L85.89-4.15Q85.89-2.5 86.99-2.5L86.99-2.5Q87.79-2.5 88.69-3.28 89.59-4.05 90.29-5.45L90.29-5.45Q90.34-5.55 90.42-5.65 90.49-5.75 90.59-5.75L90.59-5.75Q90.84-5.75 90.84-5.1L90.84-5.1Q90.84-4.1 89.97-2.75 89.09-1.4 87.77-0.45 86.44 0.5 85.19 0.5L85.19 0.5ZM98.59 0.5Q96.49 0.5 95.42-1.13 94.34-2.75 94.34-5.65L94.34-5.65Q94.34-9.7 96.29-13.95 98.24-18.2 101.12-21 103.99-23.8 106.59-23.8L106.59-23.8Q108.54-23.8 109.59-22.08 110.64-20.35 110.64-17.55L110.64-17.55Q110.64-13.8 108.82-9.55 106.99-5.3 104.19-2.4 101.39 0.5 98.59 0.5L98.59 0.5ZM101.04-2.8Q102.69-2.8 104.04-4.48 105.39-6.15 106.19-8.93 106.99-11.7 106.99-14.8L106.99-14.8Q106.99-20.5 104.04-20.5L104.04-20.5Q102.19-20.5 100.82-18.5 99.44-16.5 98.72-13.63 97.99-10.75 97.99-8.25L97.99-8.25Q97.99-5.85 98.72-4.33 99.44-2.8 101.04-2.8L101.04-2.8ZM115.14 0.5Q114.94 0.5 114.81 0.43 114.69 0.35 114.69 0.25L114.69 0.25Q114.69 0.1 114.99-0.4 115.29-0.9 115.44-1.8L115.44-1.8Q115.64-2.85 115.79-3.73 115.94-4.6 116.09-5.35L116.09-5.35Q117.34-12.2 117.76-14.93 118.19-17.65 118.14-18.9L118.14-18.9Q118.14-19.55 118.04-19.85 117.94-20.15 117.59-20.15L117.59-20.15Q117.14-20.15 116.44-19.4 115.74-18.65 115.14-17.65L115.14-17.65Q114.89-17.2 114.69-16.88 114.49-16.55 114.36-16.4 114.24-16.25 114.09-16.25L114.09-16.25Q113.89-16.25 113.79-16.4 113.69-16.55 113.69-16.8L113.69-16.8Q113.69-17.75 114.76-19.45 115.84-21.15 117.31-22.48 118.79-23.8 119.94-23.8L119.94-23.8Q120.89-23.8 121.26-23.05 121.64-22.3 121.64-20.7L121.64-20.7Q121.64-18.5 120.69-14.75L120.69-14.75 120.79-14.75Q125.54-23.8 129.59-23.8L129.59-23.8Q130.64-23.8 131.21-23.23 131.79-22.65 131.79-21.6L131.79-21.6Q131.79-20.5 131.31-19.35 130.84-18.2 130.16-17.45 129.49-16.7 128.94-16.7L128.94-16.7Q128.59-16.7 128.69-17.15L128.69-17.15Q128.84-17.85 128.84-18.25L128.84-18.25Q128.84-19.45 127.54-19.45L127.54-19.45Q125.99-19.45 124.44-17.65 122.89-15.85 121.71-13.25 120.54-10.65 120.09-8.5L120.09-8.5Q119.49-6.2 119.34-3.7L119.34-3.7Q119.24-2.75 118.46-1.78 117.69-0.8 116.69-0.15 115.69 0.5 115.14 0.5L115.14 0.5ZM152.03 0Q151.78 0 151.78-0.55L151.78-0.55Q151.78-1 152.01-1.43 152.23-1.85 152.88-2.55L152.88-2.55Q153.23-2.9 153.93-3.5 154.63-4.1 154.98-5.18 155.33-6.25 155.83-8.8L155.83-8.8 156.53-12.75Q156.83-14.25 156.83-16.5L156.83-16.5Q156.83-19.75 156.26-23.25 155.68-26.75 154.58-29.1 153.48-31.45 151.98-31.45L151.98-31.45Q150.53-31.45 149.38-29.4L149.38-29.4Q149.08-28.9 148.91-28.65 148.73-28.4 148.53-28.4L148.53-28.4Q148.18-28.4 148.18-29.1L148.18-29.1Q148.18-30.6 148.83-32 149.48-33.4 150.61-34.3 151.73-35.2 153.08-35.2L153.08-35.2Q156.33-35.2 157.96-30.38 159.58-25.55 160.08-19.2L160.08-19.2 160.13-19.2Q161.48-23.05 163.51-26.73 165.53-30.4 167.98-32.8 170.43-35.2 172.78-35.2L172.78-35.2Q173.93-35.2 174.73-34.75 175.53-34.3 175.53-33.85L175.53-33.85Q175.53-33.5 174.88-32.45 174.23-31.4 173.51-30.48 172.78-29.55 172.68-29.65L172.68-29.65Q171.93-30.45 171.08-30.45L171.08-30.45Q168.98-30.45 166.73-27.68 164.48-24.9 162.76-20.88 161.03-16.85 160.38-13.5L160.38-13.5 158.93-5.5Q158.63-4.2 157.83-3.4L157.83-3.4 157.83-3.35Q157.93-3.3 158.56-3.1 159.18-2.9 159.83-2.9L159.83-2.9Q160.48-2.9 161.11-3.18 161.73-3.45 161.88-3.45L161.88-3.45Q162.18-3.45 162.18-3.15L162.18-3.15Q162.18-2.7 161.58-2.05L161.58-2.05Q159.78 0 158.28 0L158.28 0Q157.83 0 156.63-0.4L156.63-0.4Q155.18-0.85 154.58-0.85L154.58-0.85Q153.68-0.85 152.93-0.43 152.18 0 152.03 0L152.03 0ZM172.58 0.5Q170.03 0.5 170.03-4.35L170.03-4.35Q170.03-9 172.06-13.53 174.08-18.05 177.53-20.93 180.98-23.8 184.98-23.8L184.98-23.8Q187.03-23.8 188.53-23.15L188.53-23.15Q187.88-20.6 187.63-19.4L187.63-19.4 186.58-14Q185.18-7.6 184.88-5.15L184.88-5.15Q184.83-4.8 184.83-4.3L184.83-4.3Q184.83-3.2 185.48-3.2L185.48-3.2Q186.28-3.2 186.98-4.23 187.68-5.25 188.58-7.15L188.58-7.15Q188.63-7.2 188.76-7.45 188.88-7.7 189.08-7.7L189.08-7.7Q189.38-7.7 189.38-7.1L189.38-7.1 189.28-6.3Q188.93-4.65 187.86-3.05 186.78-1.45 185.46-0.48 184.13 0.5 183.08 0.5L183.08 0.5Q181.33 0.5 181.33-2.35L181.33-2.35Q181.33-3.45 181.58-4.6L181.58-4.6 182.43-8.95 182.38-8.95Q179.98-4.75 177.26-2.13 174.53 0.5 172.58 0.5L172.58 0.5ZM174.93-3.6Q176.33-3.6 178.16-5.78 179.98-7.95 181.56-11.1 183.13-14.25 183.73-16.75L183.73-16.75 184.53-19.95Q183.03-20.95 181.38-20.95L181.38-20.95Q179.23-20.95 177.46-18.48 175.68-16 174.68-12.48 173.68-8.95 173.68-6.1L173.68-6.1Q173.68-4.85 173.96-4.23 174.23-3.6 174.93-3.6L174.93-3.6ZM194.23 0.5Q194.03 0.5 193.9 0.43 193.78 0.35 193.78 0.25L193.78 0.25Q193.78 0.1 194.08-0.4 194.38-0.9 194.53-1.8L194.53-1.8Q194.73-2.85 194.88-3.73 195.03-4.6 195.18-5.35L195.18-5.35Q196.43-12.2 196.85-14.93 197.28-17.65 197.23-18.9L197.23-18.9Q197.23-19.55 197.13-19.85 197.03-20.15 196.68-20.15L196.68-20.15Q196.23-20.15 195.53-19.4 194.83-18.65 194.23-17.65L194.23-17.65Q193.98-17.2 193.78-16.88 193.58-16.55 193.45-16.4 193.33-16.25 193.18-16.25L193.18-16.25Q192.98-16.25 192.88-16.4 192.78-16.55 192.78-16.8L192.78-16.8Q192.78-17.75 193.85-19.45 194.93-21.15 196.4-22.48 197.88-23.8 199.03-23.8L199.03-23.8Q199.98-23.8 200.35-23.05 200.73-22.3 200.73-20.7L200.73-20.7Q200.73-18.5 199.78-14.75L199.78-14.75 199.88-14.75Q204.63-23.8 208.68-23.8L208.68-23.8Q209.73-23.8 210.3-23.23 210.88-22.65 210.88-21.6L210.88-21.6Q210.88-20.5 210.4-19.35 209.93-18.2 209.25-17.45 208.58-16.7 208.03-16.7L208.03-16.7Q207.68-16.7 207.78-17.15L207.78-17.15Q207.93-17.85 207.93-18.25L207.93-18.25Q207.93-19.45 206.63-19.45L206.63-19.45Q205.08-19.45 203.53-17.65 201.98-15.85 200.8-13.25 199.63-10.65 199.18-8.5L199.18-8.5Q198.58-6.2 198.43-3.7L198.43-3.7Q198.33-2.75 197.55-1.78 196.78-0.8 195.78-0.15 194.78 0.5 194.23 0.5L194.23 0.5ZM213.33 0.5Q210.78 0.5 210.78-4.4L210.78-4.4Q210.78-8.95 212.78-13.48 214.78-18 218.18-20.9 221.58-23.8 225.48-23.8L225.48-23.8 225.98-23.8Q227.63-30.7 229.08-34.2 230.53-37.7 232.93-40L232.93-40Q234.53-41.5 235.83-42.05 237.13-42.6 239.38-43.05L239.38-43.05Q240.38-43.25 240.8-43.43 241.23-43.6 241.38-43.6L241.38-43.6Q241.73-43.6 241.73-43.2L241.73-43.2Q241.73-42.55 240.78-41.75L240.78-41.75Q240.28-41.3 239.85-41.15 239.43-41 239.03-40.95 238.63-40.9 238.43-40.85L238.43-40.85Q235.83-40.5 234.03-38.25L234.03-38.25Q232.68-36.5 231.65-33.25 230.63-30 228.88-21.9L228.88-21.9Q225.98-7.9 225.63-5.15L225.63-5.15Q225.58-4.8 225.58-4.3L225.58-4.3Q225.58-3.2 226.23-3.2L226.23-3.2Q227.03-3.2 227.75-4.28 228.48-5.35 229.28-7.15L229.28-7.15Q229.58-7.7 229.83-7.7L229.83-7.7Q230.13-7.7 230.13-7.15L230.13-7.15 230.03-6.3Q229.63-4.55 228.55-2.98 227.48-1.4 226.15-0.45 224.83 0.5 223.73 0.5L223.73 0.5Q222.13 0.5 222.13-2.15L222.13-2.15Q222.13-3.15 222.33-4.55L222.33-4.55 223.18-8.95 223.13-8.95Q221.28-5.75 218.43-2.63 215.58 0.5 213.33 0.5L213.33 0.5ZM215.68-3.6Q217.08-3.6 218.9-5.78 220.73-7.95 222.3-11.1 223.88-14.25 224.48-16.75L224.48-16.75 225.28-19.95Q223.78-20.95 222.13-20.95L222.13-20.95Q219.98-20.95 218.2-18.48 216.43-16 215.43-12.48 214.43-8.95 214.43-6.1L214.43-6.1Q214.43-4.85 214.7-4.23 214.98-3.6 215.68-3.6L215.68-3.6Z" opacity="1" transform="matrix(1,0,0,1,0,0)" fill="#d14015" class="undefined-text-0" data-fill-palette-color="primary" id="text-0"></path></svg></g></svg></g></svg></g></svg></g><g><svg viewBox="0 0 108.83558244163068 119.64383256944409" height="119.64383256944409" width="108.83558244163068"><g><svg xmlns="http://www.w3.org/2000/svg" data-name="Layer 1" viewBox="5.289999961853027 1 89.42000579833984 98.30013275146484" x="0" y="0" height="119.64383256944409" width="108.83558244163068" class="icon-icon-0" data-fill-palette-color="accent" id="icon-0"><path d="M5.29 60.28V6.63A5.63 5.63 0 0 1 10.92 1H67a15.33 15.33 0 0 0-2.05 18.58 10.15 10.15 0 0 0-2.48 1.5l-6.3 5.2L50 21.41a10.18 10.18 0 1 0-12.46 16.1L50 47.35a10.18 10.18 0 0 0 11.53 0.73V65.91H10.92A5.63 5.63 0 0 1 5.29 60.28ZM78.14 21.13a9.5 9.5 0 1 0-9.5-9.5A9.5 9.5 0 0 0 78.14 21.13ZM84.3 99a4.51 4.51 0 0 0 4.51-4.51v-37a7.32 7.32 0 0 0 5.9-7.18V32a7.32 7.32 0 0 0-7.32-7.32H68.93a4.23 4.23 0 0 0-2.7 1l-10 8.25L46.3 26.07A4.25 4.25 0 0 0 40 27.19a4.37 4.37 0 0 0 1.13 5.65l12.49 9.84A4.25 4.25 0 0 0 59 42.63l8.46-7V94.49a4.51 4.51 0 1 0 9 0V68.12a1.65 1.65 0 0 1 1.93-1.63 1.71 1.71 0 0 1 1.37 1.72V94.49A4.51 4.51 0 0 0 84.3 99Z" fill="#111355" data-fill-palette-color="accent"></path></svg></g></svg></g></svg></g></svg></g><g><path d="M0 123.6c0-68.262 55.338-123.6 123.6-123.6 52.844 0 97.943 33.163 115.62 79.813h-1.481c-17.608-45.87-62.071-78.429-114.139-78.429-67.498 0-122.216 54.718-122.216 122.216 0 67.498 54.718 122.216 122.216 122.216 52.068 0 96.531-32.56 114.139-78.429h1.481c-17.676 46.65-62.775 79.813-115.62 79.813-68.262 0-123.6-55.338-123.6-123.6z" fill="#d14015" stroke="transparent" data-fill-palette-color="tertiary"></path></g></svg></g><defs><mask id="3348dafe-4e98-4ce0-87b5-45b2d80f1e8c"><rect width="640" height="400" fill="white"></rect><rect width="348.05760000000004" height="87.09131326552904" fill="black" x="145.97119999999998" y="156.45434336723548" id="transform-me" transform="matrix(1,0,0,1,-122.24000000000001,-76.4)"></rect></mask></defs></svg><rect width="395.52" height="247.2" fill="none" stroke="none" visibility="hidden"></rect></g></svg></g></svg>