<svg xmlns="http://www.w3.org/2000/svg" version="1.1" xmlns:xlink="http://www.w3.org/1999/xlink" xmlns:svgjs="http://svgjs.dev/svgjs" width="1000" height="1125" viewBox="0 0 1000 1125"><g transform="matrix(1,0,0,1,0,0)"><svg viewBox="0 0 320 360" data-background-color="#ffffff" preserveAspectRatio="xMidYMid meet" height="1125" width="1000" xmlns="http://www.w3.org/2000/svg" xmlns:xlink="http://www.w3.org/1999/xlink"><g id="tight-bounds" transform="matrix(1,0,0,1,0,0)"><svg viewBox="0 0 320 360" height="360" width="320"><g><svg></svg></g><g><svg viewBox="0 0 320 360" height="360" width="320"><g><path xmlns="http://www.w3.org/2000/svg" d="M165.217 303.356c-1.404-1.755-2.809-0.702-2.808-1.755-8.426 2.106-24.223-3.511-30.894-2.809 1.404-2.106-2.106-1.755-2.106-3.159-1.404 2.106-2.809 0-4.915 0.702-2.106-5.266-10.532-1.404-11.585-8.075-4.915 0-6.67-2.809-11.586-5.617 0.351-0.351 0.702-0.351 1.054-0.702-2.457-0.351-2.457-1.755-4.564-1.755l0.702-1.405c-3.862-0.702-5.266-6.67-10.883-8.776-1.755-0.351-5.617-6.319-7.723-7.724-1.053-0.702-2.809-0.702-0.352-1.053-0.351-0.351-0.351-1.053 0-1.404-2.457-0.702-2.809-2.809-5.968-3.862-0.351-1.053 0.702-1.755 0-2.457-0.702-0.351-1.755 0.351-2.457 0-0.351 6.319 6.67 7.021 8.777 12.287-0.702-0.702-1.755-2.809-2.458-1.404-0.351 1.053 2.809 4.915 2.809 2.808-1.053 0.702-1.404-1.053-0.703-1.404 1.053 1.755 3.16 1.404 3.16 2.809-1.053 1.053-2.457-1.053-2.106 0.702 3.16 1.755 2.809 3.511 4.563 5.968-1.404-1.755-1.755 1.404-3.159 0-0.351-5.266-6.319-4.213-6.319-9.479-0.702-1.755-1.404-0.351-2.458-1.053 1.404-1.404-4.213-6.319-4.213-4.564-1.755-2.106-0.702-2.809-1.053-4.213-1.404-0.351-0.351 1.404-1.404 0.351 1.404-2.457-1.755-5.617-3.862-8.074l1.405-0.702c-2.457-1.404-2.809-4.213-4.564-7.373-2.106 3.16 4.213 10.181 3.159 11.585 0 0.351 2.457 3.16 3.16 4.564 2.809 4.915 4.915 10.883 8.777 13.692-0.702-0.351-0.351-2.457 0.702-1.404 0 1.053-0.702 2.106-0.702 3.159 2.106 2.106 3.862 3.862 5.968 5.968-4.564-2.809-9.128-5.617-12.288-9.83 1.755-0.351 3.511 2.809 4.915 2.458-3.511-2.809-2.457-3.862-3.861-7.372-1.404-1.053 0.351 1.404-1.054 1.755-4.564-4.213-8.075-6.67-10.181-10.532 0.351-0.351 0.702-0.702 0.703-1.404-0.351-0.351-0.351-0.351-0.703-0.702 2.106 2.106 2.809 3.862 5.266 4.212-1.053-1.053 0-1.404-1.404-2.457-0.702-1.404-1.755 0.702-2.457-0.351 0.702-1.053 0-2.457 0-3.511-0.702 0-1.404 0-1.756-1.053-0.702-0.351-1.053 0-1.404 0.702-0.351-0.351-0.351-1.053-0.702-1.404v-0.351c-0.351-0.351-0.702-1.053-1.053-1.405-2.809-7.372-4.564-17.202-8.426-23.521 1.053-4.213-0.702-12.638-1.755-14.745 1.053-1.755 0.351-9.83-0.351-11.234-1.755 0.702 0.351 4.564-1.404 5.617-1.755-7.723 1.053-16.5 0.351-23.521 0.702 0 1.404 0 1.404-0.351-1.053-1.053 0.702-3.16 0.351-5.617 1.404-3.16-3.16 4.564-3.16 7.723-0.351 0.702-1.755 0-1.404 1.756 0 2.457 0.702 7.372-0.702 10.883-0.702 0-0.702-0.702-1.404-0.351-0.351 1.755-0.702 3.862-1.053 5.617-0.351-0.702-0.702-1.755-0.703-2.107-1.755-8.777 0-18.958-0.702-26.33 1.404 0 1.404-2.106 2.458-2.808-0.351 2.809-1.053 6.319 0.702 7.021 1.404-13.692 4.213-28.787 10.532-43.532 4.564-10.883 11.234-21.766 19.308-30.543 0.702 1.053-0.351 3.511 0 4.564 7.021-7.372 11.585-16.149 19.309-21.064 0.351 1.755-3.16 3.16-3.16 4.564 3.16-3.16 4.213-2.106 7.724-3.159 1.053-1.404-1.404 0-1.756-1.405 2.106-1.404 3.511-3.16 4.915-4.212 0 0.351-0.351 0.351-0.351 0.702 3.862-1.053 4.213-3.16 7.022-3.862-0.351-0.351-1.053-0.702-2.107-0.351 0.702-0.351 1.755-1.053 2.809-1.404-0.351 0-0.351 0.351-0.702 0.351 2.106-1.053 0.351 0.351 0.351 1.053 0.351 0 0.702-0.351 0.702-0.351-2.106 1.404-3.511 2.106-4.213 4.564 1.053-0.702 1.404 0 2.809-1.054 1.404-0.702-0.351-1.755 0.702-2.457 1.053 0.702 2.457 0.351 3.51 0.351 0-0.702 0.351-1.404 1.054-1.755 0.351-0.702 0-1.053-0.352-1.053 0.351-0.351 0.702-0.351 1.405-0.703 0 0 0.351 0 0.351 0.351 5.968-2.809 12.638-5.266 18.957-7.372 3.862-0.351 8.777-0.351 10.883-2.808-0.702 0-1.404 0.351-1.755 0 0.351 0 1.053-0.351 1.404-0.351 0.702 0.702 1.755 0 0.702 1.404 0.351 0 0.351 0 0.703-0.351 0 0.351 0 0.351 0.351 0.702 0.351 0 0.702-0.351 1.053-1.053 0.351 0 0.702 0 1.053-0.351l-0.351 0.351c2.809-0.702 5.266-0.351 9.128-1.054 0-0.351 0-0.702 0-1.053 0.702 0 1.053-0.351 1.755-0.351v0.351c1.404-0.702 2.809 0.702 2.808 0 0.351 0 0.351 0 0.703 0 0 0.702-0.351 1.053-0.351 1.405 1.755 0 2.809 0 3.51-1.054-0.351-0.351-0.702-0.351-1.053-0.351 0.702 0 1.404-0.351 2.106-0.702 1.053 0.351 1.404 0.702 1.405 2.107 1.755-3.16 7.372 0.702 9.829 0 1.053 0 0.702-1.404 1.405-2.107 0.351 0 0.702 0 1.053 0 1.755 1.404 4.213 2.809 7.372 3.16-2.809-0.702 0.351-1.053 0.702-1.405-0.702 0-0.702-0.351-0.702-0.702 1.053 0 2.106 0.351 3.16 0.351 0 0.702 0.351 1.053 1.053 1.054 0.702 0 0.702-0.351 0.702-1.054 1.053 0 1.755 0 2.809 0.351-0.351 1.404 1.755 1.755 2.457 2.809-2.809-0.702-5.968-1.755-7.021 0 11.234 2.457 23.521 5.968 35.457 11.936 0 0 0 0 0 0.351h0.352c2.106 1.053 4.213 2.106 6.319 3.16 1.404 0.702 2.457 1.404 3.861 2.457 0 0.351 0 0.702 0.703 0.702h0.351c1.404 1.053 2.809 1.755 4.212 2.809 1.404 2.106 2.809 4.915 5.266 4.213 5.266 8.075 10.883 11.234 15.447 19.659 0.351-1.404 1.404 3.16 3.16 3.511-2.809-0.351 1.755 1.755-1.053 1.404 2.457 2.457 3.16 3.511 3.51 6.319-0.702-1.404-1.053-1.755-1.404-0.351-0.351 2.106 2.457-0.351 3.511 1.756-2.106 0-1.404 1.404-1.054 3.159 1.053-1.053 0.702-2.106 1.756-1.755 1.404 1.404-0.702 1.755-0.351 2.809 1.053-1.404 1.404-0.702 2.808 0-1.755 0.351 1.053 2.809-1.053 1.755 1.404 1.755 1.755 2.809 1.053 4.564-1.404-2.106-0.351-3.511-2.457-3.16 4.213 3.511 2.106 11.585 7.021 12.287-3.16 0.702 0 2.106-1.755 2.458 2.106 0.702 1.053 3.511 3.51 4.213-0.351 1.755-1.053 2.809-1.404 4.563 1.053 1.404 1.404 4.213 3.16 4.564-1.053 1.053-0.351 3.862-1.404 4.915 1.404-0.702 2.106-0.702 3.159 0.702-1.755 1.404-0.351 2.809-1.404 3.16 3.16 8.075-0.702 24.575 1.053 30.894-2.106-1.053-1.404 2.457-2.808 2.457 2.457 1.053 0.351 2.809 1.404 4.564-4.915 2.809 0 10.532-6.67 12.287 0.702 4.915-2.106 7.021-4.213 12.288-0.351-0.351-0.351-0.702-0.702-1.054-0.351 2.457-1.755 2.809-1.054 4.915l-1.404-0.702c0 3.862-5.968 5.968-7.372 11.936-0.351 1.755-5.617 6.319-7.022 8.777-0.702 1.053-0.351 2.809-1.053 0.351-0.351 0.351-1.053 0.351-1.404 0.351-0.351 2.457-2.457 3.16-3.16 6.319-0.702 0.351-1.755-0.702-2.457 0.351 0 0.702 0.702 1.755 0.351 2.458 6.319-0.351 6.319-7.723 11.234-10.181-0.351 1.053-2.457 2.106-1.053 2.808 1.053 0 4.213-3.511 2.457-3.159 1.053 0.702-1.053 1.404-1.404 1.053 1.755-1.404 1.053-3.16 2.458-3.511 1.053 0.702-1.053 2.457 1.053 2.107 1.404-3.16 3.16-3.511 5.266-5.266-1.404 1.404 1.755 1.755 0.351 3.159-5.266 1.053-3.511 7.021-8.777 7.724-1.404 1.053-0.351 1.404-0.702 2.457-1.755-1.053-5.617 4.915-4.213 4.564-1.755 1.755-2.809 1.053-4.212 1.404-0.351 1.404 1.404 0.351 0.702 1.405-2.457-1.053-5.617 2.457-7.724 4.915l-1.053-1.054c-1.053 2.809-3.862 3.16-7.021 5.266 3.511 1.755 9.479-5.617 11.234-4.564 0.351 0 3.16-2.809 4.213-3.861 4.564-3.511 10.181-6.319 12.287-10.181-0.351 0.702-2.457 0.702-1.404-0.351 1.053-0.351 2.106 0.351 3.159 0.351 5.617-7.723 12.638-14.043 17.905-23.17 0.351-0.351 0.702-1.053 1.053-1.756-0.702 2.106-1.755 3.862-2.458 5.968-5.617 3.862-7.723 15.096-14.393 16.851 0.351 3.862-3.16 4.915-4.915 9.479-1.053 1.404-1.755-1.053-2.809 0.702 1.053 4.915-8.777 4.564-8.425 9.128-0.702 0.351-1.755 0.702-2.458 1.404h-0.351c-0.351 0.351-0.351 0.351-0.702 0.702-1.755 1.053-3.16 2.106-4.564 3.16-4.915 2.809-11.585 4.915-16.851 7.723v-0.351c-1.404 0.702-3.16 0.351-2.809 1.756-1.053 0.702-2.106 1.404-3.159 2.106-0.351 0-0.351 0-0.702 0 0 0-0.351-0.351-0.702-0.351-0.702 0-0.702 0-1.054 0.351-4.564 0.351-10.532 2.457-12.287 3.862-1.755-1.053-9.83 0.702-11.234 1.404 0.702 1.053 2.809 0 4.564 0-1.053 0.351-2.106 0.702-2.458 1.404-0.351 0-0.351 0-0.702 0-0.351-1.053-1.404 0-1.755-0.351h0.351c-0.351-1.404-1.404-2.106-3.16-1.755 0 0.702 0 1.053-0.351 1.755 0.702 0 2.809-1.053 2.809 0-0.351 0-0.351 0.351 0 0.351-0.702 0.702-1.755 0.702-2.458 1.054-1.404 0-3.16 0-4.563 0-0.351-0.351-0.702-0.351-1.405-0.703-0.351 0.351-1.053 0.351-1.404 0.703-2.106 0-4.564 0.351-6.319 0.702 0-0.702 0-1.404-0.702-1.405-1.053 1.404-3.16-0.351-5.617 0.352-2.457-0.702 1.404 1.053 4.915 1.755-0.351 0.351-0.702 0.702-1.756 1.053M116.068 308.271c-4.915-4.564-15.096-6.67-16.851-10.181-2.809-0.351-7.021-5.617-10.532-6.319 1.755 0 0.351-1.053 0-1.755-0.702 0.702-1.404 1.053-2.106 1.053 0-2.809-2.809-4.564-5.266-6.319 1.755 1.053 3.16 1.755 5.266 2.106 0-0.702 0-1.404 0.702-1.404 2.457 2.457 5.266 4.915 8.425 7.372 4.213 3.862 25.979 13.692 29.841 15.447 0 0-0.702 1.404-0.351 1.404 1.755 1.053 3.16-1.053 3.511 1.404-5.617 0.702-7.723-3.16-12.639-2.808M277.909 226.824v0.351 0c-0.351 0 0-0.351 0-0.351M136.079 64.281c-0.351 0.351-0.702 0.351-0.702 0.351 0-0.351 0.351-0.351 0.702-0.351M129.409 66.036c0 0.351 0 0.351 0 0 0 0.351 0 0.351 0 0 0 0.351 0 0 0 0M106.238 73.408v0c0.351-0.351 0.351-0.351 0.703-0.351-0.351 0-0.702 0.351-0.703 0.351M162.409 61.823c-0.702 0-1.053 0-1.404-0.351 0.351 0 0.702 0 1.053 0h0.351c0 0 0 0 0 0.351M168.728 62.525c-0.351-0.351-1.404-0.702-2.457-0.702 0-0.351 0.351-0.702 0.351-0.702 0.351 0 0.702 0 1.053 0 0 0 0.351 0 0.351 0.351 0 0 0 0 0-0.351 0.351 0 0.351 0 0.702 0 0.351 0.702 0.702 1.053 0 1.404M180.313 63.579c-1.755 0.351-2.809-0.351-4.564-1.405 1.053 0 2.457 0.351 3.511 0.702 0.351 0 0.702 0.351 1.053 0.703M305.292 113.43c-0.702 0.351-1.053 0.351-1.755-1.053-5.617-11.936-15.798-29.138-30.543-43.532-14.394-14.745-33.702-26.681-51.255-33.001 1.053 0.351 2.457 1.053 1.755 1.756-15.447-5.968-30.192-9.479-44.234-10.883-37.915-5.968-77.585 2.106-108.128 21.766 0.351 0.702 0.351 1.053-0.702 1.755-11.234 7.021-27.032 19.309-39.671 35.458-12.638 16.149-22.468 36.511-26.681 54.766 0.351-1.053 0.702-2.809 1.405-2.107-9.128 36.16-6.67 67.053 5.968 93.735 0.702-0.702-1.755-4.213 0.351-3.862 1.404 3.862 3.16 8.075 5.266 11.936 2.457 5.617 5.266 12.989 9.128 14.745-9.83-19.309-16.5-41.426-17.203-61.085 1.404 2.809 1.053 8.777 3.16 11.234 0.702-13.34-2.457-31.245 2.106-43.883-1.053 6.67-1.755 15.798-1.053 24.925 0 6.67 3.16 25.277 5.266 27.032-0.351-0.351-0.351-2.106 0-2.106 1.053 2.106-1.404 3.16 0.351 3.511 0-0.702 0.351-0.702 0.702-0.703 3.511 7.723 8.075 19.66 11.585 25.628 4.213 7.723 9.83 14.745 16.149 21.064 0 0.351 0.351 0.351 0.352 0.702 0.702 1.755 3.16 3.862 3.861 5.266 0.351 0.702-0.351 1.755 0 2.458 5.266 9.83 12.989 19.66 22.468 27.383 5.968 7.021 15.447 14.394 27.032 20.713 11.234 5.968 24.223 10.883 36.16 13.691 8.426 2.106 18.606 2.457 24.926 3.862 8.426 1.755 23.17-0.702 30.542-2.107 44.234-6.67 88.117-36.862 110.235-80.393 22.819-43.883 22.117-97.596 2.457-138.671" fill="#ff0000" fill-rule="nonzero" stroke="none" stroke-width="1" stroke-linecap="butt" stroke-linejoin="miter" stroke-miterlimit="10" stroke-dasharray="" stroke-dashoffset="0" font-family="none" font-weight="none" font-size="none" text-anchor="none" style="mix-blend-mode: normal" data-fill-palette-color="tertiary"></path></g><g transform="matrix(1,0,0,1,80,108)"><svg viewBox="0 0 160 144" height="144" width="160"><g><svg viewBox="0 0 160 144" height="144" width="160"><g><svg viewBox="0 0 160 144" height="144" width="160"><g><svg viewBox="0 0 160 144" height="144" width="160"><g><svg viewBox="0 0 160 144" height="144" width="160"><g transform="matrix(1,0,0,1,34.4308963235336,29.57359312880714)"><svg viewBox="0 0 91.1382073529328 84.85281374238572" height="84.85281374238572" width="91.1382073529328"><g><circle r="42" cx="45.5691036764664" cy="42.42640687119286" fill="#ed2647" data-fill-palette-color="accent"></circle><svg xmlns="http://www.w3.org/2000/svg" xmlns:xlink="http://www.w3.org/1999/xlink" version="1.1" x="14.142135623730951" y="14.142135623730951" viewBox="0 0 128 128" style="enable-background:new 0 0 128 128;" xml:space="preserve" height="56.56854249492382" width="62.8539361054709" class="icon-o-0" data-fill-palette-color="quaternary" id="o-0"><path d="M122.721 79l-5.751-17.243-2-8-0.521 0.13c1.438-2.001 2.038-4.549 1.542-7.028-1.945-9.726-7.15-18.591-14.672-25.044 1.058-1.69 1.68-3.679 1.68-5.815 0-6.065-4.935-11-11-11S81 9.935 81 16c0 4.956 3.296 9.154 7.81 10.525l-3.67 12.847-11.694 7.796c-0.036 0.024-0.058 0.059-0.089 0.087-0.019 0.016-0.045 0.02-0.063 0.038L61.586 59H50.479C52.053 57.097 53 54.657 53 52c0-6.065-4.935-11-11-11s-11 4.935-11 11c0 3.317 1.482 6.288 3.811 8.307l-5.944 15.454c-1.022 2.657-0.746 5.567 0.758 7.984 0.42 0.674 0.922 1.272 1.482 1.8l-5.9 9.834-9.913 9.913c-0.391 0.391-0.391 1.023 0 1.414l6 6C21.488 112.902 21.744 113 22 113s0.512-0.098 0.707-0.293l12-12c0.047-0.047 0.088-0.098 0.125-0.152l8-12-0.035-0.024L47 88.913V99h-3c-0.315 0-0.611 0.148-0.8 0.4l-11.78 15.707-25.645 5.918C5.321 121.13 5 121.534 5 122v2h2v-1.204l25.226-5.821c0.229-0.054 0.434-0.186 0.575-0.375L44.5 101H48h10 6c0.284 0 0.554-0.12 0.743-0.331L82.445 81H86h12 14 10 2v-2H122.721zM83 16c0-4.962 4.038-9 9-9s9 4.038 9 9-4.038 9-9 9S83 20.962 83 16zM33 52c0-4.962 4.038-9 9-9s9 4.038 9 9-4.038 9-9 9S33 56.962 33 52zM33.223 99.363L22 110.586 17.414 106l9.293-9.293c0.058-0.058 0.108-0.123 0.15-0.192l5.857-9.761c1.123 0.658 2.389 1.078 3.738 1.201l4.126 0.375L33.223 99.363zM49 99V88c0-0.517-0.395-0.949-0.91-0.996l-11.457-1.042c-2.205-0.2-4.141-1.394-5.31-3.274-1.169-1.88-1.384-4.144-0.589-6.21l5.758-14.972C38.114 62.45 39.992 63 42 63c2.346 0 4.517-0.744 6.305-2H62c0.265 0 0.52-0.105 0.707-0.293l11.019-11.019 3.083 6.165L65.505 69.041 43.91 71.004l0.181 1.992 2.602-0.237-1.641 4.924c-0.092 0.278-0.059 0.582 0.092 0.832 0.151 0.251 0.404 0.423 0.692 0.471l8.658 1.443C55.946 80.671 57 81.916 57 83.389V99H49zM82 79c-0.284 0-0.554 0.12-0.743 0.331L63.555 99H59V83.389c0-2.455-1.757-4.529-4.178-4.932l-7.503-1.25 1.548-4.644 17.223-1.566c0.26-0.024 0.5-0.147 0.669-0.345L78.66 56.767l15.87-9.919c0.156-0.098 0.282-0.236 0.365-0.401l0.791-1.582 1.224 4.897-7.69 9.613c-0.1 0.125-0.168 0.271-0.2 0.428L85.18 79H82zM87.22 79l3.713-18.565 7.848-9.81c0.195-0.244 0.265-0.564 0.189-0.867l-1.91-7.641 1.835-3.669-1.789-0.895-3.874 7.749-14.829 9.268-3.114-6.227 11.265-7.51c0.197-0.132 0.342-0.329 0.407-0.557l3.814-13.347C91.178 26.972 91.586 27 92 27c3.21 0 6.093-1.39 8.106-3.59 7.136 6.156 12.074 14.591 13.925 23.843 0.525 2.628-0.521 5.365-2.664 6.973L99.4 63.2c-0.217 0.163-0.358 0.407-0.392 0.676L97.117 79H87.22zM105.244 61.317l1.776 8.879c0.012 0.06 0.029 0.118 0.052 0.175L110.523 79h-11.39l1.807-14.455L105.244 61.317zM112.677 79l-3.715-9.286-1.945-9.727 5.55-4.162c0.252-0.189 0.478-0.402 0.705-0.613l1.779 7.105L120.613 79H112.677z" fill="#ffffff" data-fill-palette-color="quaternary"></path><path d="M6 21h38c0.552 0 1-0.448 1-1 0-6.065-4.935-11-11-11-1.09 0-2.192 0.177-3.284 0.526C27.896 6.642 24.029 5 20 5 11.729 5 5 11.729 5 20 5 20.552 5.448 21 6 21zM20 7c3.684 0 7.214 1.586 9.686 4.352 0.276 0.31 0.718 0.417 1.104 0.267C31.861 11.208 32.941 11 34 11c4.625 0 8.446 3.506 8.945 8H7.038C7.55 12.297 13.168 7 20 7z" fill="#ffffff" data-fill-palette-color="quaternary"></path><rect x="36" y="27" width="2" height="2" fill="#ffffff" data-fill-palette-color="quaternary"></rect><rect x="44" y="27" width="2" height="2" fill="#ffffff" data-fill-palette-color="quaternary"></rect><rect x="52" y="27" width="2" height="2" fill="#ffffff" data-fill-palette-color="quaternary"></rect></svg></g></svg></g><path d="M73.281 7.158V7.158C73.257 6.439 72.905 6.092 72.227 6.115V6.115C72.133 6.118 72.016 6.129 71.875 6.147 71.741 6.165 71.646 6.135 71.59 6.056V6.056C71.505 5.945 71.64 5.863 71.995 5.81V5.81C72.115 5.786 72.239 5.772 72.367 5.767V5.767C72.971 5.747 73.393 5.991 73.632 6.501V6.501C73.734 6.719 73.79 6.996 73.801 7.332 73.813 7.674 73.68 8.106 73.402 8.626V8.626C72.923 9.57 72.145 10.293 71.066 10.793V10.793C70.708 10.96 70.332 11.05 69.936 11.064 69.546 11.077 69.14 10.99 68.716 10.803V10.803C67.932 10.467 67.374 9.877 67.043 9.035V9.035C66.917 8.703 66.845 8.282 66.828 7.772 66.811 7.268 66.93 6.625 67.186 5.843V5.843C67.779 4.31 68.799 2.988 70.247 1.877V1.877C71.793 0.674 73.254 0.05 74.63 0.003V0.003C75.799-0.037 76.597 0.403 77.025 1.322V1.322C77.214 1.726 77.318 2.213 77.337 2.784V2.784C77.344 2.972 77.34 3.167 77.327 3.369V3.369C77.257 4.279 77.021 5.326 76.617 6.51V6.51C76.557 6.713 76.528 6.849 76.53 6.916 76.533 6.983 76.547 7.016 76.574 7.015V7.015C76.628 7.02 76.715 6.906 76.835 6.674V6.674C77.559 5.237 78.365 3.946 79.254 2.799V2.799C79.543 2.426 79.899 2.118 80.321 1.875V1.875C80.783 1.604 81.198 1.462 81.567 1.45 81.937 1.437 82.233 1.565 82.458 1.833 82.682 2.094 82.801 2.45 82.817 2.9V2.9C82.853 3.954 82.5 5.724 81.758 8.21V8.21C81.607 8.706 81.513 9.025 81.478 9.167V9.167C82.279 7.809 83.29 6.315 84.512 4.687 85.733 3.052 86.836 2.07 87.819 1.741V1.741C87.992 1.681 88.146 1.649 88.28 1.644V1.644C88.676 1.631 88.938 1.82 89.066 2.212V2.212C89.118 2.352 89.147 2.509 89.153 2.683V2.683C89.171 3.214 88.986 3.902 88.598 4.749V4.749C87.797 6.491 87.259 7.874 86.985 8.899V8.899C86.601 10.25 86.417 11.17 86.434 11.66 86.45 12.151 86.511 12.555 86.616 12.874V12.874C86.826 13.513 87.331 13.818 88.13 13.791V13.791C88.177 13.789 88.264 13.783 88.392 13.772 88.519 13.767 88.594 13.788 88.616 13.835 88.631 13.888 88.595 13.936 88.51 13.979 88.424 14.029 88.334 14.056 88.24 14.059 88.153 14.062 88.085 14.058 88.038 14.046V14.046C86.38 13.935 85.525 13.117 85.473 11.592V11.592C85.455 11.042 85.544 10.41 85.741 9.697 85.946 8.985 86.119 8.437 86.26 8.056V8.056C86.488 7.443 86.975 6.243 87.721 4.457V4.457C87.98 3.789 88.104 3.284 88.092 2.941 88.08 2.592 87.93 2.422 87.641 2.432V2.432C87.232 2.446 86.615 2.888 85.791 3.756V3.756C85.362 4.208 84.904 4.758 84.415 5.406 83.926 6.055 83.209 7.185 82.262 8.798 81.315 10.417 80.716 11.553 80.462 12.207V12.207C80.247 12.779 79.941 13.072 79.544 13.086V13.086C79.262 13.095 79.091 13 79.03 12.801V12.801C78.994 12.721 78.992 12.657 79.024 12.609 79.056 12.561 79.147 12.383 79.298 12.075 79.456 11.768 79.619 11.443 79.789 11.101 79.952 10.759 80.148 10.298 80.377 9.719 80.6 9.14 80.805 8.548 80.992 7.944V7.944C81.446 6.456 81.733 4.93 81.855 3.366V3.366C81.869 3.191 81.871 2.969 81.862 2.7 81.853 2.438 81.776 2.233 81.629 2.083 81.483 1.927 81.332 1.851 81.178 1.856V1.856C80.667 1.874 80.117 2.279 79.525 3.072V3.072C78.728 4.135 78.037 5.174 77.453 6.189 76.876 7.21 76.435 8.066 76.129 8.755 75.823 9.444 75.468 10.273 75.064 11.242 74.667 12.21 74.456 12.725 74.431 12.786 74.407 12.854 74.373 12.936 74.329 13.032 74.285 13.121 74.251 13.209 74.227 13.297V13.297C74.096 13.604 73.809 13.765 73.366 13.781V13.781C73.104 13.789 72.96 13.71 72.935 13.543V13.543C72.933 13.51 72.936 13.473 72.941 13.432V13.432C73.596 12.347 74.303 10.71 75.062 8.519V8.519C76.03 5.75 76.492 3.741 76.45 2.492V2.492C76.399 1.001 75.759 0.277 74.53 0.319V0.319C73.738 0.346 72.754 0.759 71.577 1.559 70.395 2.366 69.428 3.377 68.676 4.592V4.592C68.383 5.066 68.163 5.528 68.017 5.976V5.976C67.776 6.785 67.663 7.424 67.679 7.894V7.894C67.725 9.244 68.202 10.115 69.11 10.507V10.507C69.431 10.658 69.753 10.727 70.075 10.716V10.716C71.203 10.678 72.106 10.035 72.782 8.789V8.789C73.131 8.158 73.297 7.615 73.281 7.158ZM116.102 29.154V29.154C115.776 28.825 115.594 28.504 115.558 28.19 115.521 27.876 115.598 27.625 115.789 27.436 115.98 27.246 116.254 27.084 116.611 26.947V26.947C117.177 26.765 117.825 26.813 118.556 27.091V27.091C119.106 27.293 119.767 27.631 120.539 28.105 121.307 28.574 121.807 28.873 122.039 29.003V29.003C122.767 28.801 123.914 28.293 125.481 27.478V27.478C124.301 27.796 123.415 27.961 122.821 27.973 122.236 27.984 121.797 27.842 121.504 27.546V27.546C121.107 27.146 121.04 26.749 121.303 26.355V26.355C121.327 26.275 121.398 26.189 121.518 26.1 121.637 26.01 121.72 25.946 121.768 25.908 121.811 25.866 121.906 25.819 122.054 25.767 122.196 25.711 122.299 25.666 122.361 25.633V25.633C122.608 25.549 122.813 25.488 122.974 25.451V25.451C122.856 25.331 122.883 25.239 123.054 25.173V25.173L123.639 24.99C124.367 24.761 124.981 24.564 125.48 24.4V24.4C125.704 24.32 125.922 24.387 126.135 24.602V24.602L126.809 25.282C126.781 25.282 126.714 25.272 126.61 25.253V25.253C126.387 25.209 126.182 25.213 125.997 25.264V25.264C125.279 25.456 124.294 25.775 123.042 26.22V26.22C122.533 26.404 122.197 26.575 122.035 26.736 121.873 26.897 121.784 27.037 121.769 27.156 121.759 27.279 121.802 27.389 121.896 27.484V27.484C122.038 27.627 122.38 27.676 122.922 27.631V27.631C124.062 27.551 125.608 27.173 127.559 26.497V26.497C127.792 26.427 128.013 26.497 128.221 26.707V26.707L128.817 27.308C128.489 27.245 128.171 27.257 127.862 27.346 127.548 27.44 127.153 27.595 126.677 27.812 126.196 28.023 125.57 28.317 124.799 28.694 124.027 29.071 123.444 29.351 123.049 29.534V29.534C123.949 30.023 124.847 30.193 125.74 30.045V30.045C126.13 29.98 126.77 29.81 127.66 29.533V29.533C127.812 29.487 127.898 29.492 127.916 29.549 127.935 29.615 127.925 29.668 127.887 29.705 127.854 29.739 127.651 29.816 127.28 29.938 126.909 30.06 126.555 30.165 126.217 30.254 125.884 30.338 125.506 30.391 125.083 30.413 124.665 30.43 124.271 30.381 123.901 30.265 123.521 30.149 123.056 29.962 122.507 29.703V29.703C120.903 30.157 119.57 30.339 118.506 30.248V30.248C117.528 30.149 116.726 29.784 116.102 29.155ZM116.566 27.418V27.418C116.318 27.493 116.126 27.599 115.987 27.736 115.849 27.873 115.796 28.03 115.828 28.205 115.856 28.386 115.948 28.555 116.104 28.713V28.713C116.53 29.142 117.206 29.38 118.132 29.427 119.058 29.484 119.956 29.445 120.826 29.311V29.311L121.483 29.157C119.947 28.247 118.952 27.701 118.497 27.519V27.519C117.819 27.255 117.175 27.221 116.566 27.418ZM70.856 136.455V136.455C70.909 135.825 70.641 135.486 70.052 135.436V135.436C69.972 135.429 69.871 135.427 69.749 135.431 69.627 135.434 69.546 135.397 69.506 135.319V135.319C69.447 135.213 69.573 135.156 69.884 135.149V135.149C69.993 135.138 70.101 135.137 70.208 135.146V135.146C70.737 135.19 71.079 135.449 71.235 135.92V135.92C71.299 136.121 71.318 136.369 71.294 136.664 71.269 136.958 71.11 137.319 70.818 137.746V137.746C70.301 138.518 69.55 139.065 68.565 139.387V139.387C68.233 139.493 67.896 139.532 67.554 139.503 67.213 139.475 66.868 139.358 66.522 139.153V139.153C65.872 138.781 65.445 138.209 65.241 137.437V137.437C65.164 137.14 65.145 136.771 65.182 136.329 65.22 135.888 65.391 135.339 65.696 134.684V134.684C66.376 133.413 67.402 132.367 68.773 131.545V131.545C70.237 130.657 71.571 130.265 72.776 130.366V130.366C73.794 130.452 74.442 130.922 74.721 131.775V131.775C74.845 132.142 74.886 132.577 74.843 133.08V133.08C74.83 133.24 74.805 133.407 74.771 133.579V133.579C74.617 134.362 74.306 135.249 73.838 136.241V136.241C73.756 136.41 73.713 136.521 73.708 136.574 73.703 136.635 73.714 136.666 73.741 136.668V136.668C73.787 136.685 73.872 136.598 73.996 136.406V136.406C74.776 135.232 75.612 134.193 76.504 133.291V133.291C76.799 132.992 77.139 132.758 77.524 132.588V132.588C77.958 132.402 78.336 132.323 78.657 132.35 78.979 132.377 79.223 132.519 79.39 132.776 79.558 133.026 79.625 133.349 79.591 133.744V133.744C79.514 134.661 79.023 136.164 78.118 138.252V138.252C77.941 138.668 77.828 138.935 77.777 139.052V139.052C78.612 137.956 79.647 136.759 80.882 135.461 82.118 134.17 83.178 133.433 84.063 133.252V133.252C84.221 133.218 84.36 133.206 84.481 133.216V133.216C84.822 133.245 85.028 133.438 85.099 133.794V133.794C85.13 133.912 85.138 134.051 85.125 134.211V134.211C85.086 134.673 84.851 135.254 84.421 135.952V135.952C83.552 137.382 82.943 138.528 82.594 139.388V139.388C82.12 140.522 81.866 141.303 81.829 141.731 81.793 142.16 81.807 142.518 81.87 142.807V142.807C81.983 143.383 82.391 143.7 83.094 143.76V143.76C83.128 143.762 83.201 143.769 83.315 143.778 83.43 143.781 83.492 143.807 83.501 143.855 83.51 143.903 83.477 143.94 83.4 143.968 83.317 143.994 83.239 144.004 83.165 143.998 83.085 143.991 83.022 143.983 82.975 143.972V143.972C81.548 143.703 80.891 142.906 81.003 141.58V141.58C81.043 141.098 81.19 140.558 81.443 139.959 81.689 139.359 81.893 138.901 82.055 138.584V138.584C82.32 138.074 82.87 137.079 83.703 135.598V135.598C83.992 135.049 84.149 134.624 84.175 134.323 84.2 134.022 84.086 133.861 83.831 133.839V133.839C83.476 133.809 82.897 134.128 82.092 134.795V134.795C81.678 135.144 81.224 135.574 80.729 136.085 80.234 136.596 79.493 137.505 78.506 138.81 77.512 140.116 76.874 141.043 76.592 141.592V141.592C76.336 142.063 76.038 142.284 75.696 142.255V142.255C75.449 142.234 75.309 142.134 75.277 141.956V141.956C75.255 141.887 75.26 141.83 75.291 141.785 75.321 141.748 75.421 141.604 75.59 141.356 75.76 141.1 75.934 140.835 76.113 140.56 76.291 140.279 76.509 139.899 76.765 139.422 77.022 138.938 77.263 138.442 77.487 137.935V137.935C78.031 136.687 78.441 135.393 78.715 134.054V134.054C78.742 133.901 78.765 133.708 78.785 133.473 78.805 133.239 78.76 133.05 78.651 132.906 78.542 132.755 78.417 132.674 78.277 132.662V132.662C77.835 132.624 77.314 132.921 76.715 133.551V133.551C75.909 134.394 75.201 135.227 74.592 136.052 73.983 136.877 73.509 137.572 73.172 138.137 72.834 138.702 72.442 139.387 71.997 140.192 71.545 140.99 71.307 141.415 71.282 141.467 71.257 141.526 71.218 141.593 71.164 141.669 71.117 141.746 71.077 141.821 71.044 141.892V141.892C70.908 142.143 70.643 142.252 70.248 142.219V142.219C70.02 142.2 69.902 142.119 69.894 141.977V141.977C69.896 141.95 69.906 141.917 69.923 141.878V141.878C70.597 140.998 71.379 139.648 72.267 137.828V137.828C73.4 135.517 74.012 133.815 74.104 132.724V132.724C74.214 131.425 73.733 130.73 72.662 130.64V130.64C71.966 130.581 71.064 130.839 69.957 131.413 68.85 131.987 67.908 132.763 67.131 133.743V133.743C66.821 134.135 66.58 134.516 66.407 134.885V134.885C66.114 135.562 65.95 136.108 65.915 136.523V136.523C65.816 137.694 66.142 138.501 66.894 138.942V138.942C67.157 139.099 67.429 139.189 67.71 139.213V139.213C68.694 139.296 69.546 138.832 70.265 137.821V137.821C70.625 137.312 70.822 136.856 70.856 136.455ZM124.892 131.446V131.446C124.601 131.715 124.317 131.864 124.04 131.891 123.763 131.918 123.542 131.843 123.378 131.665 123.219 131.492 123.088 131.247 122.986 130.929V130.929C122.844 130.429 122.905 129.861 123.168 129.225V129.225C123.362 128.752 123.677 128.187 124.112 127.529 124.547 126.871 124.823 126.442 124.94 126.242V126.242C124.794 125.599 124.385 124.577 123.713 123.177V123.177C123.957 124.223 124.076 125.005 124.07 125.523 124.063 126.041 123.927 126.423 123.661 126.669V126.669C123.296 127.007 122.942 127.05 122.6 126.799V126.799C122.534 126.777 122.463 126.715 122.386 126.612 122.314 126.505 122.263 126.429 122.231 126.385 122.19 126.34 122.151 126.253 122.113 126.123 122.071 125.998 122.036 125.911 122.009 125.863V125.863C121.937 125.636 121.89 125.456 121.867 125.322V125.322C121.758 125.422 121.678 125.395 121.627 125.241V125.241L121.484 124.715C121.31 124.071 121.157 123.53 121.027 123.092V123.092C120.959 122.89 121.024 122.697 121.221 122.515V122.515L121.836 121.947C121.834 121.976 121.825 122.035 121.807 122.124V122.124C121.762 122.313 121.757 122.491 121.793 122.659V122.659C121.935 123.297 122.183 124.17 122.539 125.277V125.277C122.683 125.73 122.823 126.03 122.96 126.178 123.097 126.326 123.217 126.407 123.321 126.421 123.425 126.434 123.522 126.4 123.61 126.318V126.318C123.739 126.199 123.793 125.902 123.774 125.426V125.426C123.737 124.426 123.456 123.062 122.93 121.334V121.334C122.871 121.123 122.936 120.93 123.124 120.757V120.757L123.664 120.258C123.605 120.541 123.611 120.819 123.681 121.093 123.746 121.371 123.865 121.723 124.039 122.148 124.212 122.574 124.452 123.13 124.757 123.817 125.063 124.504 125.29 125.022 125.438 125.37V125.37C125.896 124.599 126.074 123.821 125.972 123.038V123.038C125.929 122.693 125.799 122.127 125.583 121.339V121.339C125.54 121.204 125.548 121.128 125.606 121.112 125.659 121.1 125.701 121.111 125.733 121.145 125.765 121.18 125.829 121.358 125.926 121.681 126.027 122.008 126.107 122.323 126.167 122.624 126.231 122.922 126.266 123.251 126.27 123.613 126.275 123.984 126.221 124.331 126.108 124.655 125.995 124.978 125.816 125.378 125.569 125.853V125.853C125.917 127.269 126.035 128.441 125.922 129.369V129.369C125.808 130.225 125.464 130.917 124.892 131.446ZM123.391 130.981V130.981C123.454 131.197 123.542 131.367 123.656 131.49 123.77 131.614 123.906 131.667 124.063 131.649 124.221 131.632 124.369 131.559 124.507 131.431V131.431C124.897 131.071 125.129 130.486 125.204 129.676 125.279 128.866 125.272 128.076 125.183 127.307V127.307L125.063 126.732C124.217 128.044 123.711 128.897 123.543 129.289V129.289C123.287 129.874 123.236 130.437 123.391 130.981ZM13.234 74.274C13.234 73.47 13.886 72.818 14.69 72.818 15.495 72.818 16.147 73.47 16.147 74.274 16.147 75.079 15.495 75.731 14.69 75.731 13.886 75.731 13.234 75.079 13.234 74.274ZM143.853 74.274C143.853 73.47 144.505 72.818 145.31 72.818 146.114 72.818 146.766 73.47 146.766 74.274 146.766 75.079 146.114 75.731 145.31 75.731 144.505 75.731 143.853 75.079 143.853 74.274Z" fill="#ff0000" data-fill-palette-color="primary"></path></svg></g></svg></g></svg></g></svg></g></svg></g></svg></g><defs></defs></svg><rect width="320" height="360" fill="none" stroke="none" visibility="hidden"></rect></g></svg></g></svg>